G04 ================== begin FILE IDENTIFICATION RECORD ==================*
G04 Layout Name:  E:/FACOMSA/allegro/TFG_RECEIVER_0V5.brd*
G04 Film Name:    PCB_ReceiverSoldermaskBOTTOM*
G04 File Format:  Gerber RS274X*
G04 File Origin:  Cadence Allegro 17.0-S002*
G04 Origin Date:  Mon Mar 27 20:28:53 2023*
G04 *
G04 Layer:  BOARD GEOMETRY/SOLDERMASK_BOTTOM*
G04 Layer:  VIA CLASS/SOLDERMASK_BOTTOM*
G04 Layer:  PACKAGE GEOMETRY/SOLDERMASK_BOTTOM*
G04 Layer:  PIN/SOLDERMASK_BOTTOM*
G04 *
G04 Offset:    (0.0000 0.0000)*
G04 Mirror:    No*
G04 Mode:      Positive*
G04 Rotation:  0*
G04 FullContactRelief:  No*
G04 UndefLineWidth:     0.0000*
G04 ================== end FILE IDENTIFICATION RECORD ====================*
%FSAX34Y34*MOMM*%
%IR0*IPPOS*OFA0.00000B0.00000*MIA0B0*SFA1.00000B1.00000*%
%ADD14O,1.3X2.4*%
%ADD11C,2.*%
%ADD13C,1.4*%
%ADD12R,2.X2.*%
%ADD10C,3.75*%
G75*
%LPD*%
G75*
G36*
G01X0133000Y0076300D02*
G02Y0091700I0016588J0007700D01*
G01X0120200Y0104500D01*
G03Y0063400I0028310J-0020550D01*
G01X0133000Y0076300D01*
G37*
G36*
G01Y0426300D02*
G02Y0441700I0016588J0007700D01*
G01X0120200Y0454500D01*
G03Y0413400I0028310J-0020550D01*
G01X0133000Y0426300D01*
G37*
G36*
G01X0157700Y0067000D02*
G02X0142300I-0007700J0016585D01*
G01X0129500Y0054200D01*
G03X0170500I0020500J0028360D01*
G01X0157700Y0067000D01*
G37*
G36*
G01X0142300Y0101000D02*
G02X0157700I0007700J-0016585D01*
G01X0170500Y0113800D01*
G03X0129500I-0020500J-0028265D01*
G01X0142300Y0101000D01*
G37*
G36*
G01X0167000Y0091700D02*
G02Y0076300I-0016588J-0007700D01*
G01X0179800Y0063400D01*
G03Y0104500I-0028438J0020550D01*
G01X0167000Y0091700D01*
G37*
G36*
G01X0157700Y0417000D02*
G02X0142300I-0007700J0016585D01*
G01X0129500Y0404200D01*
G03X0170500I0020500J0028360D01*
G01X0157700Y0417000D01*
G37*
G36*
G01X0167000Y0441700D02*
G02Y0426300I-0016588J-0007700D01*
G01X0179800Y0413400D01*
G03Y0454500I-0028438J0020550D01*
G01X0167000Y0441700D01*
G37*
G36*
G01X0142300Y0451000D02*
G02X0157700I0007700J-0016585D01*
G01X0170500Y0463800D01*
G03X0129500I-0020500J-0028265D01*
G01X0142300Y0451000D01*
G37*
G36*
G01X0857700Y0067000D02*
G02X0842300I-0007700J0016585D01*
G01X0829500Y0054200D01*
G03X0870500I0020500J0028360D01*
G01X0857700Y0067000D01*
G37*
G36*
G01X0842300Y0101000D02*
G02X0857700I0007700J-0016585D01*
G01X0870500Y0113800D01*
G03X0829500I-0020500J-0028265D01*
G01X0842300Y0101000D01*
G37*
G36*
G01X0833000Y0076300D02*
G02Y0091700I0016588J0007700D01*
G01X0820200Y0104500D01*
G03Y0063400I0028310J-0020550D01*
G01X0833000Y0076300D01*
G37*
G36*
G01Y0426300D02*
G02Y0441700I0016588J0007700D01*
G01X0820200Y0454500D01*
G03Y0413400I0028310J-0020550D01*
G01X0833000Y0426300D01*
G37*
G36*
G01X0857700Y0417000D02*
G02X0842300I-0007700J0016585D01*
G01X0829500Y0404200D01*
G03X0870500I0020500J0028360D01*
G01X0857700Y0417000D01*
G37*
G36*
G01X0842300Y0451000D02*
G02X0857700I0007700J-0016585D01*
G01X0870500Y0463800D01*
G03X0829500I-0020500J-0028265D01*
G01X0842300Y0451000D01*
G37*
G36*
G01X0867000Y0091700D02*
G02Y0076300I-0016588J-0007700D01*
G01X0879800Y0063400D01*
G03Y0104500I-0028438J0020550D01*
G01X0867000Y0091700D01*
G37*
G36*
G01Y0441700D02*
G02Y0426300I-0016588J-0007700D01*
G01X0879800Y0413400D01*
G03Y0454500I-0028438J0020550D01*
G01X0867000Y0441700D01*
G37*
G54D10*
X0150000Y0084000D03*
Y0434000D03*
X0850000Y0084000D03*
Y0434000D03*
G54D11*
X0151000Y0195200D03*
Y0220600D03*
Y0246000D03*
Y0271400D03*
G54D12*
Y0296800D03*
G54D13*
X0217000Y0162000D03*
X0198000Y0448000D03*
Y0481000D03*
X0362000Y0162000D03*
X0343000Y0448000D03*
Y0481000D03*
X0660000Y0174000D03*
Y0319000D03*
G54D14*
X0313300Y0345120D03*
X0312300Y0407120D03*
X0326000Y0345120D03*
X0338700D03*
X0325000Y0407120D03*
X0337700D03*
M02*
