G04 ================== begin FILE IDENTIFICATION RECORD ==================*
G04 Layout Name:  E:/FACOMSA/allegro/TFG_RECEIVER_0V5.brd*
G04 Film Name:    PCB_ReceiverBoardOutline*
G04 File Format:  Gerber RS274X*
G04 File Origin:  Cadence Allegro 17.0-S002*
G04 Origin Date:  Mon Mar 27 20:28:53 2023*
G04 *
G04 Layer:  MANUFACTURING/NCLEGEND-1-2*
G04 Layer:  MANUFACTURING/NCLEGEND-1-4*
G04 Layer:  MANUFACTURING/NCLEGEND-1-6*
G04 Layer:  MANUFACTURING/NCLEGEND-1-8*
G04 Layer:  BOARD GEOMETRY/DIMENSION*
G04 Layer:  BOARD GEOMETRY/OUTLINE*
G04 Layer:  MANUFACTURING/XSECTION_CHART*
G04 Layer:  MANUFACTURING/NCDRILL_FIGURE*
G04 Layer:  MANUFACTURING/NCDRILL_LEGEND*
G04 *
G04 Offset:    (0.0000 0.0000)*
G04 Mirror:    No*
G04 Mode:      Positive*
G04 Rotation:  0*
G04 FullContactRelief:  No*
G04 UndefLineWidth:     0.2000*
G04 ================== end FILE IDENTIFICATION RECORD ====================*
%FSAX34Y34*MOMM*%
%IR0*IPPOS*OFA0.00000B0.00000*MIA0B0*SFA1.00000B1.00000*%
%AMMACRO13*
1,1,.2,.2,0.0*
20,1,.2,.2,0.0,-.2,0.0,0.0*
1,1,.2,-.2,0.0*
1,1,.2,0.0,.2*
20,1,.2,0.0,.2,0.0,-.2,0.0*
1,1,.2,0.0,-.2*
%
%ADD13MACRO13*%
%AMMACRO12*
1,1,.2,.103553,-.25*
20,1,.2,.103553,-.25,-.103553,-.25,0.0*
1,1,.2,-.103553,-.25*
20,1,.2,-.103553,-.25,-.25,-.103553,0.0*
1,1,.2,-.25,-.103553*
20,1,.2,-.25,-.103553,-.25,.103553,0.0*
1,1,.2,-.25,.103553*
20,1,.2,-.25,.103553,-.103553,.25,0.0*
1,1,.2,-.103553,.25*
20,1,.2,-.103553,.25,.103553,.25,0.0*
1,1,.2,.103553,.25*
20,1,.2,.103553,.25,.25,.103553,0.0*
1,1,.2,.25,.103553*
20,1,.2,.25,.103553,.25,-.103553,0.0*
1,1,.2,.25,-.103553*
20,1,.2,.25,-.103553,.103553,-.25,0.0*
1,1,.2,.103553,-.25*
%
%ADD12MACRO12*%
%AMMACRO14*
1,1,.2,.25,.25*
20,1,.2,.25,.25,.25,-.25,0.0*
1,1,.2,.25,-.25*
20,1,.2,.25,-.25,-.25,-.25,0.0*
1,1,.2,-.25,-.25*
20,1,.2,-.25,-.25,-.25,.25,0.0*
1,1,.2,-.25,.25*
20,1,.2,-.25,.25,.25,.25,0.0*
1,1,.2,.25,.25*
%
%ADD14MACRO14*%
%AMMACRO10*
1,1,.2,.25,0.0*
20,1,.2,.25,0.0,0.0,-.25,0.0*
1,1,.2,0.0,-.25*
20,1,.2,0.0,-.25,-.25,0.0,0.0*
1,1,.2,-.25,0.0*
20,1,.2,-.25,0.0,0.0,.25,0.0*
1,1,.2,0.0,.25*
20,1,.2,0.0,.25,.25,0.0,0.0*
1,1,.2,.25,0.0*
%
%ADD10MACRO10*%
%AMMACRO11*
1,1,.2,.5,0.0*
20,1,.2,.5,0.0,.25,.433013,0.0*
1,1,.2,.25,.433013*
20,1,.2,.25,.433013,-.25,.433013,0.0*
1,1,.2,-.25,.433013*
20,1,.2,-.25,.433013,-.5,0.0,0.0*
1,1,.2,-.5,0.0*
20,1,.2,-.5,0.0,-.25,-.433013,0.0*
1,1,.2,-.25,-.433013*
20,1,.2,-.25,-.433013,.25,-.433013,0.0*
1,1,.2,.25,-.433013*
20,1,.2,.25,-.433013,.5,0.0,0.0*
1,1,.2,.5,0.0*
%
%ADD11MACRO11*%
%ADD15C,.2*%
G75*
%LPD*%
G75*
G36*
G01X0116000Y0712550D02*
X0076000Y0706300D01*
X0116000Y0700050D01*
Y0712550D01*
G37*
G36*
G01X0190000Y0588350D02*
X0150000Y0582100D01*
X0190000Y0575850D01*
Y0588350D01*
G37*
G36*
G01X0257000Y0242250D02*
X0217000Y0236000D01*
X0257000Y0229750D01*
Y0242250D01*
G37*
G36*
G01X0238000Y0528250D02*
X0198000Y0522000D01*
X0238000Y0515750D01*
Y0528250D01*
G37*
G36*
G01Y0561250D02*
X0198000Y0555000D01*
X0238000Y0548750D01*
Y0561250D01*
G37*
G36*
G01X0303000Y0515750D02*
X0343000Y0522000D01*
X0303000Y0528250D01*
Y0515750D01*
G37*
G36*
G01Y0548750D02*
X0343000Y0555000D01*
X0303000Y0561250D01*
Y0548750D01*
G37*
G36*
G01X0322000Y0229750D02*
X0362000Y0236000D01*
X0322000Y0242250D01*
Y0229750D01*
G37*
G36*
G01X0727750Y0214000D02*
X0734000Y0174000D01*
X0740250Y0214000D01*
X0727750D01*
G37*
G36*
G01X0740250Y0279000D02*
X0734000Y0319000D01*
X0727750Y0279000D01*
X0740250D01*
G37*
G36*
G01X0810000Y0575850D02*
X0850000Y0582100D01*
X0810000Y0588350D01*
Y0575850D01*
G37*
G36*
G01X0898000Y0700050D02*
X0938000Y0706300D01*
X0898000Y0712550D01*
Y0700050D01*
G37*
G36*
G01X1075050Y0124000D02*
X1081300Y0084000D01*
X1087550Y0124000D01*
X1075050D01*
G37*
G36*
G01X1087550Y0394000D02*
X1081300Y0434000D01*
X1075050Y0394000D01*
X1087550D01*
G37*
G36*
G01X1226850Y0061000D02*
X1233100Y0021000D01*
X1239350Y0061000D01*
X1226850D01*
G37*
G36*
G01X1239350Y0459000D02*
X1233100Y0499000D01*
X1226850Y0459000D01*
X1239350D01*
G37*
G54D10*
X0050350Y-0590150D03*
G54D11*
Y-0463150D03*
G54D12*
Y-0526650D03*
G54D13*
Y-0336150D03*
X0084300Y0057400D03*
Y0042400D03*
Y0027400D03*
Y0117400D03*
Y0102400D03*
Y0087400D03*
Y0072400D03*
X0103600Y0172000D03*
X0118600D03*
X0103600Y0157000D03*
X0118600D03*
X0084300Y0177400D03*
Y0162400D03*
Y0147400D03*
Y0132400D03*
Y0252400D03*
Y0237400D03*
Y0222400D03*
Y0207400D03*
Y0192400D03*
Y0312400D03*
Y0297400D03*
Y0282400D03*
Y0267400D03*
X0109900Y0367900D03*
Y0352900D03*
X0084300Y0372400D03*
Y0357400D03*
Y0342400D03*
Y0327400D03*
Y0447400D03*
Y0432400D03*
Y0417400D03*
Y0402400D03*
Y0387400D03*
Y0492400D03*
Y0477400D03*
Y0462400D03*
X0133600Y0172000D03*
X0148600D03*
X0163600D03*
X0178600D03*
X0133600Y0157000D03*
X0148600D03*
X0163600D03*
X0178600D03*
X0139900Y0367900D03*
X0154900D03*
X0169900D03*
X0184900D03*
X0124900D03*
X0139900Y0352900D03*
X0154900D03*
X0169900D03*
X0184900D03*
X0124900D03*
X0209700Y0030200D03*
X0224700D03*
X0239700D03*
X0194600Y0031000D03*
X0218100Y0062500D03*
X0233100D03*
X0248100D03*
X0206300Y0178000D03*
X0221300D03*
X0236300D03*
X0251300D03*
X0191300D03*
X0206300Y0193000D03*
X0221300D03*
X0236300D03*
X0251300D03*
X0191300D03*
X0284700Y0030200D03*
X0299700D03*
X0314700D03*
X0254700D03*
X0269700D03*
X0293100Y0062500D03*
X0308100D03*
X0263100D03*
X0278100D03*
X0266300Y0178000D03*
Y0193000D03*
X0264500Y0258500D03*
Y0297000D03*
X0288800Y0375000D03*
Y0360000D03*
X0258800Y0375000D03*
X0273800D03*
X0258800Y0360000D03*
X0273800D03*
X0288800Y0345000D03*
Y0330000D03*
X0258800Y0345000D03*
X0273800D03*
X0258800Y0330000D03*
X0273800D03*
X0288800Y0435000D03*
X0258800D03*
X0273800D03*
X0288800Y0420000D03*
Y0405000D03*
Y0390000D03*
X0258800Y0420000D03*
X0273800D03*
X0258800Y0405000D03*
X0273800D03*
X0258800Y0390000D03*
X0273800D03*
X0359700Y0030200D03*
X0374700D03*
X0329700D03*
X0344700D03*
X0368100Y0062500D03*
X0383100D03*
X0323100D03*
X0338100D03*
X0353100D03*
X0379000Y0209000D03*
X0358200Y0379700D03*
X0373200D03*
X0358200Y0364700D03*
X0373200D03*
X0376300Y0440700D03*
Y0425700D03*
Y0410700D03*
X0358200Y0394700D03*
X0373200D03*
X0376300Y0485700D03*
Y0470700D03*
Y0455700D03*
X0434700Y0030200D03*
X0449700D03*
X0389700D03*
X0404700D03*
X0419700D03*
X0443100Y0062500D03*
X0398100D03*
X0413100D03*
X0428100D03*
X0446000Y0185000D03*
Y0167000D03*
Y0239000D03*
Y0221000D03*
Y0203000D03*
Y0275000D03*
Y0257000D03*
X0407000Y0272000D03*
X0406000Y0284000D03*
X0388200Y0379700D03*
Y0364700D03*
X0391300Y0440700D03*
Y0425700D03*
Y0410700D03*
X0388200Y0394700D03*
X0391300Y0485700D03*
Y0470700D03*
Y0455700D03*
X0509700Y0030200D03*
X0464700D03*
X0479700D03*
X0494700D03*
X0458100Y0062500D03*
X0473100D03*
X0488100D03*
X0503100D03*
X0464000Y0185000D03*
Y0167000D03*
X0482000D03*
X0500000D03*
Y0221000D03*
X0482000Y0203000D03*
X0500000Y0239000D03*
X0482000Y0221000D03*
X0500000Y0203000D03*
X0482000Y0239000D03*
X0464000Y0275000D03*
X0482000D03*
X0500000D03*
X0524700Y0030200D03*
X0539700D03*
X0554700D03*
X0569700D03*
X0518100Y0062500D03*
X0533100D03*
X0548100D03*
X0563100D03*
X0578100D03*
X0554000Y0185000D03*
X0518000Y0167000D03*
X0536000D03*
X0554000D03*
Y0239000D03*
Y0221000D03*
Y0203000D03*
X0518000D03*
Y0221000D03*
Y0239000D03*
Y0275000D03*
X0536000D03*
X0554000D03*
Y0257000D03*
X0599700Y0030200D03*
X0584700D03*
X0637600Y0122600D03*
Y0107600D03*
X0592700Y0123400D03*
X0607700D03*
X0622700D03*
X0592700Y0108400D03*
X0607700D03*
X0622700D03*
X0592700Y0093400D03*
X0607700D03*
X0622700D03*
X0592700Y0078400D03*
X0607700D03*
X0622700D03*
X0593100Y0062500D03*
X0608100D03*
X0637600Y0137600D03*
X0592700Y0138400D03*
X0607700D03*
X0622700D03*
X0599800Y0307600D03*
X0614800D03*
X0629800D03*
X0599800Y0292600D03*
X0614800D03*
X0629800D03*
X0599800Y0277600D03*
X0614800D03*
X0629800D03*
X0599800Y0322600D03*
X0614800D03*
X0629800D03*
X0645000Y0377000D03*
X0631000Y0378000D03*
X0632000Y0364000D03*
X0645000Y0410000D03*
Y0391000D03*
X0631000Y0446000D03*
Y0428000D03*
Y0410000D03*
Y0392000D03*
X0596000Y0437000D03*
X0640000Y0460000D03*
X0652600Y0122600D03*
Y0107600D03*
Y0137600D03*
X0676600Y0253400D03*
X0691600D03*
X0706600D03*
X0676600Y0238400D03*
X0691600D03*
X0706600D03*
X0676600Y0223400D03*
X0691600D03*
X0706600D03*
X0676600Y0313400D03*
X0691600D03*
X0706600D03*
X0676600Y0298400D03*
X0691600D03*
X0706600D03*
X0676600Y0283400D03*
X0691600D03*
X0706600D03*
X0676600Y0268400D03*
X0691600D03*
X0706600D03*
X0676600Y0328400D03*
X0691600D03*
X0706600D03*
X0690000Y0376000D03*
X0659000D03*
X0691000Y0364000D03*
X0646000D03*
X0659000Y0390000D03*
X0681000Y0420000D03*
X0679000Y0478000D03*
X0657000Y0461000D03*
X0744900Y0051200D03*
X0759900D03*
X0774900D03*
X0744900Y0036200D03*
X0759900D03*
X0774900D03*
X0729900Y0051200D03*
Y0036200D03*
X0745840Y0076348D03*
X0766160Y0095652D03*
X0757000Y0191000D03*
X0761400Y0337400D03*
Y0368400D03*
X0764000Y0435000D03*
X0716000Y0444000D03*
X0752900Y0483500D03*
X0767900D03*
X0758200Y0493400D03*
X0773200D03*
X0743000D03*
X0728000D03*
X0759000Y0471000D03*
X0789900Y0051200D03*
Y0036200D03*
X0789000Y0177000D03*
X0783100Y0472400D03*
X0798100D03*
X0789100Y0493200D03*
X0804100D03*
X0782300Y0483700D03*
X0797300D03*
X0902500Y0483400D03*
X0894100Y0493100D03*
X0907200Y0393600D03*
X0922200D03*
X0915500Y0414400D03*
X0930500D03*
X0916500Y0448300D03*
X0931500D03*
X0915500Y0433800D03*
X0930500D03*
X0915000Y0462500D03*
X0930000D03*
X0910600Y0474600D03*
X0925600D03*
X0917500Y0483400D03*
X0909100Y0493100D03*
G54D14*
X0050350Y-0399650D03*
G54D15*
G01X-0035855Y-0288525D02*
Y-0256775D01*
X-0020895D01*
G01X-0026407Y-0272120D02*
X-0035855D01*
G01X-0001609Y-0256775D02*
X0007838D01*
G01X0003115D02*
Y-0288525D01*
G01X-0001609D02*
X0007838D01*
G01X0036967Y-0272650D02*
X0044841D01*
Y-0282175D01*
X0042478Y-0285351D01*
X0039723Y-0287467D01*
X0035786Y-0288525D01*
X0031850Y-0287467D01*
X0029094Y-0285351D01*
X0026732Y-0282175D01*
X0025156Y-0278471D01*
X0024369Y-0274238D01*
Y-0270533D01*
X0025156Y-0267359D01*
X0026732Y-0263654D01*
X0029094Y-0260479D01*
X0031455Y-0258363D01*
X0034605Y-0256775D01*
X0037360D01*
X0040510Y-0257833D01*
X0042872Y-0259950D01*
G01X0057434Y-0256775D02*
Y-0279529D01*
X0059009Y-0284293D01*
X0062158Y-0287467D01*
X0066095Y-0288525D01*
X0070032Y-0287467D01*
X0073181Y-0284293D01*
X0074756Y-0279529D01*
Y-0256775D01*
G01X0089712Y-0288525D02*
Y-0256775D01*
X0099553D01*
X0102703Y-0258363D01*
X0104671Y-0260479D01*
X0105458Y-0264713D01*
X0104671Y-0268946D01*
X0102309Y-0271591D01*
X0099553Y-0273180D01*
X0089712D01*
G01X0099553D02*
X0105458Y-0288525D01*
G01X0136948D02*
X0121202D01*
Y-0256775D01*
X0136948D01*
G01X0130650Y-0272120D02*
X0121202D01*
G01X0131038Y-0225025D02*
X0140880Y-0193275D01*
X0150722Y-0225025D01*
G01X0147178Y-0213913D02*
X0134581D01*
G01X0164497Y-0193275D02*
Y-0225025D01*
X0180243D01*
G01X0195987Y-0193275D02*
Y-0225025D01*
X0211733D01*
G01X0258179Y-0193275D02*
Y-0216029D01*
X0259754Y-0220793D01*
X0262903Y-0223967D01*
X0266840Y-0225025D01*
X0270777Y-0223967D01*
X0273926Y-0220793D01*
X0275501Y-0216029D01*
Y-0193275D01*
G01X0289276Y-0225025D02*
Y-0193275D01*
X0307384Y-0225025D01*
Y-0193275D01*
G01X0325096D02*
X0334543D01*
G01X0329820D02*
Y-0225025D01*
G01X0325096D02*
X0334543D01*
G01X0361310Y-0193275D02*
Y-0225025D01*
G01X0352256Y-0193275D02*
X0370364D01*
G01X0384533Y-0220793D02*
X0387682Y-0223438D01*
X0391225Y-0225025D01*
X0394375D01*
X0397524Y-0223438D01*
X0399886Y-0220793D01*
X0401067Y-0217087D01*
X0400280Y-0213384D01*
X0398311Y-0210209D01*
X0394768Y-0208091D01*
X0390045Y-0207033D01*
X0387289Y-0204917D01*
X0386107Y-0201213D01*
X0386895Y-0197508D01*
X0388863Y-0194863D01*
X0391619Y-0193275D01*
X0394375D01*
X0397130Y-0194333D01*
X0399493Y-0196979D01*
G01X0445938Y-0225025D02*
X0455780Y-0193275D01*
X0465622Y-0225025D01*
G01X0462078Y-0213913D02*
X0449481D01*
G01X0479397Y-0225025D02*
Y-0193275D01*
X0489238D01*
X0492388Y-0194863D01*
X0494356Y-0196979D01*
X0495143Y-0201213D01*
X0494356Y-0205446D01*
X0491994Y-0208091D01*
X0489238Y-0209680D01*
X0479397D01*
G01X0489238D02*
X0495143Y-0225025D01*
G01X0526633D02*
X0510887D01*
Y-0193275D01*
X0526633D01*
G01X0520335Y-0208620D02*
X0510887D01*
G01X0577016Y-0193275D02*
X0586463D01*
G01X0581740D02*
Y-0225025D01*
G01X0577016D02*
X0586463D01*
G01X0604176D02*
Y-0193275D01*
X0622284Y-0225025D01*
Y-0193275D01*
G01X0665974Y-0225025D02*
Y-0193275D01*
X0676210Y-0219733D01*
X0686446Y-0193275D01*
Y-0225025D01*
G01X0702976Y-0193275D02*
X0712423D01*
G01X0707700D02*
Y-0225025D01*
G01X0702976D02*
X0712423D01*
G01X0731317Y-0193275D02*
Y-0225025D01*
X0747063D01*
G01X0762807Y-0193275D02*
Y-0225025D01*
X0778553D01*
G01X0797446Y-0193275D02*
X0806893D01*
G01X0802170D02*
Y-0225025D01*
G01X0797446D02*
X0806893D01*
G01X0823424D02*
Y-0193275D01*
X0833660Y-0219733D01*
X0843896Y-0193275D01*
Y-0225025D01*
G01X0873023D02*
X0857277D01*
Y-0193275D01*
X0873023D01*
G01X0866725Y-0208620D02*
X0857277D01*
G01X0896640Y-0193275D02*
Y-0225025D01*
G01X0887586Y-0193275D02*
X0905694D01*
G01X0936003Y-0225025D02*
X0920257D01*
Y-0193275D01*
X0936003D01*
G01X0929705Y-0208620D02*
X0920257D01*
G01X0951747Y-0225025D02*
Y-0193275D01*
X0961588D01*
X0964738Y-0194863D01*
X0966706Y-0196979D01*
X0967493Y-0201213D01*
X0966706Y-0205446D01*
X0964344Y-0208091D01*
X0961588Y-0209680D01*
X0951747D01*
G01X0961588D02*
X0967493Y-0225025D01*
G01X0982843Y-0220793D02*
X0985992Y-0223438D01*
X0989535Y-0225025D01*
X0992685D01*
X0995834Y-0223438D01*
X0998196Y-0220793D01*
X0999377Y-0217087D01*
X0998590Y-0213384D01*
X0996621Y-0210209D01*
X0993078Y-0208091D01*
X0988355Y-0207033D01*
X0985599Y-0204917D01*
X0984417Y-0201213D01*
X0985205Y-0197508D01*
X0987173Y-0194863D01*
X0989929Y-0193275D01*
X0992685D01*
X0995440Y-0194333D01*
X0997803Y-0196979D01*
G01X0163709Y-0160025D02*
Y-0128275D01*
X0171582D01*
X0174732Y-0129863D01*
X0177094Y-0131979D01*
X0179063Y-0135154D01*
X0180637Y-0138859D01*
X0181031Y-0144150D01*
X0180637Y-0149442D01*
X0179063Y-0153146D01*
X0177094Y-0156322D01*
X0174732Y-0158438D01*
X0171582Y-0160025D01*
X0163709D01*
G01X0195987D02*
Y-0128275D01*
X0205828D01*
X0208978Y-0129863D01*
X0210946Y-0131979D01*
X0211733Y-0136213D01*
X0210946Y-0140446D01*
X0208584Y-0143091D01*
X0205828Y-0144680D01*
X0195987D01*
G01X0205828D02*
X0211733Y-0160025D01*
G01X0230626Y-0128275D02*
X0240073D01*
G01X0235350D02*
Y-0160025D01*
G01X0230626D02*
X0240073D01*
G01X0258967Y-0128275D02*
Y-0160025D01*
X0274713D01*
G01X0290457Y-0128275D02*
Y-0160025D01*
X0306203D01*
G01X0369971Y-0130921D02*
X0367608Y-0129333D01*
X0364853Y-0128275D01*
X0361704D01*
X0358160Y-0129863D01*
X0355405Y-0132508D01*
X0353437Y-0135684D01*
X0351861Y-0140975D01*
X0351468Y-0145738D01*
X0352256Y-0150500D01*
X0353437Y-0153675D01*
X0355799Y-0156851D01*
X0358555Y-0158967D01*
X0361310Y-0160025D01*
X0364065D01*
X0366821Y-0158967D01*
X0369183Y-0157380D01*
X0371152Y-0155264D01*
G01X0384533Y-0160025D02*
Y-0128275D01*
G01X0401067D02*
Y-0160025D01*
G01Y-0144150D02*
X0384533D01*
G01X0414448Y-0160025D02*
X0424290Y-0128275D01*
X0434132Y-0160025D01*
G01X0430588Y-0148913D02*
X0417991D01*
G01X0447907Y-0160025D02*
Y-0128275D01*
X0457748D01*
X0460898Y-0129863D01*
X0462866Y-0131979D01*
X0463653Y-0136213D01*
X0462866Y-0140446D01*
X0460504Y-0143091D01*
X0457748Y-0144680D01*
X0447907D01*
G01X0457748D02*
X0463653Y-0160025D01*
G01X0487270Y-0128275D02*
Y-0160025D01*
G01X0478216Y-0128275D02*
X0496324D01*
G01X0518760Y-0161083D02*
X0517972Y-0160554D01*
Y-0159496D01*
X0518760Y-0158967D01*
X0519548Y-0159496D01*
Y-0160554D01*
X0518760Y-0161083D01*
G01Y-0146797D02*
X0517972Y-0146267D01*
Y-0145209D01*
X0518760Y-0144680D01*
X0519548Y-0145209D01*
Y-0146267D01*
X0518760Y-0146797D01*
G01X0581740Y-0128275D02*
Y-0160025D01*
G01X0572686Y-0128275D02*
X0590794D01*
G01X0613230Y-0160025D02*
X0610080Y-0159496D01*
X0607325Y-0157380D01*
X0604963Y-0154204D01*
X0603388Y-0150500D01*
X0602601Y-0146267D01*
Y-0142033D01*
X0603388Y-0137800D01*
X0604963Y-0134096D01*
X0607325Y-0130921D01*
X0610080Y-0128804D01*
X0613230Y-0128275D01*
X0616379Y-0128804D01*
X0619135Y-0130921D01*
X0621497Y-0134096D01*
X0623072Y-0137800D01*
X0623859Y-0142033D01*
Y-0146267D01*
X0623072Y-0150500D01*
X0621497Y-0154204D01*
X0619135Y-0157380D01*
X0616379Y-0159496D01*
X0613230Y-0160025D01*
G01X0636847D02*
Y-0128275D01*
X0646295D01*
X0649444Y-0129863D01*
X0651806Y-0133567D01*
X0652593Y-0137800D01*
X0651806Y-0142033D01*
X0649838Y-0145209D01*
X0646295Y-0146797D01*
X0636847D01*
G01X0707700Y-0128275D02*
Y-0160025D01*
G01X0702189Y-0138859D02*
X0713211D01*
G01X0739190Y-0160025D02*
X0736828Y-0159496D01*
X0734466Y-0157380D01*
X0732891Y-0153675D01*
X0732104Y-0149442D01*
X0732891Y-0145209D01*
X0734466Y-0141504D01*
X0736828Y-0139388D01*
X0739190Y-0138859D01*
X0741552Y-0139388D01*
X0743914Y-0141504D01*
X0745488Y-0145209D01*
X0745883Y-0149442D01*
X0745488Y-0153675D01*
X0743914Y-0157380D01*
X0741552Y-0159496D01*
X0739190Y-0160025D01*
G01X0805319Y-0143091D02*
X0806894Y-0141504D01*
X0808075Y-0138859D01*
X0808863Y-0135154D01*
X0808075Y-0131979D01*
X0806500Y-0129863D01*
X0803745Y-0128275D01*
X0793116D01*
Y-0160025D01*
X0806107D01*
X0808863Y-0157909D01*
X0810437Y-0154733D01*
X0811224Y-0151029D01*
X0810437Y-0147326D01*
X0808075Y-0144150D01*
X0805319Y-0143091D01*
X0793116D01*
G01X0833660Y-0160025D02*
X0830510Y-0159496D01*
X0827755Y-0157380D01*
X0825393Y-0154204D01*
X0823818Y-0150500D01*
X0823031Y-0146267D01*
Y-0142033D01*
X0823818Y-0137800D01*
X0825393Y-0134096D01*
X0827755Y-0130921D01*
X0830510Y-0128804D01*
X0833660Y-0128275D01*
X0836809Y-0128804D01*
X0839565Y-0130921D01*
X0841927Y-0134096D01*
X0843502Y-0137800D01*
X0844289Y-0142033D01*
Y-0146267D01*
X0843502Y-0150500D01*
X0841927Y-0154204D01*
X0839565Y-0157380D01*
X0836809Y-0159496D01*
X0833660Y-0160025D01*
G01X0865150Y-0128275D02*
Y-0160025D01*
G01X0856096Y-0128275D02*
X0874204D01*
G01X0896640D02*
Y-0160025D01*
G01X0887586Y-0128275D02*
X0905694D01*
G01X0928130Y-0160025D02*
X0924980Y-0159496D01*
X0922225Y-0157380D01*
X0919863Y-0154204D01*
X0918288Y-0150500D01*
X0917501Y-0146267D01*
Y-0142033D01*
X0918288Y-0137800D01*
X0919863Y-0134096D01*
X0922225Y-0130921D01*
X0924980Y-0128804D01*
X0928130Y-0128275D01*
X0931279Y-0128804D01*
X0934035Y-0130921D01*
X0936397Y-0134096D01*
X0937972Y-0137800D01*
X0938759Y-0142033D01*
Y-0146267D01*
X0937972Y-0150500D01*
X0936397Y-0154204D01*
X0934035Y-0157380D01*
X0931279Y-0159496D01*
X0928130Y-0160025D01*
G01X0949384D02*
Y-0128275D01*
X0959620Y-0154733D01*
X0969856Y-0128275D01*
Y-0160025D01*
G01X0223935Y-0288525D02*
Y-0256775D01*
X0238895D01*
G01X0233383Y-0272120D02*
X0223935D01*
G01X0258181Y-0256775D02*
X0267628D01*
G01X0262905D02*
Y-0288525D01*
G01X0258181D02*
X0267628D01*
G01X0285341D02*
Y-0256775D01*
X0303449Y-0288525D01*
Y-0256775D01*
G01X0321161D02*
X0330608D01*
G01X0325885D02*
Y-0288525D01*
G01X0321161D02*
X0330608D01*
G01X0349108Y-0284293D02*
X0352257Y-0286938D01*
X0355800Y-0288525D01*
X0358950D01*
X0362099Y-0286938D01*
X0364461Y-0284293D01*
X0365642Y-0280587D01*
X0364855Y-0276884D01*
X0362886Y-0273709D01*
X0359343Y-0271591D01*
X0354620Y-0270533D01*
X0351864Y-0268417D01*
X0350682Y-0264713D01*
X0351470Y-0261008D01*
X0353438Y-0258363D01*
X0356194Y-0256775D01*
X0358950D01*
X0361705Y-0257833D01*
X0364068Y-0260479D01*
G01X0380598Y-0288525D02*
Y-0256775D01*
G01X0397132D02*
Y-0288525D01*
G01Y-0272650D02*
X0380598D01*
G01X0428228Y-0288525D02*
X0412482D01*
Y-0256775D01*
X0428228D01*
G01X0421930Y-0272120D02*
X0412482D01*
G01X0443184Y-0288525D02*
Y-0256775D01*
X0451057D01*
X0454207Y-0258363D01*
X0456569Y-0260479D01*
X0458538Y-0263654D01*
X0460112Y-0267359D01*
X0460506Y-0272650D01*
X0460112Y-0277942D01*
X0458538Y-0281646D01*
X0456569Y-0284822D01*
X0454207Y-0286938D01*
X0451057Y-0288525D01*
X0443184D01*
G01X0471525Y-0299108D02*
X0495145D01*
G01X0506558Y-0284293D02*
X0509707Y-0286938D01*
X0513250Y-0288525D01*
X0516400D01*
X0519549Y-0286938D01*
X0521911Y-0284293D01*
X0523092Y-0280587D01*
X0522305Y-0276884D01*
X0520336Y-0273709D01*
X0516793Y-0271591D01*
X0512070Y-0270533D01*
X0509314Y-0268417D01*
X0508132Y-0264713D01*
X0508920Y-0261008D01*
X0510888Y-0258363D01*
X0513644Y-0256775D01*
X0516400D01*
X0519155Y-0257833D01*
X0521518Y-0260479D01*
G01X0541591Y-0256775D02*
X0551038D01*
G01X0546315D02*
Y-0288525D01*
G01X0541591D02*
X0551038D01*
G01X0570325Y-0256775D02*
X0585285D01*
X0570325Y-0288525D01*
X0585285D01*
G01X0617168D02*
X0601422D01*
Y-0256775D01*
X0617168D01*
G01X0610870Y-0272120D02*
X0601422D01*
G01X0364459Y-0599675D02*
X0366821Y-0603380D01*
X0369970Y-0605496D01*
X0373514Y-0606025D01*
X0376663Y-0605496D01*
X0379813Y-0602851D01*
X0381781Y-0599675D01*
X0382174Y-0596500D01*
X0381387Y-0592797D01*
X0378631Y-0590150D01*
X0375875Y-0589091D01*
X0372332D01*
G01X0375875D02*
X0378238Y-0587504D01*
X0380206Y-0584859D01*
X0380993Y-0581684D01*
X0380206Y-0578508D01*
X0378238Y-0575863D01*
X0374695Y-0574275D01*
X0371152Y-0574804D01*
X0367609Y-0576921D01*
G01X0404610Y-0607083D02*
X0403822Y-0606554D01*
Y-0605496D01*
X0404610Y-0604967D01*
X0405398Y-0605496D01*
Y-0606554D01*
X0404610Y-0607083D01*
G01X0428620Y-0579567D02*
X0430982Y-0576392D01*
X0433738Y-0574804D01*
X0436888Y-0574275D01*
X0440824Y-0575333D01*
X0443580Y-0577979D01*
X0444367Y-0581154D01*
X0443973Y-0584330D01*
X0442398Y-0586975D01*
X0434525Y-0592267D01*
X0430982Y-0595971D01*
X0428620Y-0601264D01*
X0427833Y-0606025D01*
X0444367D01*
G01X0458929Y-0601264D02*
X0461291Y-0603909D01*
X0464047Y-0605496D01*
X0467590Y-0606025D01*
X0471133Y-0604967D01*
X0473888Y-0602851D01*
X0475857Y-0599146D01*
X0476251Y-0594913D01*
X0475463Y-0590680D01*
X0473495Y-0588033D01*
X0470739Y-0585917D01*
X0467984Y-0585388D01*
X0465228Y-0585917D01*
X0461685Y-0588033D01*
X0462866Y-0574275D01*
X0473495D01*
G01X0388865Y-0542525D02*
Y-0510775D01*
X0384141Y-0517125D01*
G01Y-0542525D02*
X0393588D01*
G01X0420355Y-0543583D02*
X0419567Y-0543054D01*
Y-0541996D01*
X0420355Y-0541467D01*
X0421143Y-0541996D01*
Y-0543054D01*
X0420355Y-0543583D01*
G01X0451845Y-0510775D02*
X0448695Y-0511833D01*
X0446334Y-0514479D01*
X0444759Y-0517654D01*
X0443578Y-0521888D01*
X0443184Y-0526650D01*
X0443578Y-0531413D01*
X0444759Y-0535646D01*
X0446334Y-0538822D01*
X0448695Y-0541467D01*
X0451845Y-0542525D01*
X0454994Y-0541467D01*
X0457356Y-0538822D01*
X0458931Y-0535646D01*
X0460112Y-0531413D01*
X0460506Y-0526650D01*
X0460112Y-0521888D01*
X0458931Y-0517654D01*
X0457356Y-0514479D01*
X0454994Y-0511833D01*
X0451845Y-0510775D01*
G01X0373120Y-0447275D02*
X0369970Y-0448333D01*
X0367609Y-0450979D01*
X0366034Y-0454154D01*
X0364853Y-0458388D01*
X0364459Y-0463150D01*
X0364853Y-0467913D01*
X0366034Y-0472146D01*
X0367609Y-0475322D01*
X0369970Y-0477967D01*
X0373120Y-0479025D01*
X0376269Y-0477967D01*
X0378631Y-0475322D01*
X0380206Y-0472146D01*
X0381387Y-0467913D01*
X0381781Y-0463150D01*
X0381387Y-0458388D01*
X0380206Y-0454154D01*
X0378631Y-0450979D01*
X0376269Y-0448333D01*
X0373120Y-0447275D01*
G01X0404610Y-0480083D02*
X0403822Y-0479554D01*
Y-0478496D01*
X0404610Y-0477967D01*
X0405398Y-0478496D01*
Y-0479554D01*
X0404610Y-0480083D01*
G01X0436100Y-0479025D02*
X0438855Y-0478496D01*
X0442005Y-0476909D01*
X0443973Y-0474264D01*
X0444761Y-0470558D01*
X0443973Y-0466855D01*
X0441611Y-0463680D01*
X0438068Y-0462091D01*
X0434132D01*
X0431770Y-0461033D01*
X0429801Y-0458388D01*
X0429014Y-0454684D01*
X0430195Y-0450979D01*
X0432950Y-0448333D01*
X0436100Y-0447275D01*
X0439249Y-0448333D01*
X0442005Y-0450979D01*
X0443186Y-0454684D01*
X0442398Y-0458388D01*
X0440430Y-0461033D01*
X0438068Y-0462091D01*
X0434132D01*
X0430589Y-0463680D01*
X0428227Y-0466855D01*
X0427439Y-0470558D01*
X0428227Y-0474264D01*
X0430195Y-0476909D01*
X0433345Y-0478496D01*
X0436100Y-0479025D01*
G01X0458929Y-0472675D02*
X0461291Y-0476380D01*
X0464440Y-0478496D01*
X0467984Y-0479025D01*
X0471133Y-0478496D01*
X0474283Y-0475851D01*
X0476251Y-0472675D01*
X0476644Y-0469500D01*
X0475857Y-0465797D01*
X0473101Y-0463150D01*
X0470345Y-0462091D01*
X0466802D01*
G01X0470345D02*
X0472708Y-0460504D01*
X0474676Y-0457859D01*
X0475463Y-0454684D01*
X0474676Y-0451508D01*
X0472708Y-0448863D01*
X0469165Y-0447275D01*
X0465622Y-0447804D01*
X0462079Y-0449921D01*
G01X0388865Y-0383775D02*
X0385715Y-0384833D01*
X0383354Y-0387479D01*
X0381779Y-0390654D01*
X0380598Y-0394888D01*
X0380204Y-0399650D01*
X0380598Y-0404413D01*
X0381779Y-0408646D01*
X0383354Y-0411822D01*
X0385715Y-0414467D01*
X0388865Y-0415525D01*
X0392014Y-0414467D01*
X0394376Y-0411822D01*
X0395951Y-0408646D01*
X0397132Y-0404413D01*
X0397526Y-0399650D01*
X0397132Y-0394888D01*
X0395951Y-0390654D01*
X0394376Y-0387479D01*
X0392014Y-0384833D01*
X0388865Y-0383775D01*
G01X0420355Y-0416583D02*
X0419567Y-0416054D01*
Y-0414996D01*
X0420355Y-0414467D01*
X0421143Y-0414996D01*
Y-0416054D01*
X0420355Y-0416583D01*
G01X0451057Y-0415525D02*
X0451845Y-0408646D01*
X0453026Y-0402826D01*
X0454600Y-0397533D01*
X0456569Y-0391713D01*
X0459718Y-0383775D01*
X0443972D01*
G01X0388865Y-0320275D02*
X0385715Y-0321333D01*
X0383354Y-0323979D01*
X0381779Y-0327154D01*
X0380598Y-0331388D01*
X0380204Y-0336150D01*
X0380598Y-0340913D01*
X0381779Y-0345146D01*
X0383354Y-0348322D01*
X0385715Y-0350967D01*
X0388865Y-0352025D01*
X0392014Y-0350967D01*
X0394376Y-0348322D01*
X0395951Y-0345146D01*
X0397132Y-0340913D01*
X0397526Y-0336150D01*
X0397132Y-0331388D01*
X0395951Y-0327154D01*
X0394376Y-0323979D01*
X0392014Y-0321333D01*
X0388865Y-0320275D01*
G01X0420355Y-0353083D02*
X0419567Y-0352554D01*
Y-0351496D01*
X0420355Y-0350967D01*
X0421143Y-0351496D01*
Y-0352554D01*
X0420355Y-0353083D01*
G01X0456569Y-0352025D02*
Y-0320275D01*
X0442003Y-0343029D01*
X0461687D01*
G01X0472407Y0566225D02*
X0473195Y0573104D01*
X0474376Y0578924D01*
X0475950Y0584217D01*
X0477919Y0590037D01*
X0481068Y0597975D01*
X0465322D01*
G01X0504685D02*
X0501535Y0596917D01*
X0499174Y0594271D01*
X0497599Y0591096D01*
X0496418Y0586862D01*
X0496024Y0582100D01*
X0496418Y0577337D01*
X0497599Y0573104D01*
X0499174Y0569928D01*
X0501535Y0567283D01*
X0504685Y0566225D01*
X0507834Y0567283D01*
X0510196Y0569928D01*
X0511771Y0573104D01*
X0512952Y0577337D01*
X0513346Y0582100D01*
X0512952Y0586862D01*
X0511771Y0591096D01*
X0510196Y0594271D01*
X0507834Y0596917D01*
X0504685Y0597975D01*
G01X0462765Y0690425D02*
X0465520Y0690954D01*
X0468670Y0692541D01*
X0470638Y0695186D01*
X0471426Y0698892D01*
X0470638Y0702595D01*
X0468276Y0705770D01*
X0464733Y0707359D01*
X0460797D01*
X0458435Y0708417D01*
X0456466Y0711062D01*
X0455679Y0714766D01*
X0456860Y0718471D01*
X0459615Y0721117D01*
X0462765Y0722175D01*
X0465914Y0721117D01*
X0468670Y0718471D01*
X0469851Y0714766D01*
X0469063Y0711062D01*
X0467095Y0708417D01*
X0464733Y0707359D01*
X0460797D01*
X0457254Y0705770D01*
X0454892Y0702595D01*
X0454104Y0698892D01*
X0454892Y0695186D01*
X0456860Y0692541D01*
X0460010Y0690954D01*
X0462765Y0690425D01*
G01X0486775Y0703653D02*
X0489531Y0707359D01*
X0491893Y0709475D01*
X0495043Y0710533D01*
X0497798Y0709475D01*
X0499766Y0707359D01*
X0501341Y0704183D01*
X0501735Y0700479D01*
X0501341Y0697304D01*
X0499766Y0694128D01*
X0497404Y0691483D01*
X0494649Y0690425D01*
X0491500Y0691483D01*
X0488744Y0694657D01*
X0487169Y0699421D01*
X0486775Y0704712D01*
X0487562Y0711591D01*
X0488744Y0715296D01*
X0490712Y0719000D01*
X0493467Y0721646D01*
X0496223Y0722175D01*
X0498979Y0721117D01*
X0500948Y0718471D01*
G01X0525745Y0689367D02*
X0524957Y0689896D01*
Y0690954D01*
X0525745Y0691483D01*
X0526533Y0690954D01*
Y0689896D01*
X0525745Y0689367D01*
G01X0549755Y0716883D02*
X0552117Y0720058D01*
X0554873Y0721646D01*
X0558023Y0722175D01*
X0561959Y0721117D01*
X0564715Y0718471D01*
X0565502Y0715296D01*
X0565108Y0712120D01*
X0563533Y0709475D01*
X0555660Y0704183D01*
X0552117Y0700479D01*
X0549755Y0695186D01*
X0548968Y0690425D01*
X0565502D01*
G01X0686836Y-0606025D02*
Y-0574275D01*
X0704944Y-0606025D01*
Y-0574275D01*
G01X0727380Y-0606025D02*
X0724230Y-0605496D01*
X0721475Y-0603380D01*
X0719113Y-0600204D01*
X0717538Y-0596500D01*
X0716751Y-0592267D01*
Y-0588033D01*
X0717538Y-0583800D01*
X0719113Y-0580096D01*
X0721475Y-0576921D01*
X0724230Y-0574804D01*
X0727380Y-0574275D01*
X0730529Y-0574804D01*
X0733285Y-0576921D01*
X0735647Y-0580096D01*
X0737222Y-0583800D01*
X0738009Y-0588033D01*
Y-0592267D01*
X0737222Y-0596500D01*
X0735647Y-0600204D01*
X0733285Y-0603380D01*
X0730529Y-0605496D01*
X0727380Y-0606025D01*
G01X0749816D02*
Y-0574275D01*
X0767924Y-0606025D01*
Y-0574275D01*
G01X0785242Y-0595442D02*
X0795478D01*
G01X0813977Y-0606025D02*
Y-0574275D01*
X0823425D01*
X0826574Y-0575863D01*
X0828936Y-0579567D01*
X0829723Y-0583800D01*
X0828936Y-0588033D01*
X0826968Y-0591209D01*
X0823425Y-0592797D01*
X0813977D01*
G01X0845467Y-0574275D02*
Y-0606025D01*
X0861213D01*
G01X0874988D02*
X0884830Y-0574275D01*
X0894672Y-0606025D01*
G01X0891128Y-0594913D02*
X0878531D01*
G01X0916320Y-0574275D02*
Y-0606025D01*
G01X0907266Y-0574275D02*
X0925374D01*
G01X0955683Y-0606025D02*
X0939937D01*
Y-0574275D01*
X0955683D01*
G01X0949385Y-0589620D02*
X0939937D01*
G01X0970639Y-0606025D02*
Y-0574275D01*
X0978512D01*
X0981662Y-0575863D01*
X0984024Y-0577979D01*
X0985993Y-0581154D01*
X0987567Y-0584859D01*
X0987961Y-0590150D01*
X0987567Y-0595442D01*
X0985993Y-0599146D01*
X0984024Y-0602322D01*
X0981662Y-0604438D01*
X0978512Y-0606025D01*
X0970639D01*
G01X0750997Y-0542525D02*
Y-0510775D01*
X0760445D01*
X0763594Y-0512363D01*
X0765956Y-0516067D01*
X0766743Y-0520300D01*
X0765956Y-0524533D01*
X0763988Y-0527709D01*
X0760445Y-0529297D01*
X0750997D01*
G01X0782487Y-0510775D02*
Y-0542525D01*
X0798233D01*
G01X0812008D02*
X0821850Y-0510775D01*
X0831692Y-0542525D01*
G01X0828148Y-0531413D02*
X0815551D01*
G01X0853340Y-0510775D02*
Y-0542525D01*
G01X0844286Y-0510775D02*
X0862394D01*
G01X0892703Y-0542525D02*
X0876957D01*
Y-0510775D01*
X0892703D01*
G01X0886405Y-0526120D02*
X0876957D01*
G01X0907659Y-0542525D02*
Y-0510775D01*
X0915532D01*
X0918682Y-0512363D01*
X0921044Y-0514479D01*
X0923013Y-0517654D01*
X0924587Y-0521359D01*
X0924981Y-0526650D01*
X0924587Y-0531942D01*
X0923013Y-0535646D01*
X0921044Y-0538822D01*
X0918682Y-0540938D01*
X0915532Y-0542525D01*
X0907659D01*
G01X0750997Y-0479025D02*
Y-0447275D01*
X0760445D01*
X0763594Y-0448863D01*
X0765956Y-0452567D01*
X0766743Y-0456800D01*
X0765956Y-0461033D01*
X0763988Y-0464209D01*
X0760445Y-0465797D01*
X0750997D01*
G01X0782487Y-0447275D02*
Y-0479025D01*
X0798233D01*
G01X0812008D02*
X0821850Y-0447275D01*
X0831692Y-0479025D01*
G01X0828148Y-0467913D02*
X0815551D01*
G01X0853340Y-0447275D02*
Y-0479025D01*
G01X0844286Y-0447275D02*
X0862394D01*
G01X0892703Y-0479025D02*
X0876957D01*
Y-0447275D01*
X0892703D01*
G01X0886405Y-0462620D02*
X0876957D01*
G01X0907659Y-0479025D02*
Y-0447275D01*
X0915532D01*
X0918682Y-0448863D01*
X0921044Y-0450979D01*
X0923013Y-0454154D01*
X0924587Y-0457859D01*
X0924981Y-0463150D01*
X0924587Y-0468442D01*
X0923013Y-0472146D01*
X0921044Y-0475322D01*
X0918682Y-0477438D01*
X0915532Y-0479025D01*
X0907659D01*
G01X0750997Y-0415525D02*
Y-0383775D01*
X0760445D01*
X0763594Y-0385363D01*
X0765956Y-0389067D01*
X0766743Y-0393300D01*
X0765956Y-0397533D01*
X0763988Y-0400709D01*
X0760445Y-0402297D01*
X0750997D01*
G01X0782487Y-0383775D02*
Y-0415525D01*
X0798233D01*
G01X0812008D02*
X0821850Y-0383775D01*
X0831692Y-0415525D01*
G01X0828148Y-0404413D02*
X0815551D01*
G01X0853340Y-0383775D02*
Y-0415525D01*
G01X0844286Y-0383775D02*
X0862394D01*
G01X0892703Y-0415525D02*
X0876957D01*
Y-0383775D01*
X0892703D01*
G01X0886405Y-0399120D02*
X0876957D01*
G01X0907659Y-0415525D02*
Y-0383775D01*
X0915532D01*
X0918682Y-0385363D01*
X0921044Y-0387479D01*
X0923013Y-0390654D01*
X0924587Y-0394359D01*
X0924981Y-0399650D01*
X0924587Y-0404942D01*
X0923013Y-0408646D01*
X0921044Y-0411822D01*
X0918682Y-0413938D01*
X0915532Y-0415525D01*
X0907659D01*
G01X0750997Y-0352025D02*
Y-0320275D01*
X0760445D01*
X0763594Y-0321863D01*
X0765956Y-0325567D01*
X0766743Y-0329800D01*
X0765956Y-0334033D01*
X0763988Y-0337209D01*
X0760445Y-0338797D01*
X0750997D01*
G01X0782487Y-0320275D02*
Y-0352025D01*
X0798233D01*
G01X0812008D02*
X0821850Y-0320275D01*
X0831692Y-0352025D01*
G01X0828148Y-0340913D02*
X0815551D01*
G01X0853340Y-0320275D02*
Y-0352025D01*
G01X0844286Y-0320275D02*
X0862394D01*
G01X0892703Y-0352025D02*
X0876957D01*
Y-0320275D01*
X0892703D01*
G01X0886405Y-0335620D02*
X0876957D01*
G01X0907659Y-0352025D02*
Y-0320275D01*
X0915532D01*
X0918682Y-0321863D01*
X0921044Y-0323979D01*
X0923013Y-0327154D01*
X0924587Y-0330859D01*
X0924981Y-0336150D01*
X0924587Y-0341442D01*
X0923013Y-0345146D01*
X0921044Y-0348322D01*
X0918682Y-0350438D01*
X0915532Y-0352025D01*
X0907659D01*
G01X0750997Y-0288525D02*
Y-0256775D01*
X0760445D01*
X0763594Y-0258363D01*
X0765956Y-0262067D01*
X0766743Y-0266300D01*
X0765956Y-0270533D01*
X0763988Y-0273709D01*
X0760445Y-0275297D01*
X0750997D01*
G01X0782487Y-0256775D02*
Y-0288525D01*
X0798233D01*
G01X0812008D02*
X0821850Y-0256775D01*
X0831692Y-0288525D01*
G01X0828148Y-0277413D02*
X0815551D01*
G01X0853340Y-0256775D02*
Y-0288525D01*
G01X0844286Y-0256775D02*
X0862394D01*
G01X0892703Y-0288525D02*
X0876957D01*
Y-0256775D01*
X0892703D01*
G01X0886405Y-0272120D02*
X0876957D01*
G01X0907659Y-0288525D02*
Y-0256775D01*
X0915532D01*
X0918682Y-0258363D01*
X0921044Y-0260479D01*
X0923013Y-0263654D01*
X0924587Y-0267359D01*
X0924981Y-0272650D01*
X0924587Y-0277942D01*
X0923013Y-0281646D01*
X0921044Y-0284822D01*
X0918682Y-0286938D01*
X0915532Y-0288525D01*
X0907659D01*
G01X1102109Y-0606025D02*
Y-0574275D01*
X1087543Y-0597029D01*
X1107227D01*
G01X1088724Y-0537764D02*
X1091086Y-0540409D01*
X1093842Y-0541996D01*
X1097385Y-0542525D01*
X1100928Y-0541467D01*
X1103683Y-0539351D01*
X1105652Y-0535646D01*
X1106046Y-0531413D01*
X1105258Y-0527180D01*
X1103290Y-0524533D01*
X1100534Y-0522417D01*
X1097779Y-0521888D01*
X1095023Y-0522417D01*
X1091480Y-0524533D01*
X1092661Y-0510775D01*
X1103290D01*
G01X1089905Y-0465797D02*
X1092661Y-0462091D01*
X1095023Y-0459975D01*
X1098173Y-0458917D01*
X1100928Y-0459975D01*
X1102896Y-0462091D01*
X1104471Y-0465267D01*
X1104865Y-0468971D01*
X1104471Y-0472146D01*
X1102896Y-0475322D01*
X1100534Y-0477967D01*
X1097779Y-0479025D01*
X1094630Y-0477967D01*
X1091874Y-0474793D01*
X1090299Y-0470029D01*
X1089905Y-0464738D01*
X1090692Y-0457859D01*
X1091874Y-0454154D01*
X1093842Y-0450450D01*
X1096597Y-0447804D01*
X1099353Y-0447275D01*
X1102109Y-0448333D01*
X1104078Y-0450979D01*
G01X1097385Y-0415525D02*
X1100140Y-0414996D01*
X1103290Y-0413409D01*
X1105258Y-0410764D01*
X1106046Y-0407058D01*
X1105258Y-0403355D01*
X1102896Y-0400180D01*
X1099353Y-0398591D01*
X1095417D01*
X1093055Y-0397533D01*
X1091086Y-0394888D01*
X1090299Y-0391184D01*
X1091480Y-0387479D01*
X1094235Y-0384833D01*
X1097385Y-0383775D01*
X1100534Y-0384833D01*
X1103290Y-0387479D01*
X1104471Y-0391184D01*
X1103683Y-0394888D01*
X1101715Y-0397533D01*
X1099353Y-0398591D01*
X1095417D01*
X1091874Y-0400180D01*
X1089512Y-0403355D01*
X1088724Y-0407058D01*
X1089512Y-0410764D01*
X1091480Y-0413409D01*
X1094630Y-0414996D01*
X1097385Y-0415525D01*
G01X1057234Y-0345675D02*
X1059596Y-0349380D01*
X1062745Y-0351496D01*
X1066289Y-0352025D01*
X1069438Y-0351496D01*
X1072588Y-0348851D01*
X1074556Y-0345675D01*
X1074949Y-0342500D01*
X1074162Y-0338797D01*
X1071406Y-0336150D01*
X1068650Y-0335091D01*
X1065107D01*
G01X1068650D02*
X1071013Y-0333504D01*
X1072981Y-0330859D01*
X1073768Y-0327684D01*
X1072981Y-0324508D01*
X1071013Y-0321863D01*
X1067470Y-0320275D01*
X1063927Y-0320804D01*
X1060384Y-0322921D01*
G01X1088724Y-0345675D02*
X1091086Y-0349380D01*
X1094235Y-0351496D01*
X1097779Y-0352025D01*
X1100928Y-0351496D01*
X1104078Y-0348851D01*
X1106046Y-0345675D01*
X1106439Y-0342500D01*
X1105652Y-0338797D01*
X1102896Y-0336150D01*
X1100140Y-0335091D01*
X1096597D01*
G01X1100140D02*
X1102503Y-0333504D01*
X1104471Y-0330859D01*
X1105258Y-0327684D01*
X1104471Y-0324508D01*
X1102503Y-0321863D01*
X1098960Y-0320275D01*
X1095417Y-0320804D01*
X1091874Y-0322921D01*
G01X1128875Y-0320275D02*
X1125725Y-0321333D01*
X1123364Y-0323979D01*
X1121789Y-0327154D01*
X1120608Y-0331388D01*
X1120214Y-0336150D01*
X1120608Y-0340913D01*
X1121789Y-0345146D01*
X1123364Y-0348322D01*
X1125725Y-0350967D01*
X1128875Y-0352025D01*
X1132024Y-0350967D01*
X1134386Y-0348322D01*
X1135961Y-0345146D01*
X1137142Y-0340913D01*
X1137536Y-0336150D01*
X1137142Y-0331388D01*
X1135961Y-0327154D01*
X1134386Y-0323979D01*
X1132024Y-0321333D01*
X1128875Y-0320275D01*
G01X1065895Y-0288525D02*
X1062745Y-0287996D01*
X1059990Y-0285880D01*
X1057628Y-0282704D01*
X1056053Y-0279000D01*
X1055266Y-0274767D01*
Y-0270533D01*
X1056053Y-0266300D01*
X1057628Y-0262596D01*
X1059990Y-0259421D01*
X1062745Y-0257304D01*
X1065895Y-0256775D01*
X1069044Y-0257304D01*
X1071800Y-0259421D01*
X1074162Y-0262596D01*
X1075737Y-0266300D01*
X1076524Y-0270533D01*
Y-0274767D01*
X1075737Y-0279000D01*
X1074162Y-0282704D01*
X1071800Y-0285880D01*
X1069044Y-0287996D01*
X1065895Y-0288525D01*
G01X1069044Y-0280058D02*
X1073768Y-0288525D01*
G01X1097385Y-0256775D02*
Y-0288525D01*
G01X1088331Y-0256775D02*
X1106439D01*
G01X1128875Y-0288525D02*
Y-0274238D01*
X1121002Y-0256775D01*
G01X1136748D02*
X1128875Y-0274238D01*
G01X1056894Y0244575D02*
X1059256Y0240870D01*
X1062405Y0238754D01*
X1065949Y0238225D01*
X1069098Y0238754D01*
X1072248Y0241399D01*
X1074216Y0244575D01*
X1074609Y0247750D01*
X1073822Y0251453D01*
X1071066Y0254100D01*
X1068310Y0255159D01*
X1064767D01*
G01X1068310D02*
X1070673Y0256746D01*
X1072641Y0259391D01*
X1073428Y0262566D01*
X1072641Y0265742D01*
X1070673Y0268387D01*
X1067130Y0269975D01*
X1063587Y0269446D01*
X1060044Y0267329D01*
G01X1088384Y0242986D02*
X1090746Y0240341D01*
X1093502Y0238754D01*
X1097045Y0238225D01*
X1100588Y0239283D01*
X1103343Y0241399D01*
X1105312Y0245104D01*
X1105706Y0249337D01*
X1104918Y0253570D01*
X1102950Y0256217D01*
X1100194Y0258333D01*
X1097439Y0258862D01*
X1094683Y0258333D01*
X1091140Y0256217D01*
X1092321Y0269975D01*
X1102950D01*
G01X1190589Y0219825D02*
Y0251575D01*
X1176023Y0228821D01*
X1195707D01*
G01X1216567Y0219825D02*
X1217355Y0226704D01*
X1218536Y0232524D01*
X1220110Y0237817D01*
X1222079Y0243637D01*
X1225228Y0251575D01*
X1209482D01*
G01X1248845Y0218767D02*
X1248057Y0219296D01*
Y0220354D01*
X1248845Y0220883D01*
X1249633Y0220354D01*
Y0219296D01*
X1248845Y0218767D01*
G01X1280335Y0219825D02*
X1283090Y0220354D01*
X1286240Y0221941D01*
X1288208Y0224586D01*
X1288996Y0228292D01*
X1288208Y0231995D01*
X1285846Y0235170D01*
X1282303Y0236759D01*
X1278367D01*
X1276005Y0237817D01*
X1274036Y0240462D01*
X1273249Y0244166D01*
X1274430Y0247871D01*
X1277185Y0250517D01*
X1280335Y0251575D01*
X1283484Y0250517D01*
X1286240Y0247871D01*
X1287421Y0244166D01*
X1286633Y0240462D01*
X1284665Y0237817D01*
X1282303Y0236759D01*
X1278367D01*
X1274824Y0235170D01*
X1272462Y0231995D01*
X1271674Y0228292D01*
X1272462Y0224586D01*
X1274430Y0221941D01*
X1277580Y0220354D01*
X1280335Y0219825D01*
G01X-0063800Y-0621900D02*
Y-0112400D01*
X1195790D01*
Y-0621900D01*
X-0063800D01*
G01Y-0558400D02*
X1195790D01*
G01X-0063800Y-0494900D02*
X1195790D01*
G01X-0063800Y-0431400D02*
X1195790D01*
G01X-0063800Y-0367900D02*
X1195790D01*
G01X-0063800Y-0304400D02*
X1195790D01*
G01X-0063800Y-0240900D02*
X1195790D01*
G01X-0063800Y-0177400D02*
X1195790D01*
G01X0075600Y0499900D02*
Y0020000D01*
X0938500D01*
Y0499900D01*
X0075600D01*
G01X0076000Y0524000D02*
Y0731300D01*
G01X0426143Y0706300D02*
X0076000D01*
G01X0164500Y-0240900D02*
Y-0621900D01*
G01X0150000Y0459000D02*
Y0607100D01*
G01X0180089Y0522000D02*
X0198000D01*
G01X0180089Y0555000D02*
X0198000D01*
G01X0436573Y0582100D02*
X0150000D01*
G01X0234739Y0220100D02*
Y0251900D01*
X0230019Y0245540D01*
G01Y0220100D02*
X0239458D01*
G01X0270959D02*
Y0251900D01*
X0256405Y0229110D01*
X0276073D01*
G01X0297739Y0219040D02*
X0296952Y0219570D01*
Y0220630D01*
X0297739Y0221160D01*
X0298526Y0220630D01*
Y0219570D01*
X0297739Y0219040D01*
G01X0320586Y0224869D02*
X0322945Y0222220D01*
X0325699Y0220630D01*
X0329239Y0220100D01*
X0332779Y0221160D01*
X0335532Y0223279D01*
X0337499Y0226989D01*
X0337892Y0231230D01*
X0337106Y0235470D01*
X0335139Y0238120D01*
X0332385Y0240240D01*
X0329633Y0240769D01*
X0326879Y0240240D01*
X0323339Y0238120D01*
X0324519Y0251900D01*
X0335139D01*
G01X0217000Y0187000D02*
Y0261000D01*
G01X0199089Y0236000D02*
X0217000D01*
G01X0215739Y0506100D02*
Y0537900D01*
X0211019Y0531540D01*
G01Y0506100D02*
X0220458D01*
G01X0251959D02*
Y0537900D01*
X0237405Y0515110D01*
X0257073D01*
G01X0278739Y0505040D02*
X0277952Y0505570D01*
Y0506630D01*
X0278739Y0507160D01*
X0279526Y0506630D01*
Y0505570D01*
X0278739Y0505040D01*
G01X0301586Y0510869D02*
X0303945Y0508220D01*
X0306699Y0506630D01*
X0310239Y0506100D01*
X0313779Y0507160D01*
X0316532Y0509279D01*
X0318499Y0512989D01*
X0318892Y0517230D01*
X0318106Y0521470D01*
X0316139Y0524120D01*
X0313385Y0526240D01*
X0310633Y0526769D01*
X0307879Y0526240D01*
X0304339Y0524120D01*
X0305519Y0537900D01*
X0316139D01*
G01X0198000Y0473000D02*
Y0547000D01*
G01Y0506000D02*
Y0580000D01*
G01X0215739Y0539100D02*
Y0570900D01*
X0211019Y0564540D01*
G01Y0539100D02*
X0220458D01*
G01X0251959D02*
Y0570900D01*
X0237405Y0548110D01*
X0257073D01*
G01X0278739Y0538040D02*
X0277952Y0538570D01*
Y0539630D01*
X0278739Y0540160D01*
X0279526Y0539630D01*
Y0538570D01*
X0278739Y0538040D01*
G01X0301586Y0543869D02*
X0303945Y0541220D01*
X0306699Y0539630D01*
X0310239Y0539100D01*
X0313779Y0540160D01*
X0316532Y0542279D01*
X0318499Y0545989D01*
X0318892Y0550230D01*
X0318106Y0554470D01*
X0316139Y0557120D01*
X0313385Y0559240D01*
X0310633Y0559769D01*
X0307879Y0559240D01*
X0304339Y0557120D01*
X0305519Y0570900D01*
X0316139D01*
G01X0362000Y0187000D02*
Y0261000D01*
G01X0364889Y0236000D02*
X0362000D01*
G01X0343000Y0473000D02*
Y0547000D01*
G01Y0506000D02*
Y0580000D01*
G01X0345889Y0522000D02*
X0343000D01*
G01X0345889Y0555000D02*
X0343000D01*
G01X0541307Y0582100D02*
X0850000D01*
G01X0593857Y0706300D02*
X0938000D01*
G01X0676210Y-0240900D02*
Y-0621900D01*
G01X0685000Y0174000D02*
X0759000D01*
G01X0686750Y0223089D02*
Y0254889D01*
X0682030Y0248529D01*
G01Y0223089D02*
X0691469D01*
G01X0722970D02*
Y0254889D01*
X0708416Y0232099D01*
X0728084D01*
G01X0749750Y0222029D02*
X0748963Y0222559D01*
Y0223619D01*
X0749750Y0224149D01*
X0750537Y0223619D01*
Y0222559D01*
X0749750Y0222029D01*
G01X0772597Y0227858D02*
X0774956Y0225209D01*
X0777710Y0223619D01*
X0781250Y0223089D01*
X0784790Y0224149D01*
X0787543Y0226268D01*
X0789510Y0229978D01*
X0789903Y0234219D01*
X0789117Y0238459D01*
X0787150Y0241109D01*
X0784396Y0243229D01*
X0781644Y0243758D01*
X0778890Y0243229D01*
X0775350Y0241109D01*
X0776530Y0254889D01*
X0787150D01*
G01X0685000Y0319000D02*
X0759000D01*
G01X0734000Y0199239D02*
Y0174000D01*
G01Y0278739D02*
Y0319000D01*
G01X0875000Y0084000D02*
X1106300D01*
G01X0875000Y0434000D02*
X1106300D01*
G01X0850000Y0459000D02*
Y0607100D01*
G01X0963000Y0021000D02*
X1258100D01*
G01X0963000Y0499000D02*
X1258100D01*
G01X0938000Y0524000D02*
Y0731300D01*
G01X0998980Y-0240900D02*
Y-0621900D01*
G01X1081300Y0213413D02*
Y0084000D01*
G01Y0294787D02*
Y0434000D01*
G01X1233100Y0195013D02*
Y0021000D01*
G01Y0276387D02*
Y0499000D01*
M02*
