G04 ================== begin FILE IDENTIFICATION RECORD ==================*
G04 Layout Name:  E:/FACOMSA/allegro/TFG_RECEIVER_0V5.brd*
G04 Film Name:    PCB_ReceiverSoldermaskTOP*
G04 File Format:  Gerber RS274X*
G04 File Origin:  Cadence Allegro 17.0-S002*
G04 Origin Date:  Mon Mar 27 20:28:53 2023*
G04 *
G04 Layer:  VIA CLASS/SOLDERMASK_TOP*
G04 Layer:  BOARD GEOMETRY/SOLDERMASK_TOP*
G04 Layer:  PACKAGE GEOMETRY/SOLDERMASK_TOP*
G04 Layer:  PIN/SOLDERMASK_TOP*
G04 *
G04 Offset:    (0.0000 0.0000)*
G04 Mirror:    No*
G04 Mode:      Positive*
G04 Rotation:  0*
G04 FullContactRelief:  No*
G04 UndefLineWidth:     0.0000*
G04 ================== end FILE IDENTIFICATION RECORD ====================*
%FSAX34Y34*MOMM*%
%IR0*IPPOS*OFA0.00000B0.00000*MIA0B0*SFA1.00000B1.00000*%
%ADD27R,.6X1.55*%
%ADD35R,.8X1.55*%
%AMMACRO31*
4,1,21,.55,-.24,
.55,.24,
-.31,.24,
-.351676,.236354,
-.392085,.225526,
-.43,.207846,
-.464269,.183851,
-.493851,.154269,
-.517846,.12,
-.535526,.082085,
-.546354,.041676,
-.55,0.0,
-.546354,-.041676,
-.535526,-.082085,
-.517846,-.12,
-.493851,-.154269,
-.464269,-.183851,
-.43,-.207846,
-.392085,-.225526,
-.351676,-.236354,
-.31,-.24,
.55,-.24,
0.0*
%
%ADD31MACRO31*%
%AMMACRO28*
4,1,21,-.24,-.55,
.24,-.55,
.24,.31,
.236354,.351676,
.225526,.392085,
.207846,.43,
.183851,.464269,
.154269,.493851,
.12,.517846,
.082085,.535526,
.041676,.546354,
0.0,.55,
-.041676,.546354,
-.082085,.535526,
-.12,.517846,
-.154269,.493851,
-.183851,.464269,
-.207846,.43,
-.225526,.392085,
-.236354,.351676,
-.24,.31,
-.24,-.55,
0.0*
%
%ADD28MACRO28*%
%ADD26R,2.1X2.1*%
%ADD20R,1.1X2.2*%
%ADD19R,2.2X1.1*%
%ADD17O,1.3X2.4*%
%ADD18R,2.1X1.4*%
%ADD15R,1.4X2.1*%
%ADD25R,1.8X1.1*%
%ADD22R,1.1X1.8*%
%ADD11C,2.*%
%ADD24R,1.8X1.6*%
%ADD12C,1.2*%
%ADD23R,1.65X1.5*%
%ADD21R,1.53X1.53*%
%ADD14C,1.4*%
%ADD13R,2.X2.*%
%ADD16R,1.7X1.7*%
%ADD10C,3.75*%
%AMMACRO30*
4,1,21,-.55,.24,
-.55,-.24,
.31,-.24,
.351676,-.236354,
.392085,-.225526,
.43,-.207846,
.464269,-.183851,
.493851,-.154269,
.517846,-.12,
.535526,-.082085,
.546354,-.041676,
.55,0.0,
.546354,.041676,
.535526,.082085,
.517846,.12,
.493851,.154269,
.464269,.183851,
.43,.207846,
.392085,.225526,
.351676,.236354,
.31,.24,
-.55,.24,
0.0*
%
%ADD30MACRO30*%
%AMMACRO29*
4,1,21,.24,.55,
-.24,.55,
-.24,-.31,
-.236354,-.351676,
-.225526,-.392085,
-.207846,-.43,
-.183851,-.464269,
-.154269,-.493851,
-.12,-.517846,
-.082085,-.535526,
-.041676,-.546354,
0.0,-.55,
.041676,-.546354,
.082085,-.535526,
.12,-.517846,
.154269,-.493851,
.183851,-.464269,
.207846,-.43,
.225526,-.392085,
.236354,-.351676,
.24,-.31,
.24,.55,
0.0*
%
%ADD29MACRO29*%
%ADD32R,2.9X2.9*%
%ADD34R,1.6256X1.3208*%
%ADD33R,1.6256X2.3368*%
%LPD*%
G75*
G54D10*
X0150000Y0084000D03*
Y0434000D03*
X0850000Y0084000D03*
Y0434000D03*
G54D11*
X0151000Y0195200D03*
Y0220600D03*
Y0246000D03*
Y0271400D03*
G54D20*
X0433048Y0320181D03*
X0445748D03*
X0458448D03*
X0471148D03*
X0483848D03*
X0496548D03*
X0509248D03*
X0521948D03*
X0534648D03*
X0547348D03*
G54D30*
X0660500Y0407500D03*
Y0412500D03*
Y0417500D03*
Y0422500D03*
Y0427500D03*
Y0432500D03*
G54D21*
X0481848Y0238431D03*
X0500198D03*
X0481848Y0220081D03*
X0500198D03*
X0481848Y0201731D03*
X0500198D03*
X0518548Y0238431D03*
Y0220081D03*
Y0201731D03*
G54D12*
X0189000Y0212000D03*
X0186000Y0254000D03*
X0295000Y0310000D03*
Y0289000D03*
X0369000Y0127000D03*
X0330000Y0248000D03*
X0375000Y0234000D03*
X0627000Y0225000D03*
X0616000Y0339000D03*
X0615000Y0369000D03*
X0589000Y0389000D03*
X0693000Y0120000D03*
X0728000Y0115000D03*
X0718000Y0167000D03*
X0767000Y0269000D03*
X0792000Y0074000D03*
G54D13*
X0151000Y0296800D03*
G54D22*
X0566500Y0423000D03*
X0587500D03*
X0731500Y0254000D03*
X0752500D03*
X0731500Y0283000D03*
X0752500D03*
G54D31*
X0701500Y0432500D03*
Y0427500D03*
Y0422500D03*
Y0417500D03*
Y0412500D03*
Y0407500D03*
G54D32*
X0681000Y0420000D03*
G54D14*
X0217000Y0162000D03*
X0198000Y0448000D03*
Y0481000D03*
X0362000Y0162000D03*
X0343000Y0448000D03*
Y0481000D03*
X0660000Y0174000D03*
Y0319000D03*
G54D23*
X0642750Y0048000D03*
X0711250D03*
G54D33*
X0766160Y0076348D03*
G54D24*
X0645000Y0072500D03*
X0709000D03*
G54D15*
X0233500Y0259000D03*
Y0297000D03*
X0264500Y0259000D03*
Y0297000D03*
X0561500Y0453000D03*
X0592500D03*
X0754500Y0313000D03*
X0723500D03*
G54D34*
X0745840Y0076348D03*
Y0095652D03*
X0766160D03*
G54D16*
X0230000Y0363500D03*
Y0328500D03*
X0518500Y0421000D03*
X0483500D03*
X0518500Y0451000D03*
X0483500D03*
G54D25*
X0622000Y0241500D03*
Y0262500D03*
X0690000Y0179500D03*
Y0200500D03*
X0723000Y0347500D03*
Y0368500D03*
G54D17*
X0313300Y0345120D03*
X0312300Y0407120D03*
X0326000Y0345120D03*
X0338700D03*
X0325000Y0407120D03*
X0337700D03*
G54D26*
X0689000Y0048000D03*
X0665000D03*
G54D35*
X0747021Y0196620D03*
X0728021D03*
Y0224620D03*
X0737521D03*
X0747021D03*
G54D18*
X0326000Y0274500D03*
Y0305500D03*
X0421000Y0448500D03*
X0451000Y0421500D03*
Y0390500D03*
X0421000Y0479500D03*
X0622928Y0175908D03*
Y0206908D03*
X0761400Y0337400D03*
Y0368400D03*
X0735000Y0446500D03*
Y0477500D03*
G54D27*
X0690000Y0074750D03*
X0683500D03*
X0677000D03*
X0670500D03*
X0664000D03*
G54D19*
X0405198Y0145081D03*
Y0157781D03*
Y0170481D03*
Y0183181D03*
Y0195881D03*
Y0208581D03*
Y0221281D03*
Y0233981D03*
Y0246681D03*
Y0259381D03*
Y0272081D03*
Y0284781D03*
Y0297481D03*
Y0310181D03*
X0575198Y0183181D03*
Y0170481D03*
Y0157781D03*
Y0145081D03*
Y0246681D03*
Y0233981D03*
Y0221281D03*
Y0208581D03*
Y0195881D03*
Y0310181D03*
Y0297481D03*
Y0284781D03*
Y0272081D03*
Y0259381D03*
G54D28*
X0693500Y0399500D03*
X0688500D03*
X0683500D03*
X0678500D03*
X0673500D03*
X0668500D03*
G54D29*
Y0440500D03*
X0673500D03*
X0678500D03*
X0683500D03*
X0688500D03*
X0693500D03*
M02*
