M48
METRIC,LZ
T01C1.
T02C.83
T03C.7
T04C.4
T05C3.25
;LEADER: 12 
;HEADER: PCB_Sender 
;CODE  : ASCII 
;FILE  : TFG_RECEIVER_0V5-1-2.drl for  ... layers TOP and BOTTOM
;DESIGN: TFG_RECEIVER_0V5.brd
;T01 Holesize 1. = 1.000000 Tolerance = +0.000000/-0.000000 PLATED MM Quantity = 5
;T02 Holesize 2. = 0.830000 Tolerance = +0.000000/-0.000000 PLATED MM Quantity = 6
;T03 Holesize 3. = 0.700000 Tolerance = +0.000000/-0.000000 PLATED MM Quantity = 8
;T04 Holesize 4. = 0.400000 Tolerance = +0.000000/-0.000000 PLATED MM Quantity = 330
%
G90
T01
X0151Y02968
R04Y-00254
T02
X03387Y034512
R02X-00127
X03377Y040712
R02X-00127
T03
X0362Y0162
X0217Y0162
X0198Y0448
X0343Y0448
X0343Y0481
X0198Y0481
X066Y0319
X066Y0174
T04
X07614Y03684
X0759Y0471
X064Y046
X0716Y0444
X0596Y0437
X0657Y0461
X02645Y0297
X0406Y0284
X02645Y02585
X0407Y0272
X0379Y0209
X076616Y0095652
X0757Y0191
X07614Y03374
X0764Y0435
X074584Y0076348
X0789Y0177
X0482Y0239
X0518Y0239
X05Y0203
X0482Y0221
X05Y0239
X0518Y0221
X0681Y042
X0632Y0364
X0646Y0364
X0691Y0364
X0631Y0392
R03Y0018
X0631Y0378
X0518Y0203
X0482Y0203
X05Y0167
R03X-0018
X0464Y0185
X0446Y0185
X0446Y0203
X0554Y0167
R02X-0018
X0554Y0185
X0554Y0203
X05Y0221
X0446Y0221
X0446Y0239
X0446Y0257
X05Y0275
R03X-0018
X0554Y0221
R03Y0018
X0536Y0275
X0518Y0275
X0645Y0377
X0645Y0391
X0645Y041
X0659Y0376
X0659Y039
X069Y0376
X01946Y0031
X02697Y00302
R04X-0015
X03447Y00302
R04X-0015
X04197Y00302
R04X-0015
X04947Y00302
R04X-0015
X05847Y00302
R05X-0015
X05997Y00302
X02781Y00625
R04X-0015
X03531Y00625
R04X-0015
X04281Y00625
R04X-0015
X05031Y00625
R04X-0015
X05781Y00625
R04X-0015
X06081Y00625
X05931Y00625
X00843Y00274
R31Y0015
X06227Y00784
R02X-0015
X06227Y00934
R02X-0015
X06227Y01084
R02X-0015
X06227Y01234
R02X-0015
X06227Y01384
R02X-0015
X06526Y01076
X06376Y01076
X06526Y01226
X06376Y01226
X06526Y01376
X06376Y01376
X07299Y00362
X07299Y00512
X07899Y00362
R03X-0015
X07899Y00512
R03X-0015
X06298Y02776
R02X-0015
X06298Y02926
R02X-0015
X06298Y03076
R02X-0015
X06298Y03226
R02X-0015
X07066Y02234
R02X-0015
X07066Y02384
R02X-0015
X07066Y02534
R02X-0015
X07066Y02684
R02X-0015
X07066Y02834
R02X-0015
X07066Y02984
R02X-0015
X07066Y03134
R02X-0015
X07066Y03284
R02X-0015
X02738Y033
X02588Y033
X02738Y0345
X02588Y0345
X02888Y033
X02888Y0345
X02738Y036
X02588Y036
X02738Y0375
X02588Y0375
X02738Y039
X02588Y039
X02738Y0405
X02588Y0405
X02738Y042
X02588Y042
X02888Y036
R04Y0015
X02738Y0435
X02588Y0435
X02888Y0435
X01186Y0157
X01036Y0157
X01186Y0172
X01036Y0172
X01786Y0157
R03X-0015
X01786Y0172
R03X-0015
X01913Y0178
X01913Y0193
X02663Y0178
R04X-0015
X02663Y0193
R04X-0015
X01249Y03529
X01099Y03529
X01849Y03529
R03X-0015
X01249Y03679
X01099Y03679
X01849Y03679
R03X-0015
X03882Y03647
R02X-0015
X03882Y03797
R02X-0015
X03882Y03947
R02X-0015
X03913Y04107
X03763Y04107
X03913Y04257
X03763Y04257
X03913Y04407
X03763Y04407
X03913Y04557
X03763Y04557
X03913Y04707
X03763Y04707
X03913Y04857
X03763Y04857
X0728Y04934
X0743Y04934
X07732Y04934
X07582Y04934
X07679Y04835
X07529Y04835
X07973Y04837
X07823Y04837
X08041Y04932
X07891Y04932
X07981Y04724
X07831Y04724
X09091Y04931
X08941Y04931
X09175Y04834
X09025Y04834
X09256Y04746
X09106Y04746
X093Y04625
X0915Y04625
X09305Y04338
X09155Y04338
X09315Y04483
X09165Y04483
X09305Y04144
X09155Y04144
X09222Y03936
X09072Y03936
X0679Y0478
M30
