G04 ================== begin FILE IDENTIFICATION RECORD ==================*
G04 Layout Name:  E:/FACOMSA/allegro/TFG_ECU_Telemetry_Sender_1v0.brd*
G04 Film Name:    PCB_Sender_13XXVxSilkscreenBOTTOM*
G04 File Format:  Gerber RS274X*
G04 File Origin:  Cadence Allegro 17.0-S002*
G04 Origin Date:  Mon Mar 27 20:21:05 2023*
G04 *
G04 Layer:  PACKAGE GEOMETRY/SILKSCREEN_BOTTOM*
G04 Layer:  REF DES/SILKSCREEN_BOTTOM*
G04 Layer:  BOARD GEOMETRY/SILKSCREEN_BOTTOM*
G04 *
G04 Offset:    (0.0000 0.0000)*
G04 Mirror:    No*
G04 Mode:      Positive*
G04 Rotation:  0*
G04 FullContactRelief:  No*
G04 UndefLineWidth:     0.2000*
G04 ================== end FILE IDENTIFICATION RECORD ====================*
%FSAX34Y34*MOMM*%
%IR0*IPPOS*OFA0.00000B0.00000*MIA0B0*SFA1.00000B1.00000*%
%ADD10C,.2*%
G75*
%LPD*%
G75*
G54D10*
G01X-0611700Y-0757000D02*
G03I-0020300J0D01*
G01Y0699000D02*
G03I-0020300J0D01*
G01X-0129000Y0188400D02*
Y-0106000D01*
X-0157100D01*
Y0190400D01*
X-0129000D01*
Y0188400D01*
G01X-0150517Y0172200D02*
X-0137518Y0172245D01*
X-0140110Y0170236D01*
G01X-0150510Y0170200D02*
X-0150524Y0174200D01*
G01X-0129430Y0162000D02*
X-0157370D01*
G01X-0000600Y-0053000D02*
Y0130200D01*
X0045600D01*
X0045400Y-0053100D01*
X-0000600Y-0053000D01*
G01Y0099100D02*
X0018600Y0099200D01*
X0018500Y0130100D01*
G01X0194000Y0195400D02*
Y-0099000D01*
X0165900D01*
Y0197400D01*
X0194000D01*
Y0195400D01*
G01X0172483Y0179200D02*
X0185482Y0179245D01*
X0182890Y0177236D01*
G01X0172490Y0177200D02*
X0172476Y0181200D01*
G01X0193570Y0169000D02*
X0165630D01*
G01X0167300Y0580200D02*
X0192300D01*
Y0709800D01*
X0167300D01*
Y0580200D01*
G01X0192300Y0681400D02*
X0167300D01*
G01X0172283Y0716400D02*
X0185282Y0716445D01*
X0182690Y0714436D01*
G01X0172290Y0714400D02*
X0172276Y0718400D01*
G01X0492300Y-0757000D02*
G03I-0020300J0D01*
G01Y0699000D02*
G03I-0020300J0D01*
M02*
