G04 ================== begin FILE IDENTIFICATION RECORD ==================*
G04 Layout Name:  E:/FACOMSA/allegro/TFG_ECU_Telemetry_Sender_1v0.brd*
G04 Film Name:    PCB_Sender_13XXVxBoardOutline*
G04 File Format:  Gerber RS274X*
G04 File Origin:  Cadence Allegro 17.0-S002*
G04 Origin Date:  Mon Mar 27 20:21:05 2023*
G04 *
G04 Layer:  MANUFACTURING/NCLEGEND-1-2*
G04 Layer:  MANUFACTURING/NCLEGEND-1-4*
G04 Layer:  MANUFACTURING/NCLEGEND-1-6*
G04 Layer:  MANUFACTURING/NCLEGEND-1-8*
G04 Layer:  BOARD GEOMETRY/DIMENSION*
G04 Layer:  BOARD GEOMETRY/OUTLINE*
G04 Layer:  MANUFACTURING/XSECTION_CHART*
G04 Layer:  MANUFACTURING/NCDRILL_FIGURE*
G04 Layer:  MANUFACTURING/NCDRILL_LEGEND*
G04 *
G04 Offset:    (0.0000 0.0000)*
G04 Mirror:    No*
G04 Mode:      Positive*
G04 Rotation:  0*
G04 FullContactRelief:  No*
G04 UndefLineWidth:     0.2000*
G04 ================== end FILE IDENTIFICATION RECORD ====================*
%FSAX34Y34*MOMM*%
%IR0*IPPOS*OFA0.00000B0.00000*MIA0B0*SFA1.00000B1.00000*%
%AMMACRO10*
1,1,.2,.2,0.0*
20,1,.2,.2,0.0,-.2,0.0,0.0*
1,1,.2,-.2,0.0*
1,1,.2,0.0,.2*
20,1,.2,0.0,.2,0.0,-.2,0.0*
1,1,.2,0.0,-.2*
%
%ADD10MACRO10*%
%AMMACRO12*
1,1,.2,.103553,-.25*
20,1,.2,.103553,-.25,-.103553,-.25,0.0*
1,1,.2,-.103553,-.25*
20,1,.2,-.103553,-.25,-.25,-.103553,0.0*
1,1,.2,-.25,-.103553*
20,1,.2,-.25,-.103553,-.25,.103553,0.0*
1,1,.2,-.25,.103553*
20,1,.2,-.25,.103553,-.103553,.25,0.0*
1,1,.2,-.103553,.25*
20,1,.2,-.103553,.25,.103553,.25,0.0*
1,1,.2,.103553,.25*
20,1,.2,.103553,.25,.25,.103553,0.0*
1,1,.2,.25,.103553*
20,1,.2,.25,.103553,.25,-.103553,0.0*
1,1,.2,.25,-.103553*
20,1,.2,.25,-.103553,.103553,-.25,0.0*
1,1,.2,.103553,-.25*
%
%ADD12MACRO12*%
%AMMACRO17*
1,1,.2,.25,.25*
20,1,.2,.25,.25,.25,-.25,0.0*
1,1,.2,.25,-.25*
20,1,.2,.25,-.25,-.25,-.25,0.0*
1,1,.2,-.25,-.25*
20,1,.2,-.25,-.25,-.25,.25,0.0*
1,1,.2,-.25,.25*
20,1,.2,-.25,.25,.25,.25,0.0*
1,1,.2,.25,.25*
%
%ADD17MACRO17*%
%AMMACRO16*
1,1,.2,.35,.35*
20,1,.2,.35,.35,.35,-.35,0.0*
1,1,.2,.35,-.35*
20,1,.2,.35,-.35,-.35,-.35,0.0*
1,1,.2,-.35,-.35*
20,1,.2,-.35,-.35,-.35,.35,0.0*
1,1,.2,-.35,.35*
20,1,.2,-.35,.35,.35,.35,0.0*
1,1,.2,.35,.35*
%
%ADD16MACRO16*%
%AMMACRO15*
1,1,.2,0.0,.5*
20,1,.2,0.0,.5,.5,-.5,0.0*
1,1,.2,.5,-.5*
20,1,.2,.5,-.5,-.5,-.5,0.0*
1,1,.2,-.5,-.5*
20,1,.2,-.5,-.5,0.0,.5,0.0*
1,1,.2,0.0,.5*
%
%ADD15MACRO15*%
%AMMACRO11*
1,1,.2,.25,0.0*
20,1,.2,.25,0.0,.125,.216506,0.0*
1,1,.2,.125,.216506*
20,1,.2,.125,.216506,-.125,.216506,0.0*
1,1,.2,-.125,.216506*
20,1,.2,-.125,.216506,-.25,0.0,0.0*
1,1,.2,-.25,0.0*
20,1,.2,-.25,0.0,-.125,-.216506,0.0*
1,1,.2,-.125,-.216506*
20,1,.2,-.125,-.216506,.125,-.216506,0.0*
1,1,.2,.125,-.216506*
20,1,.2,.125,-.216506,.25,0.0,0.0*
1,1,.2,.25,0.0*
%
%ADD11MACRO11*%
%AMMACRO14*
1,1,.2,.5,0.0*
20,1,.2,.5,0.0,.492404,-.086824,0.0*
1,1,.2,.492404,-.086824*
20,1,.2,.492404,-.086824,.469846,-.17101,0.0*
1,1,.2,.469846,-.17101*
20,1,.2,.469846,-.17101,.433013,-.25,0.0*
1,1,.2,.433013,-.25*
20,1,.2,.433013,-.25,.383022,-.321394,0.0*
1,1,.2,.383022,-.321394*
20,1,.2,.383022,-.321394,.321394,-.383022,0.0*
1,1,.2,.321394,-.383022*
20,1,.2,.321394,-.383022,.25,-.433013,0.0*
1,1,.2,.25,-.433013*
20,1,.2,.25,-.433013,.17101,-.469846,0.0*
1,1,.2,.17101,-.469846*
20,1,.2,.17101,-.469846,.086824,-.492404,0.0*
1,1,.2,.086824,-.492404*
20,1,.2,.086824,-.492404,0.0,-.5,0.0*
1,1,.2,0.0,-.5*
20,1,.2,0.0,-.5,-.086824,-.492404,0.0*
1,1,.2,-.086824,-.492404*
20,1,.2,-.086824,-.492404,-.17101,-.469846,0.0*
1,1,.2,-.17101,-.469846*
20,1,.2,-.17101,-.469846,-.25,-.433013,0.0*
1,1,.2,-.25,-.433013*
20,1,.2,-.25,-.433013,-.321394,-.383022,0.0*
1,1,.2,-.321394,-.383022*
20,1,.2,-.321394,-.383022,-.383022,-.321394,0.0*
1,1,.2,-.383022,-.321394*
20,1,.2,-.383022,-.321394,-.433013,-.25,0.0*
1,1,.2,-.433013,-.25*
20,1,.2,-.433013,-.25,-.469846,-.17101,0.0*
1,1,.2,-.469846,-.17101*
20,1,.2,-.469846,-.17101,-.492404,-.086824,0.0*
1,1,.2,-.492404,-.086824*
20,1,.2,-.492404,-.086824,-.5,0.0,0.0*
1,1,.2,-.5,0.0*
20,1,.2,-.5,0.0,-.492404,.086824,0.0*
1,1,.2,-.492404,.086824*
20,1,.2,-.492404,.086824,-.469846,.17101,0.0*
1,1,.2,-.469846,.17101*
20,1,.2,-.469846,.17101,-.433013,.25,0.0*
1,1,.2,-.433013,.25*
20,1,.2,-.433013,.25,-.383022,.321394,0.0*
1,1,.2,-.383022,.321394*
20,1,.2,-.383022,.321394,-.321394,.383022,0.0*
1,1,.2,-.321394,.383022*
20,1,.2,-.321394,.383022,-.25,.433013,0.0*
1,1,.2,-.25,.433013*
20,1,.2,-.25,.433013,-.17101,.469846,0.0*
1,1,.2,-.17101,.469846*
20,1,.2,-.17101,.469846,-.086824,.492404,0.0*
1,1,.2,-.086824,.492404*
20,1,.2,-.086824,.492404,0.0,.5,0.0*
1,1,.2,0.0,.5*
20,1,.2,0.0,.5,.086824,.492404,0.0*
1,1,.2,.086824,.492404*
20,1,.2,.086824,.492404,.17101,.469846,0.0*
1,1,.2,.17101,.469846*
20,1,.2,.17101,.469846,.25,.433013,0.0*
1,1,.2,.25,.433013*
20,1,.2,.25,.433013,.321394,.383022,0.0*
1,1,.2,.321394,.383022*
20,1,.2,.321394,.383022,.383022,.321394,0.0*
1,1,.2,.383022,.321394*
20,1,.2,.383022,.321394,.433013,.25,0.0*
1,1,.2,.433013,.25*
20,1,.2,.433013,.25,.469846,.17101,0.0*
1,1,.2,.469846,.17101*
20,1,.2,.469846,.17101,.492404,.086824,0.0*
1,1,.2,.492404,.086824*
20,1,.2,.492404,.086824,.5,0.0,0.0*
1,1,.2,.5,0.0*
%
%ADD14MACRO14*%
%AMMACRO13*
1,1,.2,.5,0.0*
20,1,.2,.5,0.0,0.0,-.5,0.0*
1,1,.2,0.0,-.5*
20,1,.2,0.0,-.5,-.5,0.0,0.0*
1,1,.2,-.5,0.0*
20,1,.2,-.5,0.0,0.0,.5,0.0*
1,1,.2,0.0,.5*
20,1,.2,0.0,.5,.5,0.0,0.0*
1,1,.2,.5,0.0*
%
%ADD13MACRO13*%
%ADD18C,.2*%
G75*
%LPD*%
G75*
G36*
G01X-0115000Y-0766000D02*
X-0205000D01*
Y-0566000D01*
X-0115000D01*
Y-0766000D01*
G37*
G54D10*
X-0711000Y0011000D03*
Y-0009000D03*
Y0071000D03*
Y0051000D03*
Y0031000D03*
X-0723000Y0356000D03*
Y0336000D03*
Y0316000D03*
Y0416000D03*
Y0396000D03*
Y0376000D03*
Y0476000D03*
Y0456000D03*
Y0436000D03*
Y0556000D03*
Y0536000D03*
Y0516000D03*
Y0496000D03*
Y0616000D03*
Y0596000D03*
Y0576000D03*
Y0676000D03*
Y0656000D03*
Y0636000D03*
Y0696000D03*
X-0700000Y-0790000D03*
X-0680000Y-0810000D03*
X-0660000Y-0830000D03*
X-0700000Y-0730000D03*
Y-0750000D03*
Y-0770000D03*
Y-0650000D03*
X-0680000D03*
X-0660000D03*
X-0700000Y-0670000D03*
X-0680000D03*
X-0660000D03*
X-0700000Y-0690000D03*
X-0680000D03*
X-0660000D03*
X-0700000Y-0710000D03*
X-0680000D03*
X-0700000Y-0590000D03*
X-0680000D03*
X-0660000D03*
X-0700000Y-0610000D03*
X-0680000D03*
X-0660000D03*
X-0700000Y-0630000D03*
X-0680000D03*
X-0660000D03*
X-0700000Y-0530000D03*
X-0680000D03*
X-0660000D03*
X-0700000Y-0550000D03*
X-0680000D03*
X-0660000D03*
X-0700000Y-0570000D03*
X-0680000D03*
X-0660000D03*
X-0700000Y-0450000D03*
X-0680000D03*
X-0700000Y-0470000D03*
X-0680000D03*
X-0700000Y-0490000D03*
X-0680000D03*
X-0660000D03*
X-0700000Y-0510000D03*
X-0680000D03*
X-0660000D03*
X-0700000Y-0390000D03*
X-0680000D03*
X-0700000Y-0410000D03*
X-0680000D03*
X-0700000Y-0430000D03*
X-0680000D03*
X-0700000Y-0330000D03*
X-0680000D03*
X-0660000D03*
X-0700000Y-0350000D03*
X-0680000D03*
X-0700000Y-0370000D03*
X-0680000D03*
X-0700000Y-0316000D03*
Y-0250000D03*
X-0680000D03*
X-0660000D03*
X-0700000Y-0270000D03*
X-0680000D03*
X-0660000D03*
X-0700000Y-0290000D03*
X-0680000D03*
X-0660000D03*
X-0700000Y-0310000D03*
X-0680000D03*
X-0660000D03*
X-0691000Y0011000D03*
Y-0009000D03*
Y0071000D03*
Y0051000D03*
Y0031000D03*
X-0703000Y0356000D03*
Y0336000D03*
Y0316000D03*
X-0674000Y0414000D03*
X-0654000D03*
X-0674000Y0394000D03*
X-0654000D03*
X-0703000Y0416000D03*
Y0396000D03*
Y0376000D03*
Y0476000D03*
Y0456000D03*
Y0436000D03*
Y0556000D03*
Y0536000D03*
Y0516000D03*
Y0496000D03*
Y0616000D03*
Y0596000D03*
Y0576000D03*
Y0676000D03*
Y0656000D03*
Y0636000D03*
Y0696000D03*
X-0580000Y-0810000D03*
X-0620000Y-0830000D03*
X-0600000D03*
X-0580000D03*
X-0640000D03*
X-0620000Y-0650000D03*
X-0600000D03*
X-0580000D03*
X-0620000Y-0670000D03*
X-0600000D03*
X-0580000D03*
X-0620000Y-0690000D03*
X-0600000D03*
X-0580000D03*
Y-0710000D03*
X-0640000Y-0650000D03*
Y-0670000D03*
Y-0690000D03*
X-0620000Y-0590000D03*
X-0600000D03*
X-0580000D03*
X-0620000Y-0610000D03*
X-0600000D03*
X-0580000D03*
X-0620000Y-0630000D03*
X-0600000D03*
X-0580000D03*
X-0640000Y-0590000D03*
Y-0610000D03*
Y-0630000D03*
X-0620000Y-0530000D03*
X-0600000D03*
X-0580000D03*
X-0620000Y-0550000D03*
X-0600000D03*
X-0580000D03*
X-0640000Y-0530000D03*
Y-0550000D03*
X-0620000Y-0570000D03*
X-0600000D03*
X-0580000D03*
X-0640000D03*
X-0620000Y-0490000D03*
X-0600000D03*
X-0580000D03*
X-0620000Y-0510000D03*
X-0600000D03*
X-0580000D03*
X-0640000Y-0490000D03*
Y-0510000D03*
X-0620000Y-0330000D03*
X-0600000D03*
X-0580000D03*
X-0640000D03*
X-0620000Y-0250000D03*
X-0600000D03*
X-0580000D03*
X-0640000D03*
X-0620000Y-0270000D03*
X-0600000D03*
X-0580000D03*
X-0620000Y-0290000D03*
X-0600000D03*
X-0580000D03*
X-0620000Y-0310000D03*
X-0600000D03*
X-0580000D03*
X-0640000Y-0270000D03*
Y-0290000D03*
Y-0310000D03*
X-0612000Y0149000D03*
X-0592000D03*
X-0612000Y0129000D03*
X-0592000D03*
X-0612000Y0209000D03*
X-0592000D03*
X-0612000Y0189000D03*
X-0592000D03*
X-0612000Y0169000D03*
X-0592000D03*
X-0625400Y0262700D03*
X-0599500Y0230800D03*
X-0540000Y-0790000D03*
X-0520000D03*
X-0540000Y-0810000D03*
X-0520000D03*
X-0540000Y-0830000D03*
X-0520000D03*
X-0560000Y-0790000D03*
Y-0810000D03*
Y-0830000D03*
X-0540000Y-0730000D03*
X-0520000D03*
X-0540000Y-0750000D03*
X-0520000D03*
X-0540000Y-0770000D03*
X-0520000D03*
X-0560000Y-0730000D03*
Y-0750000D03*
Y-0770000D03*
X-0540000Y-0650000D03*
X-0520000D03*
X-0540000Y-0670000D03*
X-0520000D03*
X-0540000Y-0690000D03*
X-0520000D03*
X-0540000Y-0710000D03*
X-0520000D03*
X-0560000Y-0650000D03*
Y-0670000D03*
Y-0690000D03*
Y-0710000D03*
X-0540000Y-0590000D03*
X-0520000D03*
X-0540000Y-0610000D03*
X-0520000D03*
X-0540000Y-0630000D03*
X-0520000D03*
X-0560000Y-0590000D03*
Y-0610000D03*
Y-0630000D03*
X-0540000Y-0530000D03*
X-0520000D03*
X-0540000Y-0550000D03*
X-0520000D03*
X-0560000Y-0530000D03*
Y-0550000D03*
X-0540000Y-0570000D03*
X-0520000D03*
X-0560000D03*
X-0540000Y-0490000D03*
X-0520000D03*
X-0540000Y-0510000D03*
X-0520000D03*
X-0560000Y-0490000D03*
Y-0510000D03*
X-0540000Y-0330000D03*
X-0520000D03*
X-0560000D03*
X-0540000Y-0250000D03*
X-0520000D03*
X-0560000D03*
X-0540000Y-0270000D03*
X-0520000D03*
X-0540000Y-0290000D03*
X-0520000D03*
X-0540000Y-0310000D03*
X-0520000D03*
X-0560000Y-0270000D03*
Y-0290000D03*
Y-0310000D03*
X-0480000Y-0790000D03*
X-0460000D03*
X-0480000Y-0810000D03*
X-0460000D03*
X-0480000Y-0830000D03*
X-0460000D03*
X-0500000Y-0790000D03*
Y-0810000D03*
Y-0830000D03*
X-0480000Y-0730000D03*
X-0460000D03*
X-0480000Y-0750000D03*
X-0460000D03*
X-0480000Y-0770000D03*
X-0460000D03*
X-0500000Y-0730000D03*
Y-0750000D03*
Y-0770000D03*
X-0480000Y-0650000D03*
Y-0670000D03*
X-0460000D03*
X-0480000Y-0690000D03*
X-0460000D03*
X-0480000Y-0710000D03*
X-0460000D03*
X-0500000Y-0650000D03*
Y-0670000D03*
Y-0690000D03*
Y-0710000D03*
X-0480000Y-0590000D03*
X-0460000D03*
X-0480000Y-0610000D03*
X-0500000Y-0590000D03*
Y-0610000D03*
Y-0630000D03*
X-0480000Y-0530000D03*
X-0460000D03*
X-0480000Y-0550000D03*
X-0460000D03*
X-0500000Y-0530000D03*
Y-0550000D03*
X-0480000Y-0570000D03*
X-0460000D03*
X-0500000D03*
X-0480000Y-0490000D03*
X-0460000D03*
X-0480000Y-0510000D03*
X-0460000D03*
X-0500000Y-0490000D03*
Y-0510000D03*
X-0480000Y-0330000D03*
X-0500000D03*
X-0480000Y-0250000D03*
X-0460000D03*
X-0500000D03*
X-0480000Y-0270000D03*
X-0460000D03*
X-0480000Y-0290000D03*
X-0460000D03*
X-0480000Y-0310000D03*
X-0500000Y-0270000D03*
Y-0290000D03*
Y-0310000D03*
X-0473000Y-0120000D03*
X-0453000D03*
X-0473000Y-0140000D03*
X-0453000D03*
X-0473000Y-0160000D03*
X-0453000D03*
X-0473000Y-0080000D03*
X-0453000D03*
X-0473000Y-0100000D03*
X-0453000D03*
X-0479000Y0355000D03*
X-0459000D03*
X-0479000Y0335000D03*
X-0459000D03*
X-0479000Y0315000D03*
X-0459000D03*
X-0459500Y0528400D03*
X-0469000Y0614000D03*
X-0449000D03*
X-0489000D03*
X-0469000Y0674000D03*
X-0449000D03*
X-0489000D03*
X-0469000Y0654000D03*
X-0449000D03*
X-0469000Y0634000D03*
X-0449000D03*
X-0489000Y0654000D03*
Y0634000D03*
X-0449000Y0714000D03*
X-0469000Y0694000D03*
X-0449000D03*
X-0400000Y-0790000D03*
X-0380000D03*
X-0400000Y-0810000D03*
X-0380000D03*
X-0400000Y-0830000D03*
X-0380000D03*
X-0440000Y-0790000D03*
X-0420000D03*
X-0440000Y-0810000D03*
X-0420000D03*
X-0440000Y-0830000D03*
X-0420000D03*
X-0400000Y-0730000D03*
X-0380000D03*
X-0400000Y-0750000D03*
X-0380000D03*
X-0400000Y-0770000D03*
X-0380000D03*
X-0440000Y-0730000D03*
X-0420000D03*
X-0440000Y-0750000D03*
X-0420000D03*
X-0440000Y-0770000D03*
X-0420000D03*
X-0400000Y-0690000D03*
Y-0710000D03*
X-0440000Y-0690000D03*
X-0420000D03*
X-0440000Y-0710000D03*
X-0420000D03*
X-0440000Y-0590000D03*
X-0420000D03*
X-0400000Y-0530000D03*
Y-0550000D03*
X-0440000Y-0530000D03*
X-0420000D03*
X-0440000Y-0550000D03*
X-0420000D03*
X-0400000Y-0570000D03*
X-0440000D03*
X-0420000D03*
X-0400000Y-0450000D03*
X-0380000D03*
X-0400000Y-0470000D03*
X-0380000D03*
X-0400000Y-0490000D03*
X-0380000D03*
X-0400000Y-0510000D03*
X-0380000D03*
X-0440000Y-0490000D03*
X-0420000D03*
X-0440000Y-0510000D03*
X-0420000D03*
X-0400000Y-0390000D03*
X-0380000D03*
X-0400000Y-0410000D03*
X-0380000D03*
X-0400000Y-0430000D03*
X-0380000D03*
X-0400000Y-0330000D03*
Y-0350000D03*
Y-0370000D03*
X-0420000Y-0330000D03*
X-0400000Y-0250000D03*
X-0440000D03*
X-0420000D03*
X-0400000Y-0270000D03*
Y-0290000D03*
Y-0310000D03*
X-0440000Y-0270000D03*
X-0420000D03*
X-0440000Y-0290000D03*
X-0420000D03*
Y-0310000D03*
X-0399000Y0355000D03*
X-0379000D03*
X-0399000Y0335000D03*
X-0379000D03*
X-0399000Y0315000D03*
X-0379000D03*
X-0439000Y0355000D03*
X-0419000D03*
X-0439000Y0335000D03*
X-0419000D03*
X-0439000Y0315000D03*
X-0419000D03*
X-0404900Y0401100D03*
X-0388000Y0443000D03*
X-0421900Y0451000D03*
X-0385348Y0462348D03*
X-0429800Y0423400D03*
X-0393000Y0746000D03*
X-0413000D03*
X-0393000Y0766000D03*
X-0413000D03*
X-0320000Y-0790000D03*
Y-0810000D03*
Y-0830000D03*
X-0360000Y-0790000D03*
X-0340000D03*
X-0360000Y-0810000D03*
X-0340000D03*
X-0360000Y-0830000D03*
X-0340000D03*
X-0320000Y-0730000D03*
Y-0750000D03*
Y-0770000D03*
X-0360000Y-0730000D03*
X-0340000D03*
X-0360000Y-0750000D03*
Y-0770000D03*
X-0340000D03*
Y-0750000D03*
X-0320000Y-0450000D03*
Y-0470000D03*
X-0360000Y-0450000D03*
X-0340000D03*
X-0360000Y-0470000D03*
X-0340000D03*
X-0320000Y-0490000D03*
X-0360000D03*
X-0340000D03*
X-0320000Y-0410000D03*
Y-0430000D03*
X-0360000Y-0410000D03*
X-0340000D03*
X-0360000Y-0430000D03*
X-0340000D03*
X-0320000Y-0119000D03*
X-0340000D03*
X-0339700Y-0173200D03*
X-0320000Y-0059000D03*
Y-0079000D03*
Y-0099000D03*
X-0340000Y-0059000D03*
Y-0079000D03*
Y-0099000D03*
X-0320000Y-0039000D03*
X-0340000D03*
X-0359000Y0355000D03*
X-0339000D03*
X-0359000Y0335000D03*
X-0321800Y0406300D03*
X-0364040Y0481652D03*
X-0313000Y0746000D03*
X-0373000D03*
X-0353000D03*
X-0333000D03*
X-0313000Y0766000D03*
X-0373000D03*
X-0353000D03*
X-0333000D03*
X-0249000Y-0821000D03*
Y-0841000D03*
X-0289000Y-0821000D03*
X-0269000D03*
X-0289000Y-0841000D03*
X-0269000D03*
X-0253000Y-0181000D03*
Y-0201000D03*
X-0293000Y-0181000D03*
X-0273000D03*
X-0293000Y-0201000D03*
X-0273000D03*
X-0254000Y-0115000D03*
X-0291000Y-0118000D03*
X-0271000D03*
X-0291000Y-0058000D03*
X-0271000D03*
X-0291000Y-0078000D03*
X-0271000D03*
X-0291000Y-0098000D03*
X-0271000D03*
X-0291000Y-0038000D03*
X-0271000D03*
X-0309200Y0279900D03*
X-0244700Y0266900D03*
X-0245000Y0231000D03*
X-0248000Y0676000D03*
Y0656000D03*
X-0253000Y0746000D03*
X-0293000D03*
X-0273000D03*
X-0253000Y0766000D03*
X-0293000D03*
X-0273000D03*
X-0229000Y-0821000D03*
X-0209000D03*
X-0189000D03*
X-0229000Y-0841000D03*
X-0209000D03*
X-0189000D03*
X-0233000Y-0181000D03*
Y-0201000D03*
X-0234000Y-0115000D03*
X-0214000D03*
X-0194000D03*
X-0230000Y0217000D03*
X-0210000D03*
X-0190000D03*
X-0230000Y0197000D03*
X-0210000D03*
X-0190000D03*
X-0230000Y0237000D03*
X-0210000D03*
X-0190000D03*
X-0215900Y0613900D03*
X-0228000Y0676000D03*
X-0208000D03*
X-0188000D03*
X-0228000Y0656000D03*
X-0208000D03*
X-0188000D03*
X-0233000Y0746000D03*
X-0213000D03*
X-0193000D03*
X-0233000Y0766000D03*
X-0213000D03*
X-0193000D03*
X-0169000Y-0821000D03*
X-0149000D03*
X-0129000D03*
X-0169000Y-0841000D03*
X-0149000D03*
X-0129000D03*
X-0110700Y-0319000D03*
X-0111000Y-0258000D03*
X-0173000Y-0181000D03*
X-0153000D03*
X-0133000D03*
X-0113000D03*
X-0173000Y-0201000D03*
X-0153000D03*
X-0133000D03*
X-0113000D03*
X-0174000Y-0115000D03*
X-0152000Y-0117000D03*
X-0132000D03*
X-0112000D03*
X-0170000Y0217000D03*
X-0150000D03*
X-0130000D03*
X-0170000Y0197000D03*
X-0150000D03*
X-0130000D03*
X-0170000Y0237000D03*
X-0150000D03*
X-0130000D03*
X-0126000Y0415000D03*
Y0397000D03*
Y0379000D03*
Y0361000D03*
X-0167000Y0371100D03*
X-0166600Y0421600D03*
Y0383500D03*
X-0145000Y0488000D03*
Y0470000D03*
X-0126000Y0487000D03*
Y0469000D03*
Y0451000D03*
Y0433000D03*
X-0166300Y0459500D03*
X-0166600Y0485100D03*
X-0145000Y0506000D03*
X-0126000Y0505000D03*
X-0166600Y0497800D03*
X-0168000Y0676000D03*
X-0148000D03*
X-0128000D03*
X-0168000Y0656000D03*
X-0148000D03*
X-0128000D03*
X-0173000Y0746000D03*
X-0153000D03*
X-0133000D03*
X-0113000D03*
X-0173000Y0766000D03*
X-0153000D03*
X-0133000D03*
X-0113000D03*
X-0089000Y-0821000D03*
X-0069000D03*
X-0049000D03*
X-0089000Y-0841000D03*
X-0069000D03*
X-0049000D03*
X-0109000Y-0821000D03*
Y-0841000D03*
X-0051000Y-0319000D03*
Y-0259300D03*
X-0081600Y-0289900D03*
X-0091000Y-0181000D03*
X-0071000D03*
X-0051000D03*
X-0091000Y-0201000D03*
X-0071000D03*
X-0051000D03*
X-0092000Y-0117000D03*
X-0072000D03*
X-0054000Y-0124000D03*
Y-0064000D03*
Y-0084000D03*
Y-0104000D03*
X-0090000Y0217000D03*
X-0110000D03*
X-0090000Y0197000D03*
X-0110000D03*
X-0090000Y0237000D03*
X-0110000D03*
X-0090000Y0397000D03*
X-0072000D03*
X-0054000D03*
X-0090000Y0379000D03*
X-0072000D03*
X-0054000D03*
X-0090000Y0361000D03*
X-0072000D03*
X-0054000D03*
X-0108000Y0415000D03*
Y0397000D03*
Y0379000D03*
Y0361000D03*
X-0054000Y0415000D03*
X-0072000D03*
X-0090000D03*
Y0487000D03*
X-0072000D03*
X-0054000D03*
X-0090000Y0469000D03*
X-0072000D03*
X-0054000D03*
X-0108000Y0487000D03*
Y0469000D03*
Y0451000D03*
Y0433000D03*
X-0054000D03*
X-0072000D03*
X-0090000D03*
X-0054000Y0451000D03*
X-0072000D03*
X-0090000D03*
Y0505000D03*
X-0072000D03*
X-0054000D03*
X-0108000D03*
X-0088000Y0676000D03*
X-0068000D03*
X-0048000D03*
X-0108000D03*
X-0088000Y0656000D03*
X-0068000D03*
X-0048000D03*
X-0108000D03*
X-0093000Y0746000D03*
X-0073000D03*
X-0053000D03*
X-0093000Y0766000D03*
X-0073000D03*
X-0053000D03*
X-0009000Y-0821000D03*
X0011000D03*
X-0009000Y-0841000D03*
X0011000D03*
X-0029000Y-0821000D03*
Y-0841000D03*
X-0009000Y-0314000D03*
X0011000D03*
X-0009000Y-0254000D03*
X0011000D03*
X-0009000Y-0274000D03*
X0011000D03*
X-0009000Y-0294000D03*
X0011000D03*
X-0009000Y-0234000D03*
X0011000D03*
X-0011000Y-0181000D03*
X0009000D03*
X-0011000Y-0201000D03*
X0009000D03*
X-0031000Y-0181000D03*
Y-0201000D03*
X-0034000Y-0124000D03*
Y-0064000D03*
Y-0084000D03*
Y-0104000D03*
X-0018000Y0415000D03*
Y0397000D03*
Y0379000D03*
Y0361000D03*
X-0036000Y0415000D03*
Y0397000D03*
Y0379000D03*
Y0361000D03*
X-0018000Y0487000D03*
Y0469000D03*
Y0451000D03*
Y0433000D03*
X-0036000Y0487000D03*
Y0469000D03*
Y0451000D03*
Y0433000D03*
X0003700Y0472600D03*
X-0022000Y0500000D03*
X-0036000Y0505000D03*
X-0024300Y0532500D03*
X0003100Y0497300D03*
X-0008000Y0676000D03*
X0012000D03*
X-0028000D03*
X-0008000Y0656000D03*
X0012000D03*
X-0028000D03*
X-0013000Y0746000D03*
X0007000D03*
X-0033000D03*
X-0013000Y0766000D03*
X0007000D03*
X-0033000D03*
X0071000Y-0821000D03*
Y-0841000D03*
X0031000Y-0821000D03*
X0051000D03*
X0031000Y-0841000D03*
X0051000D03*
X0069000Y-0181000D03*
Y-0201000D03*
X0029000Y-0181000D03*
X0049000D03*
X0029000Y-0201000D03*
X0049000D03*
X0057000Y0535000D03*
X0077000D03*
X0057000Y0515000D03*
X0077000D03*
X0057000Y0495000D03*
X0077000D03*
X0039800Y0578800D03*
X0052000Y0676000D03*
X0072000D03*
X0032000D03*
X0052000Y0656000D03*
X0072000D03*
X0032000D03*
X0067000Y0746000D03*
X0087000D03*
X0027000D03*
X0047000D03*
X0084000Y0694600D03*
X0067000Y0766000D03*
X0087000D03*
X0027000D03*
X0047000D03*
X0131000Y-0821000D03*
X0151000D03*
X0131000Y-0841000D03*
X0151000D03*
X0091000Y-0821000D03*
X0111000D03*
X0091000Y-0841000D03*
X0111000D03*
X0132000Y-0382000D03*
X0152000D03*
X0132000Y-0402000D03*
X0152000D03*
X0092000Y-0382000D03*
X0112000D03*
X0092000Y-0402000D03*
X0112000D03*
X0132000Y-0322000D03*
X0152000D03*
X0092000D03*
X0112000D03*
X0132000Y-0342000D03*
X0152000D03*
X0132000Y-0362000D03*
X0152000D03*
X0092000Y-0342000D03*
X0112000D03*
X0092000Y-0362000D03*
X0112000D03*
X0132000Y-0262000D03*
X0152000D03*
X0132000Y-0282000D03*
X0152000D03*
X0132000Y-0302000D03*
X0152000D03*
X0092000Y-0262000D03*
X0112000D03*
X0092000Y-0282000D03*
X0112000D03*
X0092000Y-0302000D03*
X0112000D03*
X0132000Y-0182000D03*
X0152000D03*
X0132000Y-0202000D03*
X0152000D03*
X0132000Y-0222000D03*
X0152000D03*
X0132000Y-0242000D03*
X0152000D03*
X0092000Y-0182000D03*
X0112000D03*
X0092000Y-0202000D03*
X0112000D03*
X0092000Y-0222000D03*
X0112000D03*
X0092000Y-0242000D03*
X0112000D03*
X0132000Y-0122000D03*
X0152000D03*
X0132000Y-0142000D03*
X0152000D03*
X0132000Y-0162000D03*
X0152000D03*
X0092000Y-0122000D03*
X0112000D03*
X0092000Y-0142000D03*
X0112000D03*
X0092000Y-0162000D03*
X0112000D03*
X0137000Y0535000D03*
Y0515000D03*
X0097000Y0535000D03*
X0117000D03*
X0097000Y0515000D03*
X0117000D03*
X0137000Y0495000D03*
X0097000D03*
X0117000D03*
X0132000Y0676000D03*
X0092000D03*
X0112000D03*
X0132000Y0656000D03*
X0092000D03*
X0112000D03*
X0147000Y0746000D03*
X0107000D03*
X0127000D03*
X0147000Y0766000D03*
X0107000D03*
X0127000D03*
X0211000Y-0821000D03*
Y-0841000D03*
X0171000Y-0821000D03*
X0191000D03*
X0171000Y-0841000D03*
X0191000D03*
X0212000Y-0382000D03*
Y-0402000D03*
X0172000Y-0382000D03*
X0192000D03*
X0172000Y-0402000D03*
X0192000D03*
X0212000Y-0322000D03*
X0172000D03*
X0192000D03*
X0212000Y-0342000D03*
Y-0362000D03*
X0172000Y-0342000D03*
X0192000D03*
X0172000Y-0362000D03*
X0192000D03*
X0212000Y-0262000D03*
Y-0282000D03*
Y-0302000D03*
X0172000Y-0262000D03*
X0192000D03*
X0172000Y-0282000D03*
X0192000D03*
X0172000Y-0302000D03*
X0192000D03*
X0212000Y-0182000D03*
Y-0202000D03*
Y-0222000D03*
Y-0242000D03*
X0172000Y-0182000D03*
X0192000D03*
X0172000Y-0202000D03*
X0192000D03*
X0172000Y-0222000D03*
X0192000D03*
X0172000Y-0242000D03*
X0192000D03*
X0212000Y-0122000D03*
Y-0142000D03*
Y-0162000D03*
X0172000Y-0122000D03*
X0192000D03*
X0172000Y-0142000D03*
X0192000D03*
X0172000Y-0162000D03*
X0192000D03*
X0207000Y0019000D03*
Y-0001000D03*
Y0079000D03*
Y0059000D03*
Y0039000D03*
X0216600Y0518500D03*
X0157000Y0535000D03*
X0177000D03*
X0197000D03*
X0157000Y0515000D03*
X0177000D03*
X0197000D03*
X0157000Y0495000D03*
X0177000D03*
X0207000Y0746000D03*
X0167000D03*
X0187000D03*
X0207000Y0766000D03*
X0167000D03*
X0187000D03*
X0231000Y-0821000D03*
X0251000D03*
X0271000D03*
X0231000Y-0841000D03*
X0251000D03*
X0271000D03*
X0232000Y-0382000D03*
X0252000D03*
X0272000D03*
X0232000Y-0402000D03*
X0252000D03*
X0272000D03*
X0232000Y-0322000D03*
X0252000D03*
X0272000D03*
X0232000Y-0342000D03*
X0252000D03*
X0272000D03*
X0232000Y-0362000D03*
X0252000D03*
X0272000D03*
X0232000Y-0262000D03*
X0252000D03*
X0272000D03*
X0232000Y-0282000D03*
X0252000D03*
X0272000D03*
X0232000Y-0302000D03*
X0252000D03*
X0272000D03*
X0232000Y-0182000D03*
X0252000D03*
X0272000D03*
X0232000Y-0202000D03*
X0252000D03*
X0272000D03*
X0232000Y-0222000D03*
X0252000D03*
X0272000D03*
X0232000Y-0242000D03*
X0252000D03*
X0272000D03*
X0232000Y-0122000D03*
X0252000D03*
X0272000D03*
X0232000Y-0142000D03*
X0252000D03*
X0272000D03*
X0232000Y-0162000D03*
X0252000D03*
X0272000D03*
X0253000Y-0059000D03*
X0273000D03*
X0253000Y-0079000D03*
X0273000D03*
X0253000Y-0099000D03*
X0273000D03*
X0253000Y-0019000D03*
X0273000D03*
X0253000Y-0039000D03*
X0273000D03*
X0287000Y0019000D03*
Y-0001000D03*
X0227000Y0019000D03*
X0247000D03*
X0267000D03*
X0227000Y-0001000D03*
X0247000D03*
X0267000D03*
X0287000Y0079000D03*
Y0059000D03*
X0227000Y0079000D03*
X0247000D03*
X0267000D03*
X0227000Y0059000D03*
X0247000D03*
X0267000D03*
X0287000Y0039000D03*
X0227000D03*
X0247000D03*
X0267000D03*
X0254000Y0139000D03*
X0274000D03*
X0254000Y0119000D03*
X0274000D03*
X0254000Y0099000D03*
X0274000D03*
X0254000Y0179000D03*
X0274000D03*
X0254000Y0159000D03*
X0274000D03*
X0275100Y0527100D03*
X0287000Y0746000D03*
X0227000D03*
X0247000D03*
X0267000D03*
X0287000Y0766000D03*
X0227000D03*
X0247000D03*
X0267000D03*
X0291000Y-0821000D03*
Y-0841000D03*
X0336000Y-0794000D03*
X0356000D03*
X0336000Y-0814000D03*
X0356000D03*
X0336000Y-0834000D03*
X0356000D03*
X0336000Y-0714000D03*
X0356000D03*
X0336000Y-0734000D03*
X0356000D03*
X0336000Y-0754000D03*
X0356000D03*
X0336000Y-0774000D03*
X0356000D03*
X0336000Y-0654000D03*
Y-0674000D03*
Y-0694000D03*
X0356000D03*
X0336000Y-0594000D03*
Y-0614000D03*
Y-0634000D03*
Y-0514000D03*
Y-0534000D03*
Y-0554000D03*
Y-0574000D03*
Y-0454000D03*
Y-0474000D03*
Y-0494000D03*
Y-0394000D03*
Y-0414000D03*
Y-0434000D03*
Y-0354000D03*
X0356000D03*
X0336000Y-0374000D03*
X0303500Y-0004100D03*
X0303400Y0022800D03*
X0328100Y0474000D03*
X0352300Y0423500D03*
X0341000Y0684000D03*
Y0664000D03*
X0307000Y0746000D03*
X0341000Y0726000D03*
Y0706000D03*
X0343000Y0745000D03*
X0307000Y0766000D03*
X0343000Y0765000D03*
X0376000Y-0794000D03*
X0396000D03*
X0416000D03*
X0376000Y-0814000D03*
X0396000D03*
X0416000D03*
X0376000Y-0834000D03*
X0396000D03*
X0416000D03*
X0376000Y-0714000D03*
X0396000D03*
X0416000D03*
X0376000Y-0734000D03*
X0396000D03*
X0376000Y-0754000D03*
X0396000D03*
X0376000Y-0774000D03*
X0396000D03*
X0376000Y-0694000D03*
X0396000D03*
X0416000D03*
X0376000Y-0354000D03*
X0396000D03*
X0416000D03*
X0389200Y0026800D03*
X0406000Y0339000D03*
Y0319000D03*
Y0419000D03*
Y0399000D03*
Y0379000D03*
Y0359000D03*
X0361000Y0684000D03*
X0381000D03*
X0401000D03*
X0361000Y0664000D03*
X0381000D03*
X0401000D03*
X0361000Y0726000D03*
X0381000D03*
X0401000D03*
X0361000Y0706000D03*
X0381000D03*
X0401000D03*
X0363000Y0745000D03*
X0383000D03*
X0403000D03*
X0423000D03*
X0363000Y0765000D03*
X0383000D03*
X0403000D03*
X0423000D03*
X0436000Y-0814000D03*
Y-0834000D03*
X0456000D03*
X0476000D03*
X0436000Y-0694000D03*
X0456000D03*
X0436000Y-0354000D03*
X0456000D03*
X0476000D03*
X0446000Y0339000D03*
X0466000D03*
X0486000D03*
X0446000Y0319000D03*
X0466000D03*
X0486000D03*
X0426000Y0339000D03*
Y0319000D03*
X0446000Y0419000D03*
X0466000D03*
X0486000D03*
X0446000Y0399000D03*
X0466000D03*
X0486000D03*
X0446000Y0379000D03*
X0466000D03*
X0486000D03*
X0446000Y0359000D03*
X0466000D03*
X0486000D03*
X0426000Y0419000D03*
Y0399000D03*
Y0379000D03*
Y0359000D03*
X0486000Y0439000D03*
X0443000Y0765000D03*
X0463000D03*
X0483000D03*
X0516000Y-0814000D03*
X0496000Y-0834000D03*
X0516000Y-0654000D03*
Y-0674000D03*
Y-0694000D03*
X0496000D03*
X0516000Y-0594000D03*
Y-0614000D03*
Y-0634000D03*
Y-0514000D03*
Y-0534000D03*
Y-0554000D03*
Y-0574000D03*
Y-0454000D03*
Y-0474000D03*
Y-0494000D03*
Y-0394000D03*
Y-0414000D03*
Y-0434000D03*
Y-0354000D03*
Y-0374000D03*
X0496000Y-0354000D03*
X0526000Y0339000D03*
X0546000D03*
X0526000Y0319000D03*
X0546000D03*
X0506000Y0339000D03*
Y0319000D03*
X0526000Y0419000D03*
X0546000D03*
X0526000Y0399000D03*
X0546000D03*
X0526000Y0379000D03*
X0546000D03*
X0526000Y0359000D03*
X0546000D03*
X0506000Y0419000D03*
Y0399000D03*
Y0379000D03*
Y0359000D03*
X0526000Y0439000D03*
X0546000D03*
X0506000D03*
X0948150Y0071250D03*
G54D11*
X-0632000Y-0757000D03*
Y0699000D03*
X0472000Y-0757000D03*
Y0699000D03*
X0948150Y-0373250D03*
G54D12*
X-0645000Y-0223500D03*
X-0693500Y-0224100D03*
X-0645000Y-0078500D03*
X-0693500Y-0079100D03*
X-0655600Y-0002400D03*
Y0142600D03*
X-0685100Y0191800D03*
X-0651700Y0321000D03*
X-0652100Y0358000D03*
X-0598300Y-0219500D03*
Y-0074500D03*
X-0615900Y0042300D03*
X-0615000Y0231000D03*
X-0540100Y0191800D03*
X-0501600Y-0219600D03*
Y-0074600D03*
X-0470900Y0042300D03*
X-0470000Y0231000D03*
X-0506700Y0321000D03*
X-0507100Y0358000D03*
X-0391300Y-0001900D03*
Y0143100D03*
X-0402000Y0572000D03*
Y0717000D03*
X-0369000Y-0049000D03*
Y-0089000D03*
X-0354900Y-0001700D03*
X-0318300Y-0001600D03*
X-0354900Y0143300D03*
X-0318300Y0143400D03*
X-0280800Y-0000800D03*
X-0242400Y-0000300D03*
X-0280800Y0144200D03*
X-0242400Y0144700D03*
X-0267300Y0468700D03*
X-0307000Y0572000D03*
X-0267300Y0613700D03*
X-0307000Y0717000D03*
X-0224000Y-0049000D03*
Y-0089000D03*
X-0204700Y0000100D03*
Y0145100D03*
X-0167100Y0697100D03*
X-0022100D03*
X0051500Y-0411500D03*
Y-0266500D03*
X0067200Y0263500D03*
Y0408500D03*
X0117900Y0220400D03*
X0100800Y0263200D03*
Y0408200D03*
X0224500Y-0049400D03*
X0224700Y0275800D03*
X0262900Y0220400D03*
X0413000Y-0234300D03*
X0378700D03*
X0413000Y-0089300D03*
X0378700D03*
X0369500Y-0049400D03*
X0372700Y0091300D03*
X0413500Y0091700D03*
X0372700Y0236300D03*
X0413500Y0236700D03*
X0369700Y0275800D03*
X0381900Y0480800D03*
Y0625800D03*
X0448700Y-0234600D03*
X0490800Y-0236100D03*
X0448700Y-0089600D03*
X0490800Y-0091100D03*
X0456200Y0091000D03*
Y0236000D03*
X0451000Y0460000D03*
Y0605000D03*
X0526600Y-0237100D03*
Y-0092100D03*
X0537100Y0089300D03*
X0497800Y0090100D03*
X0537100Y0234300D03*
X0497800Y0235100D03*
X0522000Y0461000D03*
Y0606000D03*
X0948150Y0007750D03*
G54D13*
X-0582300Y-0012820D03*
X-0595000D03*
X-0607700D03*
X-0516500Y-0020580D03*
X-0503800D03*
X-0491100D03*
X-0359820Y0606200D03*
Y0618900D03*
X-0360420Y0680600D03*
X-0359820Y0631600D03*
X-0360420Y0693300D03*
Y0706000D03*
X0948150Y-0119250D03*
G54D14*
X-0556100Y-0177400D03*
Y-0152000D03*
Y-0126600D03*
X0948150Y-0309750D03*
G54D15*
X-0482400Y-0623500D03*
X-0432400D03*
X-0341000Y-0749300D03*
Y-0699300D03*
X-0342500Y-0541800D03*
Y-0491800D03*
X0948150Y-0182750D03*
G54D16*
X-0195000Y-0666000D03*
X-0125000D03*
X0007000Y-0044000D03*
Y-0022000D03*
Y0D03*
Y0022000D03*
Y0044000D03*
Y0066000D03*
Y0088000D03*
Y0110000D03*
X0037000Y-0033000D03*
Y-0011000D03*
Y0011000D03*
Y0033000D03*
Y0055000D03*
Y0077000D03*
Y0099000D03*
Y0121000D03*
X0948150Y-0055750D03*
G54D17*
X-0143000Y-0090400D03*
Y-0052300D03*
Y-0014200D03*
Y0023900D03*
Y0062000D03*
Y0100100D03*
Y0138100D03*
Y0176100D03*
X0180000Y-0083400D03*
Y-0045300D03*
Y-0007200D03*
Y0030900D03*
Y0069000D03*
Y0107100D03*
Y0145100D03*
Y0183100D03*
X0179800Y0593500D03*
Y0618900D03*
Y0644300D03*
Y0669700D03*
Y0695100D03*
X0948150Y-0246250D03*
G54D18*
G01X-1064980Y0053125D02*
Y0084875D01*
X-1069704Y0078525D01*
G01Y0053125D02*
X-1060257D01*
G01X-1040970Y0066353D02*
X-1038214Y0070059D01*
X-1035852Y0072175D01*
X-1032702Y0073233D01*
X-1029947Y0072175D01*
X-1027979Y0070059D01*
X-1026404Y0066883D01*
X-1026010Y0063179D01*
X-1026404Y0060004D01*
X-1027979Y0056828D01*
X-1030341Y0054183D01*
X-1033096Y0053125D01*
X-1036245Y0054183D01*
X-1039001Y0057357D01*
X-1040576Y0062121D01*
X-1040970Y0067412D01*
X-1040183Y0074291D01*
X-1039001Y0077996D01*
X-1037033Y0081700D01*
X-1034278Y0084346D01*
X-1031522Y0084875D01*
X-1028766Y0083817D01*
X-1026797Y0081171D01*
G01X-1002000Y0053125D02*
X-0999245Y0053654D01*
X-0996095Y0055241D01*
X-0994127Y0057886D01*
X-0993339Y0061592D01*
X-0994127Y0065295D01*
X-0996489Y0068470D01*
X-1000032Y0070059D01*
X-1003968D01*
X-1006330Y0071117D01*
X-1008299Y0073762D01*
X-1009086Y0077466D01*
X-1007905Y0081171D01*
X-1005150Y0083817D01*
X-1002000Y0084875D01*
X-0998851Y0083817D01*
X-0996095Y0081171D01*
X-0994914Y0077466D01*
X-0995702Y0073762D01*
X-0997670Y0071117D01*
X-1000032Y0070059D01*
X-1003968D01*
X-1007511Y0068470D01*
X-1009873Y0065295D01*
X-1010661Y0061592D01*
X-1009873Y0057886D01*
X-1007905Y0055241D01*
X-1004755Y0053654D01*
X-1002000Y0053125D01*
G01X-0970510Y0052067D02*
X-0971298Y0052596D01*
Y0053654D01*
X-0970510Y0054183D01*
X-0969722Y0053654D01*
Y0052596D01*
X-0970510Y0052067D01*
G01X-0946500Y0079583D02*
X-0944138Y0082758D01*
X-0941382Y0084346D01*
X-0938232Y0084875D01*
X-0934296Y0083817D01*
X-0931540Y0081171D01*
X-0930753Y0077996D01*
X-0931147Y0074820D01*
X-0932722Y0072175D01*
X-0940595Y0066883D01*
X-0944138Y0063179D01*
X-0946500Y0057886D01*
X-0947287Y0053125D01*
X-0930753D01*
G01X-0893980Y0046125D02*
Y0077875D01*
X-0898704Y0071525D01*
G01Y0046125D02*
X-0889257D01*
G01X-0857766D02*
Y0077875D01*
X-0872332Y0055121D01*
X-0852648D01*
G01X-0839661Y0050886D02*
X-0837299Y0048241D01*
X-0834543Y0046654D01*
X-0831000Y0046125D01*
X-0827457Y0047183D01*
X-0824702Y0049299D01*
X-0822733Y0053004D01*
X-0822339Y0057237D01*
X-0823127Y0061470D01*
X-0825095Y0064117D01*
X-0827851Y0066233D01*
X-0830606Y0066762D01*
X-0833362Y0066233D01*
X-0836905Y0064117D01*
X-0835724Y0077875D01*
X-0825095D01*
G01X-0799510Y0045067D02*
X-0800298Y0045596D01*
Y0046654D01*
X-0799510Y0047183D01*
X-0798722Y0046654D01*
Y0045596D01*
X-0799510Y0045067D01*
G01X-0775500Y0059353D02*
X-0772744Y0063059D01*
X-0770382Y0065175D01*
X-0767232Y0066233D01*
X-0764477Y0065175D01*
X-0762509Y0063059D01*
X-0760934Y0059883D01*
X-0760540Y0056179D01*
X-0760934Y0053004D01*
X-0762509Y0049828D01*
X-0764871Y0047183D01*
X-0767626Y0046125D01*
X-0770775Y0047183D01*
X-0773531Y0050357D01*
X-0775106Y0055121D01*
X-0775500Y0060412D01*
X-0774713Y0067291D01*
X-0773531Y0070996D01*
X-0771563Y0074700D01*
X-0768808Y0077346D01*
X-0766052Y0077875D01*
X-0763296Y0076817D01*
X-0761327Y0074171D01*
G01X-0185043Y0857125D02*
Y0888875D01*
X-0189767Y0882525D01*
G01Y0857125D02*
X-0180320D01*
G01X-0153553D02*
Y0888875D01*
X-0158277Y0882525D01*
G01Y0857125D02*
X-0148830D01*
G01X-0122063Y0888875D02*
X-0125213Y0887817D01*
X-0127574Y0885171D01*
X-0129149Y0881996D01*
X-0130330Y0877762D01*
X-0130724Y0873000D01*
X-0130330Y0868237D01*
X-0129149Y0864004D01*
X-0127574Y0860828D01*
X-0125213Y0858183D01*
X-0122063Y0857125D01*
X-0118914Y0858183D01*
X-0116552Y0860828D01*
X-0114977Y0864004D01*
X-0113796Y0868237D01*
X-0113402Y0873000D01*
X-0113796Y0877762D01*
X-0114977Y0881996D01*
X-0116552Y0885171D01*
X-0118914Y0887817D01*
X-0122063Y0888875D01*
G01X-0090573Y0856067D02*
X-0091361Y0856596D01*
Y0857654D01*
X-0090573Y0858183D01*
X-0089785Y0857654D01*
Y0856596D01*
X-0090573Y0856067D01*
G01X-0054359Y0857125D02*
Y0888875D01*
X-0068925Y0866121D01*
X-0049241D01*
G01X-0179980Y0928125D02*
Y0959875D01*
X-0184704Y0953525D01*
G01Y0928125D02*
X-0175257D01*
G01X-0155970Y0954583D02*
X-0153608Y0957758D01*
X-0150852Y0959346D01*
X-0147702Y0959875D01*
X-0143766Y0958817D01*
X-0141010Y0956171D01*
X-0140223Y0952996D01*
X-0140617Y0949820D01*
X-0142192Y0947175D01*
X-0150065Y0941883D01*
X-0153608Y0938179D01*
X-0155970Y0932886D01*
X-0156757Y0928125D01*
X-0140223D01*
G01X-0123693Y0931828D02*
X-0120937Y0929183D01*
X-0117788Y0928125D01*
X-0114638Y0929183D01*
X-0111882Y0932357D01*
X-0109914Y0937121D01*
X-0109127Y0941883D01*
Y0947704D01*
X-0109914Y0952466D01*
X-0111882Y0956700D01*
X-0114245Y0958817D01*
X-0117000Y0959875D01*
X-0120150Y0958817D01*
X-0122511Y0956700D01*
X-0124086Y0953525D01*
X-0124873Y0949291D01*
X-0124086Y0945588D01*
X-0122118Y0941883D01*
X-0119755Y0939766D01*
X-0117000Y0939237D01*
X-0113851Y0940295D01*
X-0111489Y0942941D01*
X-0109127Y0947704D01*
G01X-0085510Y0927067D02*
X-0086298Y0927596D01*
Y0928654D01*
X-0085510Y0929183D01*
X-0084722Y0928654D01*
Y0927596D01*
X-0085510Y0927067D01*
G01X-0054020Y0928125D02*
Y0959875D01*
X-0058744Y0953525D01*
G01Y0928125D02*
X-0049297D01*
G01X0861945Y0118875D02*
Y0150625D01*
X0876905D01*
G01X0871393Y0135280D02*
X0861945D01*
G01X0896191Y0150625D02*
X0905638D01*
G01X0900915D02*
Y0118875D01*
G01X0896191D02*
X0905638D01*
G01X0934767Y0134750D02*
X0942641D01*
Y0125225D01*
X0940278Y0122049D01*
X0937523Y0119933D01*
X0933586Y0118875D01*
X0929650Y0119933D01*
X0926894Y0122049D01*
X0924532Y0125225D01*
X0922956Y0128929D01*
X0922169Y0133162D01*
Y0136867D01*
X0922956Y0140041D01*
X0924532Y0143746D01*
X0926894Y0146921D01*
X0929255Y0149037D01*
X0932405Y0150625D01*
X0935160D01*
X0938310Y0149567D01*
X0940672Y0147450D01*
G01X0955234Y0150625D02*
Y0127871D01*
X0956809Y0123107D01*
X0959958Y0119933D01*
X0963895Y0118875D01*
X0967832Y0119933D01*
X0970981Y0123107D01*
X0972556Y0127871D01*
Y0150625D01*
G01X0987512Y0118875D02*
Y0150625D01*
X0997353D01*
X1000503Y0149037D01*
X1002471Y0146921D01*
X1003258Y0142687D01*
X1002471Y0138454D01*
X1000109Y0135809D01*
X0997353Y0134220D01*
X0987512D01*
G01X0997353D02*
X1003258Y0118875D01*
G01X1034748D02*
X1019002D01*
Y0150625D01*
X1034748D01*
G01X1028450Y0135280D02*
X1019002D01*
G01X1028838Y0182375D02*
X1038680Y0214125D01*
X1048522Y0182375D01*
G01X1044978Y0193487D02*
X1032381D01*
G01X1062297Y0214125D02*
Y0182375D01*
X1078043D01*
G01X1093787Y0214125D02*
Y0182375D01*
X1109533D01*
G01X1155979Y0214125D02*
Y0191371D01*
X1157554Y0186607D01*
X1160703Y0183433D01*
X1164640Y0182375D01*
X1168577Y0183433D01*
X1171726Y0186607D01*
X1173301Y0191371D01*
Y0214125D01*
G01X1187076Y0182375D02*
Y0214125D01*
X1205184Y0182375D01*
Y0214125D01*
G01X1222896D02*
X1232343D01*
G01X1227620D02*
Y0182375D01*
G01X1222896D02*
X1232343D01*
G01X1259110Y0214125D02*
Y0182375D01*
G01X1250056Y0214125D02*
X1268164D01*
G01X1282333Y0186607D02*
X1285482Y0183962D01*
X1289025Y0182375D01*
X1292175D01*
X1295324Y0183962D01*
X1297686Y0186607D01*
X1298867Y0190313D01*
X1298080Y0194016D01*
X1296111Y0197191D01*
X1292568Y0199309D01*
X1287845Y0200367D01*
X1285089Y0202483D01*
X1283907Y0206187D01*
X1284695Y0209892D01*
X1286663Y0212537D01*
X1289419Y0214125D01*
X1292175D01*
X1294930Y0213067D01*
X1297293Y0210421D01*
G01X1343738Y0182375D02*
X1353580Y0214125D01*
X1363422Y0182375D01*
G01X1359878Y0193487D02*
X1347281D01*
G01X1377197Y0182375D02*
Y0214125D01*
X1387038D01*
X1390188Y0212537D01*
X1392156Y0210421D01*
X1392943Y0206187D01*
X1392156Y0201954D01*
X1389794Y0199309D01*
X1387038Y0197720D01*
X1377197D01*
G01X1387038D02*
X1392943Y0182375D01*
G01X1424433D02*
X1408687D01*
Y0214125D01*
X1424433D01*
G01X1418135Y0198780D02*
X1408687D01*
G01X1474816Y0214125D02*
X1484263D01*
G01X1479540D02*
Y0182375D01*
G01X1474816D02*
X1484263D01*
G01X1501976D02*
Y0214125D01*
X1520084Y0182375D01*
Y0214125D01*
G01X1563774Y0182375D02*
Y0214125D01*
X1574010Y0187667D01*
X1584246Y0214125D01*
Y0182375D01*
G01X1600776Y0214125D02*
X1610223D01*
G01X1605500D02*
Y0182375D01*
G01X1600776D02*
X1610223D01*
G01X1629117Y0214125D02*
Y0182375D01*
X1644863D01*
G01X1660607Y0214125D02*
Y0182375D01*
X1676353D01*
G01X1695246Y0214125D02*
X1704693D01*
G01X1699970D02*
Y0182375D01*
G01X1695246D02*
X1704693D01*
G01X1721224D02*
Y0214125D01*
X1731460Y0187667D01*
X1741696Y0214125D01*
Y0182375D01*
G01X1770823D02*
X1755077D01*
Y0214125D01*
X1770823D01*
G01X1764525Y0198780D02*
X1755077D01*
G01X1794440Y0214125D02*
Y0182375D01*
G01X1785386Y0214125D02*
X1803494D01*
G01X1833803Y0182375D02*
X1818057D01*
Y0214125D01*
X1833803D01*
G01X1827505Y0198780D02*
X1818057D01*
G01X1849547Y0182375D02*
Y0214125D01*
X1859388D01*
X1862538Y0212537D01*
X1864506Y0210421D01*
X1865293Y0206187D01*
X1864506Y0201954D01*
X1862144Y0199309D01*
X1859388Y0197720D01*
X1849547D01*
G01X1859388D02*
X1865293Y0182375D01*
G01X1880643Y0186607D02*
X1883792Y0183962D01*
X1887335Y0182375D01*
X1890485D01*
X1893634Y0183962D01*
X1895996Y0186607D01*
X1897177Y0190313D01*
X1896390Y0194016D01*
X1894421Y0197191D01*
X1890878Y0199309D01*
X1886155Y0200367D01*
X1883399Y0202483D01*
X1882217Y0206187D01*
X1883005Y0209892D01*
X1884973Y0212537D01*
X1887729Y0214125D01*
X1890485D01*
X1893240Y0213067D01*
X1895603Y0210421D01*
G01X1061509Y0247375D02*
Y0279125D01*
X1069382D01*
X1072532Y0277537D01*
X1074894Y0275421D01*
X1076863Y0272246D01*
X1078437Y0268541D01*
X1078831Y0263250D01*
X1078437Y0257958D01*
X1076863Y0254254D01*
X1074894Y0251078D01*
X1072532Y0248962D01*
X1069382Y0247375D01*
X1061509D01*
G01X1093787D02*
Y0279125D01*
X1103628D01*
X1106778Y0277537D01*
X1108746Y0275421D01*
X1109533Y0271187D01*
X1108746Y0266954D01*
X1106384Y0264309D01*
X1103628Y0262720D01*
X1093787D01*
G01X1103628D02*
X1109533Y0247375D01*
G01X1128426Y0279125D02*
X1137873D01*
G01X1133150D02*
Y0247375D01*
G01X1128426D02*
X1137873D01*
G01X1156767Y0279125D02*
Y0247375D01*
X1172513D01*
G01X1188257Y0279125D02*
Y0247375D01*
X1204003D01*
G01X1267771Y0276479D02*
X1265408Y0278067D01*
X1262653Y0279125D01*
X1259504D01*
X1255960Y0277537D01*
X1253205Y0274892D01*
X1251237Y0271716D01*
X1249661Y0266425D01*
X1249268Y0261662D01*
X1250056Y0256900D01*
X1251237Y0253725D01*
X1253599Y0250549D01*
X1256355Y0248433D01*
X1259110Y0247375D01*
X1261865D01*
X1264621Y0248433D01*
X1266983Y0250020D01*
X1268952Y0252136D01*
G01X1282333Y0247375D02*
Y0279125D01*
G01X1298867D02*
Y0247375D01*
G01Y0263250D02*
X1282333D01*
G01X1312248Y0247375D02*
X1322090Y0279125D01*
X1331932Y0247375D01*
G01X1328388Y0258487D02*
X1315791D01*
G01X1345707Y0247375D02*
Y0279125D01*
X1355548D01*
X1358698Y0277537D01*
X1360666Y0275421D01*
X1361453Y0271187D01*
X1360666Y0266954D01*
X1358304Y0264309D01*
X1355548Y0262720D01*
X1345707D01*
G01X1355548D02*
X1361453Y0247375D01*
G01X1385070Y0279125D02*
Y0247375D01*
G01X1376016Y0279125D02*
X1394124D01*
G01X1416560Y0246317D02*
X1415772Y0246846D01*
Y0247904D01*
X1416560Y0248433D01*
X1417348Y0247904D01*
Y0246846D01*
X1416560Y0246317D01*
G01Y0260603D02*
X1415772Y0261133D01*
Y0262191D01*
X1416560Y0262720D01*
X1417348Y0262191D01*
Y0261133D01*
X1416560Y0260603D01*
G01X1479540Y0279125D02*
Y0247375D01*
G01X1470486Y0279125D02*
X1488594D01*
G01X1511030Y0247375D02*
X1507880Y0247904D01*
X1505125Y0250020D01*
X1502763Y0253196D01*
X1501188Y0256900D01*
X1500401Y0261133D01*
Y0265367D01*
X1501188Y0269600D01*
X1502763Y0273304D01*
X1505125Y0276479D01*
X1507880Y0278596D01*
X1511030Y0279125D01*
X1514179Y0278596D01*
X1516935Y0276479D01*
X1519297Y0273304D01*
X1520872Y0269600D01*
X1521659Y0265367D01*
Y0261133D01*
X1520872Y0256900D01*
X1519297Y0253196D01*
X1516935Y0250020D01*
X1514179Y0247904D01*
X1511030Y0247375D01*
G01X1534647D02*
Y0279125D01*
X1544095D01*
X1547244Y0277537D01*
X1549606Y0273833D01*
X1550393Y0269600D01*
X1549606Y0265367D01*
X1547638Y0262191D01*
X1544095Y0260603D01*
X1534647D01*
G01X1605500Y0279125D02*
Y0247375D01*
G01X1599989Y0268541D02*
X1611011D01*
G01X1636990Y0247375D02*
X1634628Y0247904D01*
X1632266Y0250020D01*
X1630691Y0253725D01*
X1629904Y0257958D01*
X1630691Y0262191D01*
X1632266Y0265896D01*
X1634628Y0268012D01*
X1636990Y0268541D01*
X1639352Y0268012D01*
X1641714Y0265896D01*
X1643288Y0262191D01*
X1643683Y0257958D01*
X1643288Y0253725D01*
X1641714Y0250020D01*
X1639352Y0247904D01*
X1636990Y0247375D01*
G01X1703119Y0264309D02*
X1704694Y0265896D01*
X1705875Y0268541D01*
X1706663Y0272246D01*
X1705875Y0275421D01*
X1704300Y0277537D01*
X1701545Y0279125D01*
X1690916D01*
Y0247375D01*
X1703907D01*
X1706663Y0249491D01*
X1708237Y0252667D01*
X1709024Y0256371D01*
X1708237Y0260074D01*
X1705875Y0263250D01*
X1703119Y0264309D01*
X1690916D01*
G01X1731460Y0247375D02*
X1728310Y0247904D01*
X1725555Y0250020D01*
X1723193Y0253196D01*
X1721618Y0256900D01*
X1720831Y0261133D01*
Y0265367D01*
X1721618Y0269600D01*
X1723193Y0273304D01*
X1725555Y0276479D01*
X1728310Y0278596D01*
X1731460Y0279125D01*
X1734609Y0278596D01*
X1737365Y0276479D01*
X1739727Y0273304D01*
X1741302Y0269600D01*
X1742089Y0265367D01*
Y0261133D01*
X1741302Y0256900D01*
X1739727Y0253196D01*
X1737365Y0250020D01*
X1734609Y0247904D01*
X1731460Y0247375D01*
G01X1762950Y0279125D02*
Y0247375D01*
G01X1753896Y0279125D02*
X1772004D01*
G01X1794440D02*
Y0247375D01*
G01X1785386Y0279125D02*
X1803494D01*
G01X1825930Y0247375D02*
X1822780Y0247904D01*
X1820025Y0250020D01*
X1817663Y0253196D01*
X1816088Y0256900D01*
X1815301Y0261133D01*
Y0265367D01*
X1816088Y0269600D01*
X1817663Y0273304D01*
X1820025Y0276479D01*
X1822780Y0278596D01*
X1825930Y0279125D01*
X1829079Y0278596D01*
X1831835Y0276479D01*
X1834197Y0273304D01*
X1835772Y0269600D01*
X1836559Y0265367D01*
Y0261133D01*
X1835772Y0256900D01*
X1834197Y0253196D01*
X1831835Y0250020D01*
X1829079Y0247904D01*
X1825930Y0247375D01*
G01X1847184D02*
Y0279125D01*
X1857420Y0252667D01*
X1867656Y0279125D01*
Y0247375D01*
G01X1121735Y0118875D02*
Y0150625D01*
X1136695D01*
G01X1131183Y0135280D02*
X1121735D01*
G01X1155981Y0150625D02*
X1165428D01*
G01X1160705D02*
Y0118875D01*
G01X1155981D02*
X1165428D01*
G01X1183141D02*
Y0150625D01*
X1201249Y0118875D01*
Y0150625D01*
G01X1218961D02*
X1228408D01*
G01X1223685D02*
Y0118875D01*
G01X1218961D02*
X1228408D01*
G01X1246908Y0123107D02*
X1250057Y0120462D01*
X1253600Y0118875D01*
X1256750D01*
X1259899Y0120462D01*
X1262261Y0123107D01*
X1263442Y0126813D01*
X1262655Y0130516D01*
X1260686Y0133691D01*
X1257143Y0135809D01*
X1252420Y0136867D01*
X1249664Y0138983D01*
X1248482Y0142687D01*
X1249270Y0146392D01*
X1251238Y0149037D01*
X1253994Y0150625D01*
X1256750D01*
X1259505Y0149567D01*
X1261868Y0146921D01*
G01X1278398Y0118875D02*
Y0150625D01*
G01X1294932D02*
Y0118875D01*
G01Y0134750D02*
X1278398D01*
G01X1326028Y0118875D02*
X1310282D01*
Y0150625D01*
X1326028D01*
G01X1319730Y0135280D02*
X1310282D01*
G01X1340984Y0118875D02*
Y0150625D01*
X1348857D01*
X1352007Y0149037D01*
X1354369Y0146921D01*
X1356338Y0143746D01*
X1357912Y0140041D01*
X1358306Y0134750D01*
X1357912Y0129458D01*
X1356338Y0125754D01*
X1354369Y0122578D01*
X1352007Y0120462D01*
X1348857Y0118875D01*
X1340984D01*
G01X1369325Y0108292D02*
X1392945D01*
G01X1404358Y0123107D02*
X1407507Y0120462D01*
X1411050Y0118875D01*
X1414200D01*
X1417349Y0120462D01*
X1419711Y0123107D01*
X1420892Y0126813D01*
X1420105Y0130516D01*
X1418136Y0133691D01*
X1414593Y0135809D01*
X1409870Y0136867D01*
X1407114Y0138983D01*
X1405932Y0142687D01*
X1406720Y0146392D01*
X1408688Y0149037D01*
X1411444Y0150625D01*
X1414200D01*
X1416955Y0149567D01*
X1419318Y0146921D01*
G01X1439391Y0150625D02*
X1448838D01*
G01X1444115D02*
Y0118875D01*
G01X1439391D02*
X1448838D01*
G01X1468125Y0150625D02*
X1483085D01*
X1468125Y0118875D01*
X1483085D01*
G01X1514968D02*
X1499222D01*
Y0150625D01*
X1514968D01*
G01X1508670Y0135280D02*
X1499222D01*
G01X1262259Y-0382775D02*
X1264621Y-0386480D01*
X1267770Y-0388596D01*
X1271314Y-0389125D01*
X1274463Y-0388596D01*
X1277613Y-0385951D01*
X1279581Y-0382775D01*
X1279974Y-0379600D01*
X1279187Y-0375897D01*
X1276431Y-0373250D01*
X1273675Y-0372191D01*
X1270132D01*
G01X1273675D02*
X1276038Y-0370604D01*
X1278006Y-0367959D01*
X1278793Y-0364784D01*
X1278006Y-0361608D01*
X1276038Y-0358963D01*
X1272495Y-0357375D01*
X1268952Y-0357904D01*
X1265409Y-0360021D01*
G01X1302410Y-0390183D02*
X1301622Y-0389654D01*
Y-0388596D01*
X1302410Y-0388067D01*
X1303198Y-0388596D01*
Y-0389654D01*
X1302410Y-0390183D01*
G01X1326420Y-0362667D02*
X1328782Y-0359492D01*
X1331538Y-0357904D01*
X1334688Y-0357375D01*
X1338624Y-0358433D01*
X1341380Y-0361079D01*
X1342167Y-0364254D01*
X1341773Y-0367430D01*
X1340198Y-0370075D01*
X1332325Y-0375367D01*
X1328782Y-0379071D01*
X1326420Y-0384364D01*
X1325633Y-0389125D01*
X1342167D01*
G01X1356729Y-0384364D02*
X1359091Y-0387009D01*
X1361847Y-0388596D01*
X1365390Y-0389125D01*
X1368933Y-0388067D01*
X1371688Y-0385951D01*
X1373657Y-0382246D01*
X1374051Y-0378013D01*
X1373263Y-0373780D01*
X1371295Y-0371133D01*
X1368539Y-0369017D01*
X1365784Y-0368488D01*
X1363028Y-0369017D01*
X1359485Y-0371133D01*
X1360666Y-0357375D01*
X1371295D01*
G01X1270920Y-0325625D02*
Y-0293875D01*
X1266196Y-0300225D01*
G01Y-0325625D02*
X1275643D01*
G01X1302410Y-0326683D02*
X1301622Y-0326154D01*
Y-0325096D01*
X1302410Y-0324567D01*
X1303198Y-0325096D01*
Y-0326154D01*
X1302410Y-0326683D01*
G01X1326420Y-0299167D02*
X1328782Y-0295992D01*
X1331538Y-0294404D01*
X1334688Y-0293875D01*
X1338624Y-0294933D01*
X1341380Y-0297579D01*
X1342167Y-0300754D01*
X1341773Y-0303930D01*
X1340198Y-0306575D01*
X1332325Y-0311867D01*
X1328782Y-0315571D01*
X1326420Y-0320864D01*
X1325633Y-0325625D01*
X1342167D01*
G01X1370114D02*
Y-0293875D01*
X1355548Y-0316629D01*
X1375232D01*
G01X1286665Y-0262125D02*
Y-0230375D01*
X1281941Y-0236725D01*
G01Y-0262125D02*
X1291388D01*
G01X1318155Y-0263183D02*
X1317367Y-0262654D01*
Y-0261596D01*
X1318155Y-0261067D01*
X1318943Y-0261596D01*
Y-0262654D01*
X1318155Y-0263183D01*
G01X1349645Y-0230375D02*
X1346495Y-0231433D01*
X1344134Y-0234079D01*
X1342559Y-0237254D01*
X1341378Y-0241488D01*
X1340984Y-0246250D01*
X1341378Y-0251013D01*
X1342559Y-0255246D01*
X1344134Y-0258422D01*
X1346495Y-0261067D01*
X1349645Y-0262125D01*
X1352794Y-0261067D01*
X1355156Y-0258422D01*
X1356731Y-0255246D01*
X1357912Y-0251013D01*
X1358306Y-0246250D01*
X1357912Y-0241488D01*
X1356731Y-0237254D01*
X1355156Y-0234079D01*
X1352794Y-0231433D01*
X1349645Y-0230375D01*
G01X1270920Y-0166875D02*
X1267770Y-0167933D01*
X1265409Y-0170579D01*
X1263834Y-0173754D01*
X1262653Y-0177988D01*
X1262259Y-0182750D01*
X1262653Y-0187513D01*
X1263834Y-0191746D01*
X1265409Y-0194922D01*
X1267770Y-0197567D01*
X1270920Y-0198625D01*
X1274069Y-0197567D01*
X1276431Y-0194922D01*
X1278006Y-0191746D01*
X1279187Y-0187513D01*
X1279581Y-0182750D01*
X1279187Y-0177988D01*
X1278006Y-0173754D01*
X1276431Y-0170579D01*
X1274069Y-0167933D01*
X1270920Y-0166875D01*
G01X1302410Y-0199683D02*
X1301622Y-0199154D01*
Y-0198096D01*
X1302410Y-0197567D01*
X1303198Y-0198096D01*
Y-0199154D01*
X1302410Y-0199683D01*
G01X1333900Y-0198625D02*
X1336655Y-0198096D01*
X1339805Y-0196509D01*
X1341773Y-0193864D01*
X1342561Y-0190158D01*
X1341773Y-0186455D01*
X1339411Y-0183280D01*
X1335868Y-0181691D01*
X1331932D01*
X1329570Y-0180633D01*
X1327601Y-0177988D01*
X1326814Y-0174284D01*
X1327995Y-0170579D01*
X1330750Y-0167933D01*
X1333900Y-0166875D01*
X1337049Y-0167933D01*
X1339805Y-0170579D01*
X1340986Y-0174284D01*
X1340198Y-0177988D01*
X1338230Y-0180633D01*
X1335868Y-0181691D01*
X1331932D01*
X1328389Y-0183280D01*
X1326027Y-0186455D01*
X1325239Y-0190158D01*
X1326027Y-0193864D01*
X1327995Y-0196509D01*
X1331145Y-0198096D01*
X1333900Y-0198625D01*
G01X1356729Y-0193864D02*
X1359091Y-0196509D01*
X1361847Y-0198096D01*
X1365390Y-0198625D01*
X1368933Y-0197567D01*
X1371688Y-0195451D01*
X1373657Y-0191746D01*
X1374051Y-0187513D01*
X1373263Y-0183280D01*
X1371295Y-0180633D01*
X1368539Y-0178517D01*
X1365784Y-0177988D01*
X1363028Y-0178517D01*
X1359485Y-0180633D01*
X1360666Y-0166875D01*
X1371295D01*
G01X1270920Y-0103375D02*
X1267770Y-0104433D01*
X1265409Y-0107079D01*
X1263834Y-0110254D01*
X1262653Y-0114488D01*
X1262259Y-0119250D01*
X1262653Y-0124013D01*
X1263834Y-0128246D01*
X1265409Y-0131422D01*
X1267770Y-0134067D01*
X1270920Y-0135125D01*
X1274069Y-0134067D01*
X1276431Y-0131422D01*
X1278006Y-0128246D01*
X1279187Y-0124013D01*
X1279581Y-0119250D01*
X1279187Y-0114488D01*
X1278006Y-0110254D01*
X1276431Y-0107079D01*
X1274069Y-0104433D01*
X1270920Y-0103375D01*
G01X1302410Y-0136183D02*
X1301622Y-0135654D01*
Y-0134596D01*
X1302410Y-0134067D01*
X1303198Y-0134596D01*
Y-0135654D01*
X1302410Y-0136183D01*
G01X1333900Y-0135125D02*
X1336655Y-0134596D01*
X1339805Y-0133009D01*
X1341773Y-0130364D01*
X1342561Y-0126658D01*
X1341773Y-0122955D01*
X1339411Y-0119780D01*
X1335868Y-0118191D01*
X1331932D01*
X1329570Y-0117133D01*
X1327601Y-0114488D01*
X1326814Y-0110784D01*
X1327995Y-0107079D01*
X1330750Y-0104433D01*
X1333900Y-0103375D01*
X1337049Y-0104433D01*
X1339805Y-0107079D01*
X1340986Y-0110784D01*
X1340198Y-0114488D01*
X1338230Y-0117133D01*
X1335868Y-0118191D01*
X1331932D01*
X1328389Y-0119780D01*
X1326027Y-0122955D01*
X1325239Y-0126658D01*
X1326027Y-0130364D01*
X1327995Y-0133009D01*
X1331145Y-0134596D01*
X1333900Y-0135125D01*
G01X1356729Y-0128775D02*
X1359091Y-0132480D01*
X1362240Y-0134596D01*
X1365784Y-0135125D01*
X1368933Y-0134596D01*
X1372083Y-0131951D01*
X1374051Y-0128775D01*
X1374444Y-0125600D01*
X1373657Y-0121897D01*
X1370901Y-0119250D01*
X1368145Y-0118191D01*
X1364602D01*
G01X1368145D02*
X1370508Y-0116604D01*
X1372476Y-0113959D01*
X1373263Y-0110784D01*
X1372476Y-0107608D01*
X1370508Y-0104963D01*
X1366965Y-0103375D01*
X1363422Y-0103904D01*
X1359879Y-0106021D01*
G01X1286665Y-0039875D02*
X1283515Y-0040933D01*
X1281154Y-0043579D01*
X1279579Y-0046754D01*
X1278398Y-0050988D01*
X1278004Y-0055750D01*
X1278398Y-0060513D01*
X1279579Y-0064746D01*
X1281154Y-0067922D01*
X1283515Y-0070567D01*
X1286665Y-0071625D01*
X1289814Y-0070567D01*
X1292176Y-0067922D01*
X1293751Y-0064746D01*
X1294932Y-0060513D01*
X1295326Y-0055750D01*
X1294932Y-0050988D01*
X1293751Y-0046754D01*
X1292176Y-0043579D01*
X1289814Y-0040933D01*
X1286665Y-0039875D01*
G01X1318155Y-0072683D02*
X1317367Y-0072154D01*
Y-0071096D01*
X1318155Y-0070567D01*
X1318943Y-0071096D01*
Y-0072154D01*
X1318155Y-0072683D01*
G01X1348857Y-0071625D02*
X1349645Y-0064746D01*
X1350826Y-0058926D01*
X1352400Y-0053633D01*
X1354369Y-0047813D01*
X1357518Y-0039875D01*
X1341772D01*
G01X1286665Y0023625D02*
X1283515Y0022567D01*
X1281154Y0019921D01*
X1279579Y0016746D01*
X1278398Y0012512D01*
X1278004Y0007750D01*
X1278398Y0002987D01*
X1279579Y-0001246D01*
X1281154Y-0004422D01*
X1283515Y-0007067D01*
X1286665Y-0008125D01*
X1289814Y-0007067D01*
X1292176Y-0004422D01*
X1293751Y-0001246D01*
X1294932Y0002987D01*
X1295326Y0007750D01*
X1294932Y0012512D01*
X1293751Y0016746D01*
X1292176Y0019921D01*
X1289814Y0022567D01*
X1286665Y0023625D01*
G01X1318155Y-0009183D02*
X1317367Y-0008654D01*
Y-0007596D01*
X1318155Y-0007067D01*
X1318943Y-0007596D01*
Y-0008654D01*
X1318155Y-0009183D01*
G01X1348857Y-0008125D02*
X1349645Y-0001246D01*
X1350826Y0004574D01*
X1352400Y0009867D01*
X1354369Y0015687D01*
X1357518Y0023625D01*
X1341772D01*
G01X1286665Y0087125D02*
X1283515Y0086067D01*
X1281154Y0083421D01*
X1279579Y0080246D01*
X1278398Y0076012D01*
X1278004Y0071250D01*
X1278398Y0066487D01*
X1279579Y0062254D01*
X1281154Y0059078D01*
X1283515Y0056433D01*
X1286665Y0055375D01*
X1289814Y0056433D01*
X1292176Y0059078D01*
X1293751Y0062254D01*
X1294932Y0066487D01*
X1295326Y0071250D01*
X1294932Y0076012D01*
X1293751Y0080246D01*
X1292176Y0083421D01*
X1289814Y0086067D01*
X1286665Y0087125D01*
G01X1318155Y0054317D02*
X1317367Y0054846D01*
Y0055904D01*
X1318155Y0056433D01*
X1318943Y0055904D01*
Y0054846D01*
X1318155Y0054317D01*
G01X1354369Y0055375D02*
Y0087125D01*
X1339803Y0064371D01*
X1359487D01*
G01X1584636Y-0389125D02*
Y-0357375D01*
X1602744Y-0389125D01*
Y-0357375D01*
G01X1625180Y-0389125D02*
X1622030Y-0388596D01*
X1619275Y-0386480D01*
X1616913Y-0383304D01*
X1615338Y-0379600D01*
X1614551Y-0375367D01*
Y-0371133D01*
X1615338Y-0366900D01*
X1616913Y-0363196D01*
X1619275Y-0360021D01*
X1622030Y-0357904D01*
X1625180Y-0357375D01*
X1628329Y-0357904D01*
X1631085Y-0360021D01*
X1633447Y-0363196D01*
X1635022Y-0366900D01*
X1635809Y-0371133D01*
Y-0375367D01*
X1635022Y-0379600D01*
X1633447Y-0383304D01*
X1631085Y-0386480D01*
X1628329Y-0388596D01*
X1625180Y-0389125D01*
G01X1647616D02*
Y-0357375D01*
X1665724Y-0389125D01*
Y-0357375D01*
G01X1683042Y-0378542D02*
X1693278D01*
G01X1711777Y-0389125D02*
Y-0357375D01*
X1721225D01*
X1724374Y-0358963D01*
X1726736Y-0362667D01*
X1727523Y-0366900D01*
X1726736Y-0371133D01*
X1724768Y-0374309D01*
X1721225Y-0375897D01*
X1711777D01*
G01X1743267Y-0357375D02*
Y-0389125D01*
X1759013D01*
G01X1772788D02*
X1782630Y-0357375D01*
X1792472Y-0389125D01*
G01X1788928Y-0378013D02*
X1776331D01*
G01X1814120Y-0357375D02*
Y-0389125D01*
G01X1805066Y-0357375D02*
X1823174D01*
G01X1853483Y-0389125D02*
X1837737D01*
Y-0357375D01*
X1853483D01*
G01X1847185Y-0372720D02*
X1837737D01*
G01X1868439Y-0389125D02*
Y-0357375D01*
X1876312D01*
X1879462Y-0358963D01*
X1881824Y-0361079D01*
X1883793Y-0364254D01*
X1885367Y-0367959D01*
X1885761Y-0373250D01*
X1885367Y-0378542D01*
X1883793Y-0382246D01*
X1881824Y-0385422D01*
X1879462Y-0387538D01*
X1876312Y-0389125D01*
X1868439D01*
G01X1648797Y-0325625D02*
Y-0293875D01*
X1658245D01*
X1661394Y-0295463D01*
X1663756Y-0299167D01*
X1664543Y-0303400D01*
X1663756Y-0307633D01*
X1661788Y-0310809D01*
X1658245Y-0312397D01*
X1648797D01*
G01X1680287Y-0293875D02*
Y-0325625D01*
X1696033D01*
G01X1709808D02*
X1719650Y-0293875D01*
X1729492Y-0325625D01*
G01X1725948Y-0314513D02*
X1713351D01*
G01X1751140Y-0293875D02*
Y-0325625D01*
G01X1742086Y-0293875D02*
X1760194D01*
G01X1790503Y-0325625D02*
X1774757D01*
Y-0293875D01*
X1790503D01*
G01X1784205Y-0309220D02*
X1774757D01*
G01X1805459Y-0325625D02*
Y-0293875D01*
X1813332D01*
X1816482Y-0295463D01*
X1818844Y-0297579D01*
X1820813Y-0300754D01*
X1822387Y-0304459D01*
X1822781Y-0309750D01*
X1822387Y-0315042D01*
X1820813Y-0318746D01*
X1818844Y-0321922D01*
X1816482Y-0324038D01*
X1813332Y-0325625D01*
X1805459D01*
G01X1648797Y-0262125D02*
Y-0230375D01*
X1658245D01*
X1661394Y-0231963D01*
X1663756Y-0235667D01*
X1664543Y-0239900D01*
X1663756Y-0244133D01*
X1661788Y-0247309D01*
X1658245Y-0248897D01*
X1648797D01*
G01X1680287Y-0230375D02*
Y-0262125D01*
X1696033D01*
G01X1709808D02*
X1719650Y-0230375D01*
X1729492Y-0262125D01*
G01X1725948Y-0251013D02*
X1713351D01*
G01X1751140Y-0230375D02*
Y-0262125D01*
G01X1742086Y-0230375D02*
X1760194D01*
G01X1790503Y-0262125D02*
X1774757D01*
Y-0230375D01*
X1790503D01*
G01X1784205Y-0245720D02*
X1774757D01*
G01X1805459Y-0262125D02*
Y-0230375D01*
X1813332D01*
X1816482Y-0231963D01*
X1818844Y-0234079D01*
X1820813Y-0237254D01*
X1822387Y-0240959D01*
X1822781Y-0246250D01*
X1822387Y-0251542D01*
X1820813Y-0255246D01*
X1818844Y-0258422D01*
X1816482Y-0260538D01*
X1813332Y-0262125D01*
X1805459D01*
G01X1648797Y-0198625D02*
Y-0166875D01*
X1658245D01*
X1661394Y-0168463D01*
X1663756Y-0172167D01*
X1664543Y-0176400D01*
X1663756Y-0180633D01*
X1661788Y-0183809D01*
X1658245Y-0185397D01*
X1648797D01*
G01X1680287Y-0166875D02*
Y-0198625D01*
X1696033D01*
G01X1709808D02*
X1719650Y-0166875D01*
X1729492Y-0198625D01*
G01X1725948Y-0187513D02*
X1713351D01*
G01X1751140Y-0166875D02*
Y-0198625D01*
G01X1742086Y-0166875D02*
X1760194D01*
G01X1790503Y-0198625D02*
X1774757D01*
Y-0166875D01*
X1790503D01*
G01X1784205Y-0182220D02*
X1774757D01*
G01X1805459Y-0198625D02*
Y-0166875D01*
X1813332D01*
X1816482Y-0168463D01*
X1818844Y-0170579D01*
X1820813Y-0173754D01*
X1822387Y-0177459D01*
X1822781Y-0182750D01*
X1822387Y-0188042D01*
X1820813Y-0191746D01*
X1818844Y-0194922D01*
X1816482Y-0197038D01*
X1813332Y-0198625D01*
X1805459D01*
G01X1648797Y-0135125D02*
Y-0103375D01*
X1658245D01*
X1661394Y-0104963D01*
X1663756Y-0108667D01*
X1664543Y-0112900D01*
X1663756Y-0117133D01*
X1661788Y-0120309D01*
X1658245Y-0121897D01*
X1648797D01*
G01X1680287Y-0103375D02*
Y-0135125D01*
X1696033D01*
G01X1709808D02*
X1719650Y-0103375D01*
X1729492Y-0135125D01*
G01X1725948Y-0124013D02*
X1713351D01*
G01X1751140Y-0103375D02*
Y-0135125D01*
G01X1742086Y-0103375D02*
X1760194D01*
G01X1790503Y-0135125D02*
X1774757D01*
Y-0103375D01*
X1790503D01*
G01X1784205Y-0118720D02*
X1774757D01*
G01X1805459Y-0135125D02*
Y-0103375D01*
X1813332D01*
X1816482Y-0104963D01*
X1818844Y-0107079D01*
X1820813Y-0110254D01*
X1822387Y-0113959D01*
X1822781Y-0119250D01*
X1822387Y-0124542D01*
X1820813Y-0128246D01*
X1818844Y-0131422D01*
X1816482Y-0133538D01*
X1813332Y-0135125D01*
X1805459D01*
G01X1648797Y-0071625D02*
Y-0039875D01*
X1658245D01*
X1661394Y-0041463D01*
X1663756Y-0045167D01*
X1664543Y-0049400D01*
X1663756Y-0053633D01*
X1661788Y-0056809D01*
X1658245Y-0058397D01*
X1648797D01*
G01X1680287Y-0039875D02*
Y-0071625D01*
X1696033D01*
G01X1709808D02*
X1719650Y-0039875D01*
X1729492Y-0071625D01*
G01X1725948Y-0060513D02*
X1713351D01*
G01X1751140Y-0039875D02*
Y-0071625D01*
G01X1742086Y-0039875D02*
X1760194D01*
G01X1790503Y-0071625D02*
X1774757D01*
Y-0039875D01*
X1790503D01*
G01X1784205Y-0055220D02*
X1774757D01*
G01X1805459Y-0071625D02*
Y-0039875D01*
X1813332D01*
X1816482Y-0041463D01*
X1818844Y-0043579D01*
X1820813Y-0046754D01*
X1822387Y-0050459D01*
X1822781Y-0055750D01*
X1822387Y-0061042D01*
X1820813Y-0064746D01*
X1818844Y-0067922D01*
X1816482Y-0070038D01*
X1813332Y-0071625D01*
X1805459D01*
G01X1648797Y-0008125D02*
Y0023625D01*
X1658245D01*
X1661394Y0022037D01*
X1663756Y0018333D01*
X1664543Y0014100D01*
X1663756Y0009867D01*
X1661788Y0006691D01*
X1658245Y0005103D01*
X1648797D01*
G01X1680287Y0023625D02*
Y-0008125D01*
X1696033D01*
G01X1709808D02*
X1719650Y0023625D01*
X1729492Y-0008125D01*
G01X1725948Y0002987D02*
X1713351D01*
G01X1751140Y0023625D02*
Y-0008125D01*
G01X1742086Y0023625D02*
X1760194D01*
G01X1790503Y-0008125D02*
X1774757D01*
Y0023625D01*
X1790503D01*
G01X1784205Y0008280D02*
X1774757D01*
G01X1805459Y-0008125D02*
Y0023625D01*
X1813332D01*
X1816482Y0022037D01*
X1818844Y0019921D01*
X1820813Y0016746D01*
X1822387Y0013041D01*
X1822781Y0007750D01*
X1822387Y0002458D01*
X1820813Y-0001246D01*
X1818844Y-0004422D01*
X1816482Y-0006538D01*
X1813332Y-0008125D01*
X1805459D01*
G01X1648797Y0055375D02*
Y0087125D01*
X1658245D01*
X1661394Y0085537D01*
X1663756Y0081833D01*
X1664543Y0077600D01*
X1663756Y0073367D01*
X1661788Y0070191D01*
X1658245Y0068603D01*
X1648797D01*
G01X1680287Y0087125D02*
Y0055375D01*
X1696033D01*
G01X1709808D02*
X1719650Y0087125D01*
X1729492Y0055375D01*
G01X1725948Y0066487D02*
X1713351D01*
G01X1751140Y0087125D02*
Y0055375D01*
G01X1742086Y0087125D02*
X1760194D01*
G01X1790503Y0055375D02*
X1774757D01*
Y0087125D01*
X1790503D01*
G01X1784205Y0071780D02*
X1774757D01*
G01X1805459Y0055375D02*
Y0087125D01*
X1813332D01*
X1816482Y0085537D01*
X1818844Y0083421D01*
X1820813Y0080246D01*
X1822387Y0076541D01*
X1822781Y0071250D01*
X1822387Y0065958D01*
X1820813Y0062254D01*
X1818844Y0059078D01*
X1816482Y0056962D01*
X1813332Y0055375D01*
X1805459D01*
G01X1648797Y0118875D02*
Y0150625D01*
X1658245D01*
X1661394Y0149037D01*
X1663756Y0145333D01*
X1664543Y0141100D01*
X1663756Y0136867D01*
X1661788Y0133691D01*
X1658245Y0132103D01*
X1648797D01*
G01X1680287Y0150625D02*
Y0118875D01*
X1696033D01*
G01X1709808D02*
X1719650Y0150625D01*
X1729492Y0118875D01*
G01X1725948Y0129987D02*
X1713351D01*
G01X1751140Y0150625D02*
Y0118875D01*
G01X1742086Y0150625D02*
X1760194D01*
G01X1790503Y0118875D02*
X1774757D01*
Y0150625D01*
X1790503D01*
G01X1784205Y0135280D02*
X1774757D01*
G01X1805459Y0118875D02*
Y0150625D01*
X1813332D01*
X1816482Y0149037D01*
X1818844Y0146921D01*
X1820813Y0143746D01*
X1822387Y0140041D01*
X1822781Y0134750D01*
X1822387Y0129458D01*
X1820813Y0125754D01*
X1818844Y0122578D01*
X1816482Y0120462D01*
X1813332Y0118875D01*
X1805459D01*
G01X1947950Y0055375D02*
Y0087125D01*
X1943226Y0080775D01*
G01Y0055375D02*
X1952673D01*
G01X1971960Y0081833D02*
X1974322Y0085008D01*
X1977078Y0086596D01*
X1980228Y0087125D01*
X1984164Y0086067D01*
X1986920Y0083421D01*
X1987707Y0080246D01*
X1987313Y0077070D01*
X1985738Y0074425D01*
X1977865Y0069133D01*
X1974322Y0065429D01*
X1971960Y0060136D01*
X1971173Y0055375D01*
X1987707D01*
G01X2003450Y0068603D02*
X2006206Y0072309D01*
X2008568Y0074425D01*
X2011718Y0075483D01*
X2014473Y0074425D01*
X2016441Y0072309D01*
X2018016Y0069133D01*
X2018410Y0065429D01*
X2018016Y0062254D01*
X2016441Y0059078D01*
X2014079Y0056433D01*
X2011324Y0055375D01*
X2008175Y0056433D01*
X2005419Y0059607D01*
X2003844Y0064371D01*
X2003450Y0069662D01*
X2004237Y0076541D01*
X2005419Y0080246D01*
X2007387Y0083950D01*
X2010142Y0086596D01*
X2012898Y0087125D01*
X2015654Y0086067D01*
X2017623Y0083421D01*
G01X2034940Y0068603D02*
X2037696Y0072309D01*
X2040058Y0074425D01*
X2043208Y0075483D01*
X2045963Y0074425D01*
X2047931Y0072309D01*
X2049506Y0069133D01*
X2049900Y0065429D01*
X2049506Y0062254D01*
X2047931Y0059078D01*
X2045569Y0056433D01*
X2042814Y0055375D01*
X2039665Y0056433D01*
X2036909Y0059607D01*
X2035334Y0064371D01*
X2034940Y0069662D01*
X2035727Y0076541D01*
X2036909Y0080246D01*
X2038877Y0083950D01*
X2041632Y0086596D01*
X2044388Y0087125D01*
X2047144Y0086067D01*
X2049113Y0083421D01*
G01X1963695Y0118875D02*
X1960545Y0119404D01*
X1957790Y0121520D01*
X1955428Y0124696D01*
X1953853Y0128400D01*
X1953066Y0132633D01*
Y0136867D01*
X1953853Y0141100D01*
X1955428Y0144804D01*
X1957790Y0147979D01*
X1960545Y0150096D01*
X1963695Y0150625D01*
X1966844Y0150096D01*
X1969600Y0147979D01*
X1971962Y0144804D01*
X1973537Y0141100D01*
X1974324Y0136867D01*
Y0132633D01*
X1973537Y0128400D01*
X1971962Y0124696D01*
X1969600Y0121520D01*
X1966844Y0119404D01*
X1963695Y0118875D01*
G01X1966844Y0127342D02*
X1971568Y0118875D01*
G01X1995185Y0150625D02*
Y0118875D01*
G01X1986131Y0150625D02*
X2004239D01*
G01X2026675Y0118875D02*
Y0133162D01*
X2018802Y0150625D01*
G01X2034548D02*
X2026675Y0133162D01*
G01X1999909Y-0389125D02*
Y-0357375D01*
X1985343Y-0380129D01*
X2005027D01*
G01X1986524Y-0319275D02*
X1988886Y-0322980D01*
X1992035Y-0325096D01*
X1995579Y-0325625D01*
X1998728Y-0325096D01*
X2001878Y-0322451D01*
X2003846Y-0319275D01*
X2004239Y-0316100D01*
X2003452Y-0312397D01*
X2000696Y-0309750D01*
X1997940Y-0308691D01*
X1994397D01*
G01X1997940D02*
X2000303Y-0307104D01*
X2002271Y-0304459D01*
X2003058Y-0301284D01*
X2002271Y-0298108D01*
X2000303Y-0295463D01*
X1996760Y-0293875D01*
X1993217Y-0294404D01*
X1989674Y-0296521D01*
G01X1971960Y-0235667D02*
X1974322Y-0232492D01*
X1977078Y-0230904D01*
X1980228Y-0230375D01*
X1984164Y-0231433D01*
X1986920Y-0234079D01*
X1987707Y-0237254D01*
X1987313Y-0240430D01*
X1985738Y-0243075D01*
X1977865Y-0248367D01*
X1974322Y-0252071D01*
X1971960Y-0257364D01*
X1971173Y-0262125D01*
X1987707D01*
G01X2010930D02*
Y-0230375D01*
X2006206Y-0236725D01*
G01Y-0262125D02*
X2015653D01*
G01X1987705Y-0185397D02*
X1990461Y-0181691D01*
X1992823Y-0179575D01*
X1995973Y-0178517D01*
X1998728Y-0179575D01*
X2000696Y-0181691D01*
X2002271Y-0184867D01*
X2002665Y-0188571D01*
X2002271Y-0191746D01*
X2000696Y-0194922D01*
X1998334Y-0197567D01*
X1995579Y-0198625D01*
X1992430Y-0197567D01*
X1989674Y-0194393D01*
X1988099Y-0189629D01*
X1987705Y-0184338D01*
X1988492Y-0177459D01*
X1989674Y-0173754D01*
X1991642Y-0170050D01*
X1994397Y-0167404D01*
X1997153Y-0166875D01*
X1999909Y-0167933D01*
X2001878Y-0170579D01*
G01X1979440Y-0135125D02*
Y-0103375D01*
X1974716Y-0109725D01*
G01Y-0135125D02*
X1984163D01*
G01X2003450Y-0108667D02*
X2005812Y-0105492D01*
X2008568Y-0103904D01*
X2011718Y-0103375D01*
X2015654Y-0104433D01*
X2018410Y-0107079D01*
X2019197Y-0110254D01*
X2018803Y-0113430D01*
X2017228Y-0116075D01*
X2009355Y-0121367D01*
X2005812Y-0125071D01*
X2003450Y-0130364D01*
X2002663Y-0135125D01*
X2019197D01*
G01X1979440Y-0071625D02*
Y-0039875D01*
X1974716Y-0046225D01*
G01Y-0071625D02*
X1984163D01*
G01X2010930D02*
X2013685Y-0071096D01*
X2016835Y-0069509D01*
X2018803Y-0066864D01*
X2019591Y-0063158D01*
X2018803Y-0059455D01*
X2016441Y-0056280D01*
X2012898Y-0054691D01*
X2008962D01*
X2006600Y-0053633D01*
X2004631Y-0050988D01*
X2003844Y-0047284D01*
X2005025Y-0043579D01*
X2007780Y-0040933D01*
X2010930Y-0039875D01*
X2014079Y-0040933D01*
X2016835Y-0043579D01*
X2018016Y-0047284D01*
X2017228Y-0050988D01*
X2015260Y-0053633D01*
X2012898Y-0054691D01*
X2008962D01*
X2005419Y-0056280D01*
X2003057Y-0059455D01*
X2002269Y-0063158D01*
X2003057Y-0066864D01*
X2005025Y-0069509D01*
X2008175Y-0071096D01*
X2010930Y-0071625D01*
G01X1979440Y-0008125D02*
X1982195Y-0007596D01*
X1985345Y-0006009D01*
X1987313Y-0003364D01*
X1988101Y0000342D01*
X1987313Y0004045D01*
X1984951Y0007220D01*
X1981408Y0008809D01*
X1977472D01*
X1975110Y0009867D01*
X1973141Y0012512D01*
X1972354Y0016216D01*
X1973535Y0019921D01*
X1976290Y0022567D01*
X1979440Y0023625D01*
X1982589Y0022567D01*
X1985345Y0019921D01*
X1986526Y0016216D01*
X1985738Y0012512D01*
X1983770Y0009867D01*
X1981408Y0008809D01*
X1977472D01*
X1973929Y0007220D01*
X1971567Y0004045D01*
X1970779Y0000342D01*
X1971567Y-0003364D01*
X1973535Y-0006009D01*
X1976685Y-0007596D01*
X1979440Y-0008125D01*
G01X2003450Y0018333D02*
X2005812Y0021508D01*
X2008568Y0023096D01*
X2011718Y0023625D01*
X2015654Y0022567D01*
X2018410Y0019921D01*
X2019197Y0016746D01*
X2018803Y0013570D01*
X2017228Y0010925D01*
X2009355Y0005633D01*
X2005812Y0001929D01*
X2003450Y-0003364D01*
X2002663Y-0008125D01*
X2019197D01*
G01X0446989Y-0862000D02*
X-1027000D01*
G01X-1002000Y0028313D02*
Y-0862000D01*
G01X-1008250Y-0822000D02*
X-1002000Y-0862000D01*
X-0995750Y-0822000D01*
X-1008250D01*
G01X-1002000Y0109687D02*
Y0820000D01*
G01X-0995750Y0780000D02*
X-1002000Y0820000D01*
X-1008250Y0780000D01*
X-0995750D01*
G01X0447002Y0820000D02*
X-1027000D01*
G01X0447000Y-0757000D02*
X-0856000D01*
G01X0447000Y0699000D02*
X-0856000D01*
G01X-0831000Y0021313D02*
Y-0757000D01*
G01X-0837250Y-0717000D02*
X-0831000Y-0757000D01*
X-0824750Y-0717000D01*
X-0837250D01*
G01X-0831000Y0102687D02*
Y0699000D01*
G01X-0824750Y0659000D02*
X-0831000Y0699000D01*
X-0837250Y0659000D01*
X-0824750D01*
G01X-0737000Y0820000D02*
Y-0862000D01*
X0577000D01*
Y0820000D01*
X-0737000D01*
G01X-0729000Y0740000D02*
Y0969000D01*
G01X-0216602Y0944000D02*
X-0729000D01*
G01X-0689000Y0950250D02*
X-0729000Y0944000D01*
X-0689000Y0937750D01*
Y0950250D01*
G01X-0666750Y-0175011D02*
Y-0143211D01*
X-0671470Y-0149571D01*
G01Y-0175011D02*
X-0662031D01*
G01X-0630530D02*
Y-0143211D01*
X-0645084Y-0166001D01*
X-0625416D01*
G01X-0603750Y-0176071D02*
X-0604537Y-0175541D01*
Y-0174481D01*
X-0603750Y-0173951D01*
X-0602963Y-0174481D01*
Y-0175541D01*
X-0603750Y-0176071D01*
G01X-0580903Y-0170242D02*
X-0578544Y-0172891D01*
X-0575790Y-0174481D01*
X-0572250Y-0175011D01*
X-0568710Y-0173951D01*
X-0565957Y-0171832D01*
X-0563990Y-0168122D01*
X-0563597Y-0163881D01*
X-0564383Y-0159641D01*
X-0566350Y-0156991D01*
X-0569104Y-0154871D01*
X-0571856Y-0154342D01*
X-0574610Y-0154871D01*
X-0578150Y-0156991D01*
X-0576970Y-0143211D01*
X-0566350D01*
G01X-0668500Y-0224100D02*
X-0594500D01*
G01X-0668500Y-0079100D02*
X-0594500D01*
G01X-0685100Y0216800D02*
Y0290800D01*
G01X-0667361Y0249900D02*
Y0281700D01*
X-0672081Y0275340D01*
G01Y0249900D02*
X-0662642D01*
G01X-0631141D02*
Y0281700D01*
X-0645695Y0258910D01*
X-0626027D01*
G01X-0604361Y0248840D02*
X-0605148Y0249370D01*
Y0250430D01*
X-0604361Y0250960D01*
X-0603574Y0250430D01*
Y0249370D01*
X-0604361Y0248840D01*
G01X-0581514Y0254669D02*
X-0579155Y0252020D01*
X-0576401Y0250430D01*
X-0572861Y0249900D01*
X-0569321Y0250960D01*
X-0566568Y0253079D01*
X-0564601Y0256789D01*
X-0564208Y0261030D01*
X-0564994Y0265270D01*
X-0566961Y0267920D01*
X-0569715Y0270040D01*
X-0572467Y0270569D01*
X-0575221Y0270040D01*
X-0578761Y0267920D01*
X-0577581Y0281700D01*
X-0566961D01*
G01X-0703011Y0265800D02*
X-0685100D01*
G01X-0645100Y0272050D02*
X-0685100Y0265800D01*
X-0645100Y0259550D01*
Y0272050D01*
G01X-0651700Y0346000D02*
Y0420000D01*
G01X-0669611Y0395000D02*
X-0651700D01*
G01X-0611700Y0401250D02*
X-0651700Y0395000D01*
X-0611700Y0388750D01*
Y0401250D01*
G01X-0652100Y0383000D02*
Y0457000D01*
G01X-0670011Y0432000D02*
X-0652100D01*
G01X-0612100Y0438250D02*
X-0652100Y0432000D01*
X-0612100Y0425750D01*
Y0438250D01*
G01X-0618250Y-0174411D02*
Y-0142611D01*
X-0622970Y-0148971D01*
G01Y-0174411D02*
X-0613531D01*
G01X-0582030D02*
Y-0142611D01*
X-0596584Y-0165401D01*
X-0576916D01*
G01X-0555250Y-0175471D02*
X-0556037Y-0174941D01*
Y-0173881D01*
X-0555250Y-0173351D01*
X-0554463Y-0173881D01*
Y-0174941D01*
X-0555250Y-0175471D01*
G01X-0532403Y-0169642D02*
X-0530044Y-0172291D01*
X-0527290Y-0173881D01*
X-0523750Y-0174411D01*
X-0520210Y-0173351D01*
X-0517457Y-0171232D01*
X-0515490Y-0167522D01*
X-0515097Y-0163281D01*
X-0515883Y-0159041D01*
X-0517850Y-0156391D01*
X-0520604Y-0154271D01*
X-0523356Y-0153742D01*
X-0526110Y-0154271D01*
X-0529650Y-0156391D01*
X-0528470Y-0142611D01*
X-0517850D01*
G01X-0620000Y-0223500D02*
X-0546000D01*
G01X-0619500Y-0198861D02*
Y-0224100D01*
G01X-0625750Y-0184100D02*
X-0619500Y-0224100D01*
X-0613250Y-0184100D01*
X-0625750D01*
G01X-0619500Y-0119361D02*
Y-0079100D01*
G01X-0613250Y-0119100D02*
X-0619500Y-0079100D01*
X-0625750Y-0119100D01*
X-0613250D01*
G01X-0571550Y-0170411D02*
Y-0138611D01*
X-0576270Y-0144971D01*
G01Y-0170411D02*
X-0566831D01*
G01X-0535330D02*
Y-0138611D01*
X-0549884Y-0161401D01*
X-0530216D01*
G01X-0508550Y-0171471D02*
X-0509337Y-0170941D01*
Y-0169881D01*
X-0508550Y-0169351D01*
X-0507763Y-0169881D01*
Y-0170941D01*
X-0508550Y-0171471D01*
G01X-0485703Y-0165642D02*
X-0483344Y-0168291D01*
X-0480590Y-0169881D01*
X-0477050Y-0170411D01*
X-0473510Y-0169351D01*
X-0470757Y-0167232D01*
X-0468790Y-0163522D01*
X-0468397Y-0159281D01*
X-0469183Y-0155041D01*
X-0471150Y-0152391D01*
X-0473904Y-0150271D01*
X-0476656Y-0149742D01*
X-0479410Y-0150271D01*
X-0482950Y-0152391D01*
X-0481770Y-0138611D01*
X-0471150D01*
G01X-0620000Y-0078500D02*
X-0546000D01*
G01X-0630600Y-0002400D02*
X-0556600D01*
G01X-0587850Y0037600D02*
X-0581600Y-0002400D01*
X-0575350Y0037600D01*
X-0587850D01*
G01X-0628850Y0046689D02*
Y0078489D01*
X-0633570Y0072129D01*
G01Y0046689D02*
X-0624131D01*
G01X-0592630D02*
Y0078489D01*
X-0607184Y0055699D01*
X-0587516D01*
G01X-0565850Y0045629D02*
X-0566637Y0046159D01*
Y0047219D01*
X-0565850Y0047749D01*
X-0565063Y0047219D01*
Y0046159D01*
X-0565850Y0045629D01*
G01X-0543003Y0051458D02*
X-0540644Y0048809D01*
X-0537890Y0047219D01*
X-0534350Y0046689D01*
X-0530810Y0047749D01*
X-0528057Y0049868D01*
X-0526090Y0053578D01*
X-0525697Y0057819D01*
X-0526483Y0062059D01*
X-0528450Y0064709D01*
X-0531204Y0066829D01*
X-0533956Y0067358D01*
X-0536710Y0066829D01*
X-0540250Y0064709D01*
X-0539070Y0078489D01*
X-0528450D01*
G01X-0615900Y0067300D02*
Y0141300D01*
G01X-0630600Y0142600D02*
X-0556600D01*
G01X-0575350Y0102600D02*
X-0581600Y0142600D01*
X-0587850Y0102600D01*
X-0575350D01*
G01X-0598161Y0100400D02*
Y0132200D01*
X-0602881Y0125840D01*
G01Y0100400D02*
X-0593442D01*
G01X-0561941D02*
Y0132200D01*
X-0576495Y0109410D01*
X-0556827D01*
G01X-0535161Y0099340D02*
X-0535948Y0099870D01*
Y0100930D01*
X-0535161Y0101460D01*
X-0534374Y0100930D01*
Y0099870D01*
X-0535161Y0099340D01*
G01X-0512314Y0105169D02*
X-0509955Y0102520D01*
X-0507201Y0100930D01*
X-0503661Y0100400D01*
X-0500121Y0101460D01*
X-0497368Y0103579D01*
X-0495401Y0107289D01*
X-0495008Y0111530D01*
X-0495794Y0115770D01*
X-0497761Y0118420D01*
X-0500515Y0120540D01*
X-0503267Y0121069D01*
X-0506021Y0120540D01*
X-0509561Y0118420D01*
X-0508381Y0132200D01*
X-0497761D01*
G01X-0633811Y0116300D02*
X-0615900D01*
G01X-0575900Y0122550D02*
X-0615900Y0116300D01*
X-0575900Y0110050D01*
Y0122550D01*
G01X-0597261Y0289100D02*
Y0320900D01*
X-0601981Y0314540D01*
G01Y0289100D02*
X-0592542D01*
G01X-0561041D02*
Y0320900D01*
X-0575595Y0298110D01*
X-0555927D01*
G01X-0534261Y0288040D02*
X-0535048Y0288570D01*
Y0289630D01*
X-0534261Y0290160D01*
X-0533474Y0289630D01*
Y0288570D01*
X-0534261Y0288040D01*
G01X-0511414Y0293869D02*
X-0509055Y0291220D01*
X-0506301Y0289630D01*
X-0502761Y0289100D01*
X-0499221Y0290160D01*
X-0496468Y0292279D01*
X-0494501Y0295989D01*
X-0494108Y0300230D01*
X-0494894Y0304470D01*
X-0496861Y0307120D01*
X-0499615Y0309240D01*
X-0502367Y0309769D01*
X-0505121Y0309240D01*
X-0508661Y0307120D01*
X-0507481Y0320900D01*
X-0496861D01*
G01X-0615000Y0256000D02*
Y0330000D01*
G01X-0632911Y0305000D02*
X-0615000D01*
G01X-0575000Y0311250D02*
X-0615000Y0305000D01*
X-0575000Y0298750D01*
Y0311250D01*
G01X-0633961Y0379100D02*
Y0410900D01*
X-0638681Y0404540D01*
G01Y0379100D02*
X-0629242D01*
G01X-0597741D02*
Y0410900D01*
X-0612295Y0388110D01*
X-0592627D01*
G01X-0570961Y0378040D02*
X-0571748Y0378570D01*
Y0379630D01*
X-0570961Y0380160D01*
X-0570174Y0379630D01*
Y0378570D01*
X-0570961Y0378040D01*
G01X-0548114Y0383869D02*
X-0545755Y0381220D01*
X-0543001Y0379630D01*
X-0539461Y0379100D01*
X-0535921Y0380160D01*
X-0533168Y0382279D01*
X-0531201Y0385989D01*
X-0530808Y0390230D01*
X-0531594Y0394470D01*
X-0533561Y0397120D01*
X-0536315Y0399240D01*
X-0539067Y0399769D01*
X-0541821Y0399240D01*
X-0545361Y0397120D01*
X-0544181Y0410900D01*
X-0533561D01*
G01X-0634361Y0416100D02*
Y0447900D01*
X-0639081Y0441540D01*
G01Y0416100D02*
X-0629642D01*
G01X-0598141D02*
Y0447900D01*
X-0612695Y0425110D01*
X-0593027D01*
G01X-0571361Y0415040D02*
X-0572148Y0415570D01*
Y0416630D01*
X-0571361Y0417160D01*
X-0570574Y0416630D01*
Y0415570D01*
X-0571361Y0415040D01*
G01X-0548514Y0420869D02*
X-0546155Y0418220D01*
X-0543401Y0416630D01*
X-0539861Y0416100D01*
X-0536321Y0417160D01*
X-0533568Y0419279D01*
X-0531601Y0422989D01*
X-0531208Y0427230D01*
X-0531994Y0431470D01*
X-0533961Y0434120D01*
X-0536715Y0436240D01*
X-0539467Y0436769D01*
X-0542221Y0436240D01*
X-0545761Y0434120D01*
X-0544581Y0447900D01*
X-0533961D01*
G01X-0632000Y0724000D02*
Y0898000D01*
G01X-0221665Y0873000D02*
X-0632000D01*
G01X-0592000Y0879250D02*
X-0632000Y0873000D01*
X-0592000Y0866750D01*
Y0879250D01*
G01X-0571000Y-0198261D02*
Y-0223500D01*
G01X-0577250Y-0183500D02*
X-0571000Y-0223500D01*
X-0564750Y-0183500D01*
X-0577250D01*
G01X-0573300Y-0219500D02*
X-0499300D01*
G01X-0524300Y-0194261D02*
Y-0219500D01*
G01X-0530550Y-0179500D02*
X-0524300Y-0219500D01*
X-0518050Y-0179500D01*
X-0530550D01*
G01X-0571000Y-0118761D02*
Y-0078500D01*
G01X-0564750Y-0118500D02*
X-0571000Y-0078500D01*
X-0577250Y-0118500D01*
X-0564750D01*
G01X-0573300Y-0074500D02*
X-0499300D01*
G01X-0524300Y-0114761D02*
Y-0074500D01*
G01X-0518050Y-0114500D02*
X-0524300Y-0074500D01*
X-0530550Y-0114500D01*
X-0518050D01*
G01X-0581600Y0022839D02*
Y-0002400D01*
G01Y0102339D02*
Y0142600D01*
G01X-0540100Y0216800D02*
Y0290800D01*
G01X-0537211Y0265800D02*
X-0540100D01*
G01X-0580100Y0259550D02*
X-0540100Y0265800D01*
X-0580100Y0272050D01*
Y0259550D01*
G01X-0546700Y0388750D02*
X-0506700Y0395000D01*
X-0546700Y0401250D01*
Y0388750D01*
G01X-0547100Y0425750D02*
X-0507100Y0432000D01*
X-0547100Y0438250D01*
Y0425750D01*
G01X-0476600Y-0219600D02*
X-0402600D01*
G01X-0474850Y-0170511D02*
Y-0138711D01*
X-0479570Y-0145071D01*
G01Y-0170511D02*
X-0470131D01*
G01X-0438630D02*
Y-0138711D01*
X-0453184Y-0161501D01*
X-0433516D01*
G01X-0411850Y-0171571D02*
X-0412637Y-0171041D01*
Y-0169981D01*
X-0411850Y-0169451D01*
X-0411063Y-0169981D01*
Y-0171041D01*
X-0411850Y-0171571D01*
G01X-0389003Y-0165742D02*
X-0386644Y-0168391D01*
X-0383890Y-0169981D01*
X-0380350Y-0170511D01*
X-0376810Y-0169451D01*
X-0374057Y-0167332D01*
X-0372090Y-0163622D01*
X-0371697Y-0159381D01*
X-0372483Y-0155141D01*
X-0374450Y-0152491D01*
X-0377204Y-0150371D01*
X-0379956Y-0149842D01*
X-0382710Y-0150371D01*
X-0386250Y-0152491D01*
X-0385070Y-0138711D01*
X-0374450D01*
G01X-0476600Y-0074600D02*
X-0402600D01*
G01X-0470900Y0067300D02*
Y0141300D01*
G01X-0468011Y0116300D02*
X-0470900D01*
G01X-0510900Y0110050D02*
X-0470900Y0116300D01*
X-0510900Y0122550D01*
Y0110050D01*
G01X-0470000Y0256000D02*
Y0330000D01*
G01X-0506700Y0346000D02*
Y0420000D01*
G01X-0467111Y0305000D02*
X-0470000D01*
G01X-0510000Y0298750D02*
X-0470000Y0305000D01*
X-0510000Y0311250D01*
Y0298750D01*
G01X-0503811Y0395000D02*
X-0506700D01*
G01X-0507100Y0383000D02*
Y0457000D01*
G01X-0504211Y0432000D02*
X-0507100D01*
G01X-0427600Y-0194361D02*
Y-0219600D01*
G01X-0433850Y-0179600D02*
X-0427600Y-0219600D01*
X-0421350Y-0179600D01*
X-0433850D01*
G01X-0427600Y-0114861D02*
Y-0074600D01*
G01X-0421350Y-0114600D02*
X-0427600Y-0074600D01*
X-0433850Y-0114600D01*
X-0421350D01*
G01X-0386911Y-0015000D02*
X-0369000D01*
G01X-0386911Y0025000D02*
X-0369000D01*
G01X-0375250Y0621089D02*
Y0652889D01*
X-0379970Y0646529D01*
G01Y0621089D02*
X-0370531D01*
G01X-0339030D02*
Y0652889D01*
X-0353584Y0630099D01*
X-0333916D01*
G01X-0312250Y0620029D02*
X-0313037Y0620559D01*
Y0621619D01*
X-0312250Y0622149D01*
X-0311463Y0621619D01*
Y0620559D01*
X-0312250Y0620029D01*
G01X-0289403Y0625858D02*
X-0287044Y0623209D01*
X-0284290Y0621619D01*
X-0280750Y0621089D01*
X-0277210Y0622149D01*
X-0274457Y0624268D01*
X-0272490Y0627978D01*
X-0272097Y0632219D01*
X-0272883Y0636459D01*
X-0274850Y0639109D01*
X-0277604Y0641229D01*
X-0280356Y0641758D01*
X-0283110Y0641229D01*
X-0286650Y0639109D01*
X-0285470Y0652889D01*
X-0274850D01*
G01X-0369000Y-0064000D02*
Y0010000D01*
G01X-0366300Y-0001900D02*
X-0292300D01*
G01X-0317300Y0023339D02*
Y-0001900D01*
G01X-0323550Y0038100D02*
X-0317300Y-0001900D01*
X-0311050Y0038100D01*
X-0323550D01*
G01X-0351261Y0009100D02*
Y0040900D01*
X-0355981Y0034540D01*
G01Y0009100D02*
X-0346542D01*
G01X-0315041D02*
Y0040900D01*
X-0329595Y0018110D01*
X-0309927D01*
G01X-0288261Y0008040D02*
X-0289048Y0008570D01*
Y0009630D01*
X-0288261Y0010160D01*
X-0287474Y0009630D01*
Y0008570D01*
X-0288261Y0008040D01*
G01X-0265414Y0013869D02*
X-0263055Y0011220D01*
X-0260301Y0009630D01*
X-0256761Y0009100D01*
X-0253221Y0010160D01*
X-0250468Y0012279D01*
X-0248501Y0015989D01*
X-0248108Y0020230D01*
X-0248894Y0024470D01*
X-0250861Y0027120D01*
X-0253615Y0029240D01*
X-0256367Y0029769D01*
X-0259121Y0029240D01*
X-0262661Y0027120D01*
X-0261481Y0040900D01*
X-0250861D01*
G01X-0369000Y-0024000D02*
Y0050000D01*
G01X-0329900Y-0001700D02*
X-0255900D01*
G01X-0351261Y-0030900D02*
Y0000900D01*
X-0355981Y-0005460D01*
G01Y-0030900D02*
X-0346542D01*
G01X-0315041D02*
Y0000900D01*
X-0329595Y-0021890D01*
X-0309927D01*
G01X-0288261Y-0031960D02*
X-0289048Y-0031430D01*
Y-0030370D01*
X-0288261Y-0029840D01*
X-0287474Y-0030370D01*
Y-0031430D01*
X-0288261Y-0031960D01*
G01X-0265414Y-0026131D02*
X-0263055Y-0028780D01*
X-0260301Y-0030370D01*
X-0256761Y-0030900D01*
X-0253221Y-0029840D01*
X-0250468Y-0027721D01*
X-0248501Y-0024011D01*
X-0248108Y-0019770D01*
X-0248894Y-0015530D01*
X-0250861Y-0012880D01*
X-0253615Y-0010760D01*
X-0256367Y-0010231D01*
X-0259121Y-0010760D01*
X-0262661Y-0012880D01*
X-0261481Y0000900D01*
X-0250861D01*
G01X-0329000Y-0008750D02*
X-0369000Y-0015000D01*
X-0329000Y-0021250D01*
Y-0008750D01*
G01X-0364550Y0047189D02*
Y0078989D01*
X-0369270Y0072629D01*
G01Y0047189D02*
X-0359831D01*
G01X-0328330D02*
Y0078989D01*
X-0342884Y0056199D01*
X-0323216D01*
G01X-0301550Y0046129D02*
X-0302337Y0046659D01*
Y0047719D01*
X-0301550Y0048249D01*
X-0300763Y0047719D01*
Y0046659D01*
X-0301550Y0046129D01*
G01X-0278703Y0051958D02*
X-0276344Y0049309D01*
X-0273590Y0047719D01*
X-0270050Y0047189D01*
X-0266510Y0048249D01*
X-0263757Y0050368D01*
X-0261790Y0054078D01*
X-0261397Y0058319D01*
X-0262183Y0062559D01*
X-0264150Y0065209D01*
X-0266904Y0067329D01*
X-0269656Y0067858D01*
X-0272410Y0067329D01*
X-0275950Y0065209D01*
X-0274770Y0078989D01*
X-0264150D01*
G01X-0329000Y0031250D02*
X-0369000Y0025000D01*
X-0329000Y0018750D01*
Y0031250D01*
G01X-0328150Y0047389D02*
Y0079189D01*
X-0332870Y0072829D01*
G01Y0047389D02*
X-0323431D01*
G01X-0291930D02*
Y0079189D01*
X-0306484Y0056399D01*
X-0286816D01*
G01X-0265150Y0046329D02*
X-0265937Y0046859D01*
Y0047919D01*
X-0265150Y0048449D01*
X-0264363Y0047919D01*
Y0046859D01*
X-0265150Y0046329D01*
G01X-0242303Y0052158D02*
X-0239944Y0049509D01*
X-0237190Y0047919D01*
X-0233650Y0047389D01*
X-0230110Y0048449D01*
X-0227357Y0050568D01*
X-0225390Y0054278D01*
X-0224997Y0058519D01*
X-0225783Y0062759D01*
X-0227750Y0065409D01*
X-0230504Y0067529D01*
X-0233256Y0068058D01*
X-0236010Y0067529D01*
X-0239550Y0065409D01*
X-0238370Y0079189D01*
X-0227750D01*
G01X-0366300Y0143100D02*
X-0292300D01*
G01X-0317300Y0102839D02*
Y0143100D01*
G01X-0311050Y0103100D02*
X-0317300Y0143100D01*
X-0323550Y0103100D01*
X-0311050D01*
G01X-0329900Y0143300D02*
X-0255900D01*
G01X-0377000Y0572000D02*
X-0303000D01*
G01X-0328000Y0597239D02*
Y0572000D01*
G01X-0334250Y0612000D02*
X-0328000Y0572000D01*
X-0321750Y0612000D01*
X-0334250D01*
G01X-0328000Y0676739D02*
Y0717000D01*
G01X-0321750Y0677000D02*
X-0328000Y0717000D01*
X-0334250Y0677000D01*
X-0321750D01*
G01X-0377000Y0717000D02*
X-0303000D01*
G01X-0255800Y-0000800D02*
X-0181800D01*
G01X-0280900Y0023539D02*
Y-0001700D01*
G01X-0287150Y0038300D02*
X-0280900Y-0001700D01*
X-0274650Y0038300D01*
X-0287150D01*
G01X-0293300Y-0001600D02*
X-0219300D01*
G01X-0264000Y-0021250D02*
X-0224000Y-0015000D01*
X-0264000Y-0008750D01*
Y-0021250D01*
G01Y0018750D02*
X-0224000Y0025000D01*
X-0264000Y0031250D01*
Y0018750D01*
G01X-0254050Y0048289D02*
Y0080089D01*
X-0258770Y0073729D01*
G01Y0048289D02*
X-0249331D01*
G01X-0217830D02*
Y0080089D01*
X-0232384Y0057299D01*
X-0212716D01*
G01X-0191050Y0047229D02*
X-0191837Y0047759D01*
Y0048819D01*
X-0191050Y0049349D01*
X-0190263Y0048819D01*
Y0047759D01*
X-0191050Y0047229D01*
G01X-0168203Y0053058D02*
X-0165844Y0050409D01*
X-0163090Y0048819D01*
X-0159550Y0048289D01*
X-0156010Y0049349D01*
X-0153257Y0051468D01*
X-0151290Y0055178D01*
X-0150897Y0059419D01*
X-0151683Y0063659D01*
X-0153650Y0066309D01*
X-0156404Y0068429D01*
X-0159156Y0068958D01*
X-0161910Y0068429D01*
X-0165450Y0066309D01*
X-0164270Y0080089D01*
X-0153650D01*
G01X-0291550Y0047489D02*
Y0079289D01*
X-0296270Y0072929D01*
G01Y0047489D02*
X-0286831D01*
G01X-0255330D02*
Y0079289D01*
X-0269884Y0056499D01*
X-0250216D01*
G01X-0228550Y0046429D02*
X-0229337Y0046959D01*
Y0048019D01*
X-0228550Y0048549D01*
X-0227763Y0048019D01*
Y0046959D01*
X-0228550Y0046429D01*
G01X-0205703Y0052258D02*
X-0203344Y0049609D01*
X-0200590Y0048019D01*
X-0197050Y0047489D01*
X-0193510Y0048549D01*
X-0190757Y0050668D01*
X-0188790Y0054378D01*
X-0188397Y0058619D01*
X-0189183Y0062859D01*
X-0191150Y0065509D01*
X-0193904Y0067629D01*
X-0196656Y0068158D01*
X-0199410Y0067629D01*
X-0202950Y0065509D01*
X-0201770Y0079289D01*
X-0191150D01*
G01X-0250550Y0038400D02*
X-0244300Y-0001600D01*
X-0238050Y0038400D01*
X-0250550D01*
G01X-0255800Y0144200D02*
X-0181800D01*
G01X-0280900Y0103039D02*
Y0143300D01*
G01X-0274650Y0103300D02*
X-0280900Y0143300D01*
X-0287150Y0103300D01*
X-0274650D01*
G01X-0293300Y0143400D02*
X-0219300D01*
G01X-0238050Y0103400D02*
X-0244300Y0143400D01*
X-0250550Y0103400D01*
X-0238050D01*
G01X-0240550Y0517789D02*
Y0549589D01*
X-0245270Y0543229D01*
G01Y0517789D02*
X-0235831D01*
G01X-0204330D02*
Y0549589D01*
X-0218884Y0526799D01*
X-0199216D01*
G01X-0177550Y0516729D02*
X-0178337Y0517259D01*
Y0518319D01*
X-0177550Y0518849D01*
X-0176763Y0518319D01*
Y0517259D01*
X-0177550Y0516729D01*
G01X-0154703Y0522558D02*
X-0152344Y0519909D01*
X-0149590Y0518319D01*
X-0146050Y0517789D01*
X-0142510Y0518849D01*
X-0139757Y0520968D01*
X-0137790Y0524678D01*
X-0137397Y0528919D01*
X-0138183Y0533159D01*
X-0140150Y0535809D01*
X-0142904Y0537929D01*
X-0145656Y0538458D01*
X-0148410Y0537929D01*
X-0151950Y0535809D01*
X-0150770Y0549589D01*
X-0140150D01*
G01X-0280250Y0621089D02*
Y0652889D01*
X-0284970Y0646529D01*
G01Y0621089D02*
X-0275531D01*
G01X-0244030D02*
Y0652889D01*
X-0258584Y0630099D01*
X-0238916D01*
G01X-0217250Y0620029D02*
X-0218037Y0620559D01*
Y0621619D01*
X-0217250Y0622149D01*
X-0216463Y0621619D01*
Y0620559D01*
X-0217250Y0620029D01*
G01X-0194403Y0625858D02*
X-0192044Y0623209D01*
X-0189290Y0621619D01*
X-0185750Y0621089D01*
X-0182210Y0622149D01*
X-0179457Y0624268D01*
X-0177490Y0627978D01*
X-0177097Y0632219D01*
X-0177883Y0636459D01*
X-0179850Y0639109D01*
X-0182604Y0641229D01*
X-0185356Y0641758D01*
X-0188110Y0641229D01*
X-0191650Y0639109D01*
X-0190470Y0652889D01*
X-0179850D01*
G01X-0282000Y0572000D02*
X-0208000D01*
G01X-0282000Y0717000D02*
X-0208000D01*
G01X-0224000Y-0064000D02*
Y0010000D01*
G01Y-0024000D02*
Y0050000D01*
G01X-0206800Y0024439D02*
Y-0000800D01*
G01X-0213050Y0039200D02*
X-0206800Y-0000800D01*
X-0200550Y0039200D01*
X-0213050D01*
G01X-0217400Y-0000300D02*
X-0143400D01*
G01X-0244300Y0023639D02*
Y-0001600D01*
G01X-0221111Y-0015000D02*
X-0224000D01*
G01X-0221111Y0025000D02*
X-0224000D01*
G01X-0215650Y0048789D02*
Y0080589D01*
X-0220370Y0074229D01*
G01Y0048789D02*
X-0210931D01*
G01X-0179430D02*
Y0080589D01*
X-0193984Y0057799D01*
X-0174316D01*
G01X-0152650Y0047729D02*
X-0153437Y0048259D01*
Y0049319D01*
X-0152650Y0049849D01*
X-0151863Y0049319D01*
Y0048259D01*
X-0152650Y0047729D01*
G01X-0129803Y0053558D02*
X-0127444Y0050909D01*
X-0124690Y0049319D01*
X-0121150Y0048789D01*
X-0117610Y0049849D01*
X-0114857Y0051968D01*
X-0112890Y0055678D01*
X-0112497Y0059919D01*
X-0113283Y0064159D01*
X-0115250Y0066809D01*
X-0118004Y0068929D01*
X-0120756Y0069458D01*
X-0123510Y0068929D01*
X-0127050Y0066809D01*
X-0125870Y0080589D01*
X-0115250D01*
G01X-0177950Y0049189D02*
Y0080989D01*
X-0182670Y0074629D01*
G01Y0049189D02*
X-0173231D01*
G01X-0141730D02*
Y0080989D01*
X-0156284Y0058199D01*
X-0136616D01*
G01X-0114950Y0048129D02*
X-0115737Y0048659D01*
Y0049719D01*
X-0114950Y0050249D01*
X-0114163Y0049719D01*
Y0048659D01*
X-0114950Y0048129D01*
G01X-0092103Y0053958D02*
X-0089744Y0051309D01*
X-0086990Y0049719D01*
X-0083450Y0049189D01*
X-0079910Y0050249D01*
X-0077157Y0052368D01*
X-0075190Y0056078D01*
X-0074797Y0060319D01*
X-0075583Y0064559D01*
X-0077550Y0067209D01*
X-0080304Y0069329D01*
X-0083056Y0069858D01*
X-0085810Y0069329D01*
X-0089350Y0067209D01*
X-0088170Y0080989D01*
X-0077550D01*
G01X-0206800Y0103939D02*
Y0144200D01*
G01X-0200550Y0104200D02*
X-0206800Y0144200D01*
X-0213050Y0104200D01*
X-0200550D01*
G01X-0217400Y0144700D02*
X-0143400D01*
G01X-0244300Y0103139D02*
Y0143400D01*
G01X-0242300Y0468700D02*
X-0168300D01*
G01X-0193300Y0493939D02*
Y0468700D01*
G01X-0199550Y0508700D02*
X-0193300Y0468700D01*
X-0187050Y0508700D01*
X-0199550D01*
G01X-0233000Y0597239D02*
Y0572000D01*
G01X-0239250Y0612000D02*
X-0233000Y0572000D01*
X-0226750Y0612000D01*
X-0239250D01*
G01X-0242300Y0613700D02*
X-0168300D01*
G01X-0193300Y0573439D02*
Y0613700D01*
G01X-0187050Y0573700D02*
X-0193300Y0613700D01*
X-0199550Y0573700D01*
X-0187050D01*
G01X-0233000Y0676739D02*
Y0717000D01*
G01X-0226750Y0677000D02*
X-0233000Y0717000D01*
X-0239250Y0677000D01*
X-0226750D01*
G01X-0185011Y0771100D02*
X-0167100D01*
G01X-0168400Y0024939D02*
Y-0000300D01*
G01X-0174650Y0039700D02*
X-0168400Y-0000300D01*
X-0162150Y0039700D01*
X-0174650D01*
G01X-0179700Y0000100D02*
X-0105700D01*
G01X-0130700Y0025339D02*
Y0000100D01*
G01X-0136950Y0040100D02*
X-0130700Y0000100D01*
X-0124450Y0040100D01*
X-0136950D01*
G01X-0168400Y0104439D02*
Y0144700D01*
G01X-0162150Y0104700D02*
X-0168400Y0144700D01*
X-0174650Y0104700D01*
X-0162150D01*
G01X-0179700Y0145100D02*
X-0105700D01*
G01X-0130700Y0104839D02*
Y0145100D01*
G01X-0124450Y0105100D02*
X-0130700Y0145100D01*
X-0136950Y0105100D01*
X-0124450D01*
G01X-0149361Y0755200D02*
Y0787000D01*
X-0154081Y0780640D01*
G01Y0755200D02*
X-0144642D01*
G01X-0113141D02*
Y0787000D01*
X-0127695Y0764210D01*
X-0108027D01*
G01X-0086361Y0754140D02*
X-0087148Y0754670D01*
Y0755730D01*
X-0086361Y0756260D01*
X-0085574Y0755730D01*
Y0754670D01*
X-0086361Y0754140D01*
G01X-0063514Y0759969D02*
X-0061155Y0757320D01*
X-0058401Y0755730D01*
X-0054861Y0755200D01*
X-0051321Y0756260D01*
X-0048568Y0758379D01*
X-0046601Y0762089D01*
X-0046208Y0766330D01*
X-0046994Y0770570D01*
X-0048961Y0773220D01*
X-0051715Y0775340D01*
X-0054467Y0775869D01*
X-0057221Y0775340D01*
X-0060761Y0773220D01*
X-0059581Y0787000D01*
X-0048961D01*
G01X-0167100Y0722100D02*
Y0796100D01*
G01X-0127100Y0777350D02*
X-0167100Y0771100D01*
X-0127100Y0764850D01*
Y0777350D01*
G01X-0062100Y0764850D02*
X-0022100Y0771100D01*
X-0062100Y0777350D01*
Y0764850D01*
G01X-0022100Y0722100D02*
Y0796100D01*
G01X-0019211Y0771100D02*
X-0022100D01*
G01X-0022461Y0873000D02*
X0472000D01*
G01X-0017398Y0944000D02*
X0562000D01*
G01X0076500Y-0411500D02*
X0150500D01*
G01X0078250Y-0362411D02*
Y-0330611D01*
X0073530Y-0336971D01*
G01Y-0362411D02*
X0082969D01*
G01X0114470D02*
Y-0330611D01*
X0099916Y-0353401D01*
X0119584D01*
G01X0141250Y-0363471D02*
X0140463Y-0362941D01*
Y-0361881D01*
X0141250Y-0361351D01*
X0142037Y-0361881D01*
Y-0362941D01*
X0141250Y-0363471D01*
G01X0164097Y-0357642D02*
X0166456Y-0360291D01*
X0169210Y-0361881D01*
X0172750Y-0362411D01*
X0176290Y-0361351D01*
X0179043Y-0359232D01*
X0181010Y-0355522D01*
X0181403Y-0351281D01*
X0180617Y-0347041D01*
X0178650Y-0344391D01*
X0175896Y-0342271D01*
X0173144Y-0341742D01*
X0170390Y-0342271D01*
X0166850Y-0344391D01*
X0168030Y-0330611D01*
X0178650D01*
G01X0076500Y-0266500D02*
X0150500D01*
G01X0093950Y0312589D02*
Y0344389D01*
X0089230Y0338029D01*
G01Y0312589D02*
X0098669D01*
G01X0130170D02*
Y0344389D01*
X0115616Y0321599D01*
X0135284D01*
G01X0156950Y0311529D02*
X0156163Y0312059D01*
Y0313119D01*
X0156950Y0313649D01*
X0157737Y0313119D01*
Y0312059D01*
X0156950Y0311529D01*
G01X0179797Y0317358D02*
X0182156Y0314709D01*
X0184910Y0313119D01*
X0188450Y0312589D01*
X0191990Y0313649D01*
X0194743Y0315768D01*
X0196710Y0319478D01*
X0197103Y0323719D01*
X0196317Y0327959D01*
X0194350Y0330609D01*
X0191596Y0332729D01*
X0188844Y0333258D01*
X0186090Y0332729D01*
X0182550Y0330609D01*
X0183730Y0344389D01*
X0194350D01*
G01X0125500Y-0386261D02*
Y-0411500D01*
G01X0119250Y-0371500D02*
X0125500Y-0411500D01*
X0131750Y-0371500D01*
X0119250D01*
G01X0125500Y-0306761D02*
Y-0266500D01*
G01X0131750Y-0306500D02*
X0125500Y-0266500D01*
X0119250Y-0306500D01*
X0131750D01*
G01X0092200Y0263500D02*
X0166200D01*
G01X0141200Y0288739D02*
Y0263500D01*
G01X0134950Y0303500D02*
X0141200Y0263500D01*
X0147450Y0303500D01*
X0134950D01*
G01X0135639Y0278500D02*
Y0310300D01*
X0130919Y0303940D01*
G01Y0278500D02*
X0140358D01*
G01X0171859D02*
Y0310300D01*
X0157305Y0287510D01*
X0176973D01*
G01X0198639Y0277440D02*
X0197852Y0277970D01*
Y0279030D01*
X0198639Y0279560D01*
X0199426Y0279030D01*
Y0277970D01*
X0198639Y0277440D01*
G01X0221486Y0283269D02*
X0223845Y0280620D01*
X0226599Y0279030D01*
X0230139Y0278500D01*
X0233679Y0279560D01*
X0236432Y0281679D01*
X0238399Y0285389D01*
X0238792Y0289630D01*
X0238006Y0293870D01*
X0236039Y0296520D01*
X0233285Y0298640D01*
X0230533Y0299169D01*
X0227779Y0298640D01*
X0224239Y0296520D01*
X0225419Y0310300D01*
X0236039D01*
G01X0117900Y0245400D02*
Y0319400D01*
G01X0125800Y0263200D02*
X0199800D01*
G01X0099989Y0294400D02*
X0117900D01*
G01X0157900Y0300650D02*
X0117900Y0294400D01*
X0157900Y0288150D01*
Y0300650D01*
G01X0127550Y0312289D02*
Y0344089D01*
X0122830Y0337729D01*
G01Y0312289D02*
X0132269D01*
G01X0163770D02*
Y0344089D01*
X0149216Y0321299D01*
X0168884D01*
G01X0190550Y0311229D02*
X0189763Y0311759D01*
Y0312819D01*
X0190550Y0313349D01*
X0191337Y0312819D01*
Y0311759D01*
X0190550Y0311229D01*
G01X0213397Y0317058D02*
X0215756Y0314409D01*
X0218510Y0312819D01*
X0222050Y0312289D01*
X0225590Y0313349D01*
X0228343Y0315468D01*
X0230310Y0319178D01*
X0230703Y0323419D01*
X0229917Y0327659D01*
X0227950Y0330309D01*
X0225196Y0332429D01*
X0222444Y0332958D01*
X0219690Y0332429D01*
X0216150Y0330309D01*
X0217330Y0344089D01*
X0227950D01*
G01X0092200Y0408500D02*
X0166200D01*
G01X0141200Y0368239D02*
Y0408500D01*
G01X0147450Y0368500D02*
X0141200Y0408500D01*
X0134950Y0368500D01*
X0147450D01*
G01X0125800Y0408200D02*
X0199800D01*
G01X0206589Y0024600D02*
X0224500D01*
G01X0174800Y0288439D02*
Y0263200D01*
G01X0168550Y0303200D02*
X0174800Y0263200D01*
X0181050Y0303200D01*
X0168550D01*
G01X0206789Y0349800D02*
X0224700D01*
G01X0174800Y0367939D02*
Y0408200D01*
G01X0181050Y0368200D02*
X0174800Y0408200D01*
X0168550Y0368200D01*
X0181050D01*
G01X0242239Y0008700D02*
Y0040500D01*
X0237519Y0034140D01*
G01Y0008700D02*
X0246958D01*
G01X0278459D02*
Y0040500D01*
X0263905Y0017710D01*
X0283573D01*
G01X0305239Y0007640D02*
X0304452Y0008170D01*
Y0009230D01*
X0305239Y0009760D01*
X0306026Y0009230D01*
Y0008170D01*
X0305239Y0007640D01*
G01X0328086Y0013469D02*
X0330445Y0010820D01*
X0333199Y0009230D01*
X0336739Y0008700D01*
X0340279Y0009760D01*
X0343032Y0011879D01*
X0344999Y0015589D01*
X0345392Y0019830D01*
X0344606Y0024070D01*
X0342639Y0026720D01*
X0339885Y0028840D01*
X0337133Y0029369D01*
X0334379Y0028840D01*
X0330839Y0026720D01*
X0332019Y0040500D01*
X0342639D01*
G01X0224500Y-0024400D02*
Y0049600D01*
G01X0264500Y0030850D02*
X0224500Y0024600D01*
X0264500Y0018350D01*
Y0030850D01*
G01X0262900Y0245400D02*
Y0319400D01*
G01X0265789Y0294400D02*
X0262900D01*
G01X0222900Y0288150D02*
X0262900Y0294400D01*
X0222900Y0300650D01*
Y0288150D01*
G01X0242439Y0333900D02*
Y0365700D01*
X0237719Y0359340D01*
G01Y0333900D02*
X0247158D01*
G01X0278659D02*
Y0365700D01*
X0264105Y0342910D01*
X0283773D01*
G01X0305439Y0332840D02*
X0304652Y0333370D01*
Y0334430D01*
X0305439Y0334960D01*
X0306226Y0334430D01*
Y0333370D01*
X0305439Y0332840D01*
G01X0328286Y0338669D02*
X0330645Y0336020D01*
X0333399Y0334430D01*
X0336939Y0333900D01*
X0340479Y0334960D01*
X0343232Y0337079D01*
X0345199Y0340789D01*
X0345592Y0345030D01*
X0344806Y0349270D01*
X0342839Y0351920D01*
X0340085Y0354040D01*
X0337333Y0354569D01*
X0334579Y0354040D01*
X0331039Y0351920D01*
X0332219Y0365700D01*
X0342839D01*
G01X0224700Y0300800D02*
Y0374800D01*
G01X0264700Y0356050D02*
X0224700Y0349800D01*
X0264700Y0343550D01*
Y0356050D01*
G01X0329500Y0018350D02*
X0369500Y0024600D01*
X0329500Y0030850D01*
Y0018350D01*
G01X0329700Y0343550D02*
X0369700Y0349800D01*
X0329700Y0356050D01*
Y0343550D01*
G01X0405450Y-0185211D02*
Y-0153411D01*
X0400730Y-0159771D01*
G01Y-0185211D02*
X0410169D01*
G01X0441670D02*
Y-0153411D01*
X0427116Y-0176201D01*
X0446784D01*
G01X0468450Y-0186271D02*
X0467663Y-0185741D01*
Y-0184681D01*
X0468450Y-0184151D01*
X0469237Y-0184681D01*
Y-0185741D01*
X0468450Y-0186271D01*
G01X0491297Y-0180442D02*
X0493656Y-0183091D01*
X0496410Y-0184681D01*
X0499950Y-0185211D01*
X0503490Y-0184151D01*
X0506243Y-0182032D01*
X0508210Y-0178322D01*
X0508603Y-0174081D01*
X0507817Y-0169841D01*
X0505850Y-0167191D01*
X0503096Y-0165071D01*
X0500344Y-0164542D01*
X0497590Y-0165071D01*
X0494050Y-0167191D01*
X0495230Y-0153411D01*
X0505850D01*
G01X0403700Y-0234300D02*
X0477700D01*
G01X0403700Y-0089300D02*
X0477700D01*
G01X0369500Y-0024400D02*
Y0049600D01*
G01X0372389Y0024600D02*
X0369500D01*
G01X0399450Y0140389D02*
Y0172189D01*
X0394730Y0165829D01*
G01Y0140389D02*
X0404169D01*
G01X0435670D02*
Y0172189D01*
X0421116Y0149399D01*
X0440784D01*
G01X0462450Y0139329D02*
X0461663Y0139859D01*
Y0140919D01*
X0462450Y0141449D01*
X0463237Y0140919D01*
Y0139859D01*
X0462450Y0139329D01*
G01X0485297Y0145158D02*
X0487656Y0142509D01*
X0490410Y0140919D01*
X0493950Y0140389D01*
X0497490Y0141449D01*
X0500243Y0143568D01*
X0502210Y0147278D01*
X0502603Y0151519D01*
X0501817Y0155759D01*
X0499850Y0158409D01*
X0497096Y0160529D01*
X0494344Y0161058D01*
X0491590Y0160529D01*
X0488050Y0158409D01*
X0489230Y0172189D01*
X0499850D01*
G01X0397700Y0091300D02*
X0471700D01*
G01X0397700Y0236300D02*
X0471700D01*
G01X0369700Y0300800D02*
Y0374800D01*
G01X0372589Y0349800D02*
X0369700D01*
G01X0406900Y0480800D02*
X0480900D01*
G01X0408650Y0529889D02*
Y0561689D01*
X0403930Y0555329D01*
G01Y0529889D02*
X0413369D01*
G01X0444870D02*
Y0561689D01*
X0430316Y0538899D01*
X0449984D01*
G01X0471650Y0528829D02*
X0470863Y0529359D01*
Y0530419D01*
X0471650Y0530949D01*
X0472437Y0530419D01*
Y0529359D01*
X0471650Y0528829D01*
G01X0494497Y0534658D02*
X0496856Y0532009D01*
X0499610Y0530419D01*
X0503150Y0529889D01*
X0506690Y0530949D01*
X0509443Y0533068D01*
X0511410Y0536778D01*
X0511803Y0541019D01*
X0511017Y0545259D01*
X0509050Y0547909D01*
X0506296Y0550029D01*
X0503544Y0550558D01*
X0500790Y0550029D01*
X0497250Y0547909D01*
X0498430Y0561689D01*
X0509050D01*
G01X0406900Y0625800D02*
X0480900D01*
G01X0475450Y-0185511D02*
Y-0153711D01*
X0470730Y-0160071D01*
G01Y-0185511D02*
X0480169D01*
G01X0511670D02*
Y-0153711D01*
X0497116Y-0176501D01*
X0516784D01*
G01X0538450Y-0186571D02*
X0537663Y-0186041D01*
Y-0184981D01*
X0538450Y-0184451D01*
X0539237Y-0184981D01*
Y-0186041D01*
X0538450Y-0186571D01*
G01X0561297Y-0180742D02*
X0563656Y-0183391D01*
X0566410Y-0184981D01*
X0569950Y-0185511D01*
X0573490Y-0184451D01*
X0576243Y-0182332D01*
X0578210Y-0178622D01*
X0578603Y-0174381D01*
X0577817Y-0170141D01*
X0575850Y-0167491D01*
X0573096Y-0165371D01*
X0570344Y-0164842D01*
X0567590Y-0165371D01*
X0564050Y-0167491D01*
X0565230Y-0153711D01*
X0575850D01*
G01X0473700Y-0234600D02*
X0547700D01*
G01X0439750Y-0185211D02*
Y-0153411D01*
X0435030Y-0159771D01*
G01Y-0185211D02*
X0444469D01*
G01X0475970D02*
Y-0153411D01*
X0461416Y-0176201D01*
X0481084D01*
G01X0502750Y-0186271D02*
X0501963Y-0185741D01*
Y-0184681D01*
X0502750Y-0184151D01*
X0503537Y-0184681D01*
Y-0185741D01*
X0502750Y-0186271D01*
G01X0525597Y-0180442D02*
X0527956Y-0183091D01*
X0530710Y-0184681D01*
X0534250Y-0185211D01*
X0537790Y-0184151D01*
X0540543Y-0182032D01*
X0542510Y-0178322D01*
X0542903Y-0174081D01*
X0542117Y-0169841D01*
X0540150Y-0167191D01*
X0537396Y-0165071D01*
X0534644Y-0164542D01*
X0531890Y-0165071D01*
X0528350Y-0167191D01*
X0529530Y-0153411D01*
X0540150D01*
G01X0438000Y-0234300D02*
X0512000D01*
G01X0480750Y-0194300D02*
X0487000Y-0234300D01*
X0493250Y-0194300D01*
X0480750D01*
G01X0452700Y-0209061D02*
Y-0234300D01*
G01X0446450Y-0194300D02*
X0452700Y-0234300D01*
X0458950Y-0194300D01*
X0446450D01*
G01X0493250Y-0129300D02*
X0487000Y-0089300D01*
X0480750Y-0129300D01*
X0493250D01*
G01X0452700Y-0129561D02*
Y-0089300D01*
G01X0458950Y-0129300D02*
X0452700Y-0089300D01*
X0446450Y-0129300D01*
X0458950D01*
G01X0473700Y-0089600D02*
X0547700D01*
G01X0438000Y-0089300D02*
X0512000D01*
G01X0482950Y0140089D02*
Y0171889D01*
X0478230Y0165529D01*
G01Y0140089D02*
X0487669D01*
G01X0519170D02*
Y0171889D01*
X0504616Y0149099D01*
X0524284D01*
G01X0545950Y0139029D02*
X0545163Y0139559D01*
Y0140619D01*
X0545950Y0141149D01*
X0546737Y0140619D01*
Y0139559D01*
X0545950Y0139029D01*
G01X0568797Y0144858D02*
X0571156Y0142209D01*
X0573910Y0140619D01*
X0577450Y0140089D01*
X0580990Y0141149D01*
X0583743Y0143268D01*
X0585710Y0146978D01*
X0586103Y0151219D01*
X0585317Y0155459D01*
X0583350Y0158109D01*
X0580596Y0160229D01*
X0577844Y0160758D01*
X0575090Y0160229D01*
X0571550Y0158109D01*
X0572730Y0171889D01*
X0583350D01*
G01X0481200Y0091000D02*
X0555200D01*
G01X0446700Y0116539D02*
Y0091300D01*
G01X0440450Y0131300D02*
X0446700Y0091300D01*
X0452950Y0131300D01*
X0440450D01*
G01X0440250Y0140789D02*
Y0172589D01*
X0435530Y0166229D01*
G01Y0140789D02*
X0444969D01*
G01X0476470D02*
Y0172589D01*
X0461916Y0149799D01*
X0481584D01*
G01X0503250Y0139729D02*
X0502463Y0140259D01*
Y0141319D01*
X0503250Y0141849D01*
X0504037Y0141319D01*
Y0140259D01*
X0503250Y0139729D01*
G01X0526097Y0145558D02*
X0528456Y0142909D01*
X0531210Y0141319D01*
X0534750Y0140789D01*
X0538290Y0141849D01*
X0541043Y0143968D01*
X0543010Y0147678D01*
X0543403Y0151919D01*
X0542617Y0156159D01*
X0540650Y0158809D01*
X0537896Y0160929D01*
X0535144Y0161458D01*
X0532390Y0160929D01*
X0528850Y0158809D01*
X0530030Y0172589D01*
X0540650D01*
G01X0438500Y0091700D02*
X0512500D01*
G01X0481250Y0131700D02*
X0487500Y0091700D01*
X0493750Y0131700D01*
X0481250D01*
G01X0446700Y0196039D02*
Y0236300D01*
G01X0452950Y0196300D02*
X0446700Y0236300D01*
X0440450Y0196300D01*
X0452950D01*
G01X0493750Y0196700D02*
X0487500Y0236700D01*
X0481250Y0196700D01*
X0493750D01*
G01X0481200Y0236000D02*
X0555200D01*
G01X0438500Y0236700D02*
X0512500D01*
G01X0455900Y0506039D02*
Y0480800D01*
G01X0449650Y0520800D02*
X0455900Y0480800D01*
X0462150Y0520800D01*
X0449650D01*
G01X0476000Y0460000D02*
X0550000D01*
G01X0477750Y0509089D02*
Y0540889D01*
X0473030Y0534529D01*
G01Y0509089D02*
X0482469D01*
G01X0513970D02*
Y0540889D01*
X0499416Y0518099D01*
X0519084D01*
G01X0540750Y0508029D02*
X0539963Y0508559D01*
Y0509619D01*
X0540750Y0510149D01*
X0541537Y0509619D01*
Y0508559D01*
X0540750Y0508029D01*
G01X0563597Y0513858D02*
X0565956Y0511209D01*
X0568710Y0509619D01*
X0572250Y0509089D01*
X0575790Y0510149D01*
X0578543Y0512268D01*
X0580510Y0515978D01*
X0580903Y0520219D01*
X0580117Y0524459D01*
X0578150Y0527109D01*
X0575396Y0529229D01*
X0572644Y0529758D01*
X0569890Y0529229D01*
X0566350Y0527109D01*
X0567530Y0540889D01*
X0578150D01*
G01X0455900Y0585539D02*
Y0625800D01*
G01X0462150Y0585800D02*
X0455900Y0625800D01*
X0449650Y0585800D01*
X0462150D01*
G01X0476000Y0605000D02*
X0550000D01*
G01X0472000Y0724000D02*
Y0898000D01*
G01X0432000Y0866750D02*
X0472000Y0873000D01*
X0432000Y0879250D01*
Y0866750D01*
G01X0522700Y-0209361D02*
Y-0234600D01*
G01X0516450Y-0194600D02*
X0522700Y-0234600D01*
X0528950Y-0194600D01*
X0516450D01*
G01X0487000Y-0209061D02*
Y-0234300D01*
G01X0553350Y-0188011D02*
Y-0156211D01*
X0548630Y-0162571D01*
G01Y-0188011D02*
X0558069D01*
G01X0589570D02*
Y-0156211D01*
X0575016Y-0179001D01*
X0594684D01*
G01X0616350Y-0189071D02*
X0615563Y-0188541D01*
Y-0187481D01*
X0616350Y-0186951D01*
X0617137Y-0187481D01*
Y-0188541D01*
X0616350Y-0189071D01*
G01X0639197Y-0183242D02*
X0641556Y-0185891D01*
X0644310Y-0187481D01*
X0647850Y-0188011D01*
X0651390Y-0186951D01*
X0654143Y-0184832D01*
X0656110Y-0181122D01*
X0656503Y-0176881D01*
X0655717Y-0172641D01*
X0653750Y-0169991D01*
X0650996Y-0167871D01*
X0648244Y-0167342D01*
X0645490Y-0167871D01*
X0641950Y-0169991D01*
X0643130Y-0156211D01*
X0653750D01*
G01X0517550Y-0187011D02*
Y-0155211D01*
X0512830Y-0161571D01*
G01Y-0187011D02*
X0522269D01*
G01X0553770D02*
Y-0155211D01*
X0539216Y-0178001D01*
X0558884D01*
G01X0580550Y-0188071D02*
X0579763Y-0187541D01*
Y-0186481D01*
X0580550Y-0185951D01*
X0581337Y-0186481D01*
Y-0187541D01*
X0580550Y-0188071D01*
G01X0603397Y-0182242D02*
X0605756Y-0184891D01*
X0608510Y-0186481D01*
X0612050Y-0187011D01*
X0615590Y-0185951D01*
X0618343Y-0183832D01*
X0620310Y-0180122D01*
X0620703Y-0175881D01*
X0619917Y-0171641D01*
X0617950Y-0168991D01*
X0615196Y-0166871D01*
X0612444Y-0166342D01*
X0609690Y-0166871D01*
X0606150Y-0168991D01*
X0607330Y-0155211D01*
X0617950D01*
G01X0515800Y-0236100D02*
X0589800D01*
G01X0522700Y-0129861D02*
Y-0089600D01*
G01X0528950Y-0129600D02*
X0522700Y-0089600D01*
X0516450Y-0129600D01*
X0528950D01*
G01X0487000Y-0129561D02*
Y-0089300D01*
G01X0515800Y-0091100D02*
X0589800D01*
G01X0530200Y0116239D02*
Y0091000D01*
G01X0523950Y0131000D02*
X0530200Y0091000D01*
X0536450Y0131000D01*
X0523950D01*
G01X0487500Y0116939D02*
Y0091700D01*
G01X0524550Y0139189D02*
Y0170989D01*
X0519830Y0164629D01*
G01Y0139189D02*
X0529269D01*
G01X0560770D02*
Y0170989D01*
X0546216Y0148199D01*
X0565884D01*
G01X0587550Y0138129D02*
X0586763Y0138659D01*
Y0139719D01*
X0587550Y0140249D01*
X0588337Y0139719D01*
Y0138659D01*
X0587550Y0138129D01*
G01X0610397Y0143958D02*
X0612756Y0141309D01*
X0615510Y0139719D01*
X0619050Y0139189D01*
X0622590Y0140249D01*
X0625343Y0142368D01*
X0627310Y0146078D01*
X0627703Y0150319D01*
X0626917Y0154559D01*
X0624950Y0157209D01*
X0622196Y0159329D01*
X0619444Y0159858D01*
X0616690Y0159329D01*
X0613150Y0157209D01*
X0614330Y0170989D01*
X0624950D01*
G01X0522800Y0090100D02*
X0596800D01*
G01X0530200Y0195739D02*
Y0236000D01*
G01X0536450Y0196000D02*
X0530200Y0236000D01*
X0523950Y0196000D01*
X0536450D01*
G01X0487500Y0196439D02*
Y0236700D01*
G01X0522800Y0235100D02*
X0596800D01*
G01X0547000Y0461000D02*
X0621000D01*
G01X0525000Y0485239D02*
Y0460000D01*
G01X0518750Y0500000D02*
X0525000Y0460000D01*
X0531250Y0500000D01*
X0518750D01*
G01X0548750Y0510089D02*
Y0541889D01*
X0544030Y0535529D01*
G01Y0510089D02*
X0553469D01*
G01X0584970D02*
Y0541889D01*
X0570416Y0519099D01*
X0590084D01*
G01X0611750Y0509029D02*
X0610963Y0509559D01*
Y0510619D01*
X0611750Y0511149D01*
X0612537Y0510619D01*
Y0509559D01*
X0611750Y0509029D01*
G01X0634597Y0514858D02*
X0636956Y0512209D01*
X0639710Y0510619D01*
X0643250Y0510089D01*
X0646790Y0511149D01*
X0649543Y0513268D01*
X0651510Y0516978D01*
X0651903Y0521219D01*
X0651117Y0525459D01*
X0649150Y0528109D01*
X0646396Y0530229D01*
X0643644Y0530758D01*
X0640890Y0530229D01*
X0637350Y0528109D01*
X0638530Y0541889D01*
X0649150D01*
G01X0547000Y0606000D02*
X0621000D01*
G01X0525000Y0564739D02*
Y0605000D01*
G01X0531250Y0565000D02*
X0525000Y0605000D01*
X0518750Y0565000D01*
X0531250D01*
G01X0522000Y0937750D02*
X0562000Y0944000D01*
X0522000Y0950250D01*
Y0937750D01*
G01X0551600Y-0237100D02*
X0625600D01*
G01X0600600Y-0211861D02*
Y-0237100D01*
G01X0594350Y-0197100D02*
X0600600Y-0237100D01*
X0606850Y-0197100D01*
X0594350D01*
G01X0564800Y-0210861D02*
Y-0236100D01*
G01X0558550Y-0196100D02*
X0564800Y-0236100D01*
X0571050Y-0196100D01*
X0558550D01*
G01X0600600Y-0132361D02*
Y-0092100D01*
G01X0606850Y-0132100D02*
X0600600Y-0092100D01*
X0594350Y-0132100D01*
X0606850D01*
G01X0564800Y-0131361D02*
Y-0091100D01*
G01X0571050Y-0131100D02*
X0564800Y-0091100D01*
X0558550Y-0131100D01*
X0571050D01*
G01X0551600Y-0092100D02*
X0625600D01*
G01X0563850Y0138389D02*
Y0170189D01*
X0559130Y0163829D01*
G01Y0138389D02*
X0568569D01*
G01X0600070D02*
Y0170189D01*
X0585516Y0147399D01*
X0605184D01*
G01X0626850Y0137329D02*
X0626063Y0137859D01*
Y0138919D01*
X0626850Y0139449D01*
X0627637Y0138919D01*
Y0137859D01*
X0626850Y0137329D01*
G01X0649697Y0143158D02*
X0652056Y0140509D01*
X0654810Y0138919D01*
X0658350Y0138389D01*
X0661890Y0139449D01*
X0664643Y0141568D01*
X0666610Y0145278D01*
X0667003Y0149519D01*
X0666217Y0153759D01*
X0664250Y0156409D01*
X0661496Y0158529D01*
X0658744Y0159058D01*
X0655990Y0158529D01*
X0652450Y0156409D01*
X0653630Y0170189D01*
X0664250D01*
G01X0562100Y0089300D02*
X0636100D01*
G01X0611100Y0114539D02*
Y0089300D01*
G01X0604850Y0129300D02*
X0611100Y0089300D01*
X0617350Y0129300D01*
X0604850D01*
G01X0571800Y0115339D02*
Y0090100D01*
G01X0565550Y0130100D02*
X0571800Y0090100D01*
X0578050Y0130100D01*
X0565550D01*
G01X0611100Y0194039D02*
Y0234300D01*
G01X0617350Y0194300D02*
X0611100Y0234300D01*
X0604850Y0194300D01*
X0617350D01*
G01X0571800Y0194839D02*
Y0235100D01*
G01X0578050Y0195100D02*
X0571800Y0235100D01*
X0565550Y0195100D01*
X0578050D01*
G01X0562100Y0234300D02*
X0636100D01*
G01X0596000Y0486239D02*
Y0461000D01*
G01X0589750Y0501000D02*
X0596000Y0461000D01*
X0602250Y0501000D01*
X0589750D01*
G01X0596000Y0565739D02*
Y0606000D01*
G01X0602250Y0566000D02*
X0596000Y0606000D01*
X0589750Y0566000D01*
X0602250D01*
G01X0562000Y0743000D02*
Y0969000D01*
G01X0834000Y-0405000D02*
Y0295000D01*
X2093590D01*
Y-0405000D01*
X0834000D01*
G01Y-0341500D02*
X2093590D01*
G01X0834000Y-0278000D02*
X2093590D01*
G01X0834000Y-0214500D02*
X2093590D01*
G01X0834000Y-0151000D02*
X2093590D01*
G01X0834000Y-0087500D02*
X2093590D01*
G01X0834000Y-0024000D02*
X2093590D01*
G01X0834000Y0039500D02*
X2093590D01*
G01X0834000Y0103000D02*
X2093590D01*
G01X0834000Y0166500D02*
X2093590D01*
G01X0834000Y0230000D02*
X2093590D01*
G01X1062300Y0166500D02*
Y-0405000D01*
G01X1574010Y0166500D02*
Y-0405000D01*
G01X1896780Y0166500D02*
Y-0405000D01*
M02*
