M48
METRIC,LZ
T01C1.24
T02C1.
T03C.85
T04C.83
T05C.7
T06C.4
T07C3.25
;LEADER: 12 
;HEADER: PCB_Sender 
;CODE  : ASCII 
;FILE  : TFG_ECU_Telemetry_Sender_1v0-1-2.drl for  ... layers TOP and BOTTOM
;DESIGN: TFG_ECU_Telemetry_Sender_1v0.brd
;T01 Holesize 1. = 1.240000 Tolerance = +0.000000/-0.000000 PLATED MM Quantity = 3
;T02 Holesize 2. = 1.000000 Tolerance = +0.000000/-0.000000 PLATED MM Quantity = 21
;T03 Holesize 3. = 0.850000 Tolerance = +0.000000/-0.000000 PLATED MM Quantity = 6
;T04 Holesize 4. = 0.830000 Tolerance = +0.000000/-0.000000 PLATED MM Quantity = 12
;T05 Holesize 5. = 0.700000 Tolerance = +0.000000/-0.000000 PLATED MM Quantity = 100
;T06 Holesize 6. = 0.400000 Tolerance = +0.000000/-0.000000 PLATED MM Quantity = 1262
%
G90
T01
X-05561Y-01266
R02Y-00254
T02
X-0143Y01761
R02Y-0038
X-0143Y0062
R04Y-00381
X018Y01831
R02Y-0038
X018Y0069
R04Y-00381
X01798Y06951
R04Y-00254
T03
X-03425Y-05418
X-03425Y-04918
X-04324Y-06235
X-04824Y-06235
X-0341Y-06993
X-0341Y-07493
T04
X-04911Y-002058
R02X-00127
X-06077Y-001282
R02X00127
X-036042Y0706
R02Y-00127
X-035982Y06316
R02Y-00127
T05
X0007Y011
R07Y-0022
X0037Y0121
R07Y-0022
X-0125Y-0666
X-0195Y-0666
X-05983Y-00745
X-05983Y-02195
X-06935Y-00791
X-06935Y-02241
X04908Y-02361
X04908Y-00911
X03695Y-00494
X02245Y-00494
X04978Y00901
X04978Y02351
X-02047Y00001
X-02047Y01451
X-03183Y01434
X-03183Y-00016
X03697Y02758
X02247Y02758
X0413Y-00893
X0413Y-02343
X-02808Y-00008
X-02808Y01442
X03727Y02363
X03727Y00913
X-06556Y-00024
X-06556Y01426
X03787Y-02343
X03787Y-00893
X-02424Y01447
X-02424Y-00003
X-03549Y-00017
X-03549Y01433
X05266Y-00921
X05266Y-02371
X04135Y00917
X04135Y02367
X05371Y02343
X05371Y00893
X-0224Y-0049
X-0369Y-0049
X-0615Y0231
X-047Y0231
X-0224Y-0089
X-0369Y-0089
X-06517Y0321
X-05067Y0321
X-05016Y-02196
X-05016Y-00746
X-05401Y01918
X-06851Y01918
X-05071Y0358
X-06521Y0358
X-00221Y06971
X-01671Y06971
X-02673Y04687
X-02673Y06137
X-0402Y0717
X-0402Y0572
X-0307Y0717
X-0307Y0572
X00515Y-04115
X00515Y-02665
X-04709Y00423
X-06159Y00423
X01008Y02632
X01008Y04082
X02629Y02204
X01179Y02204
X03819Y06258
X03819Y04808
X-0645Y-02235
X-0645Y-00785
X0451Y0605
X0451Y046
X00672Y02635
X00672Y04085
X0522Y0461
X0522Y0606
X04487Y-00896
X04487Y-02346
X-03913Y-00019
X-03913Y01431
X04562Y0091
X04562Y0236
T06
X-01666Y03835
X-01666Y04851
X-01666Y04978
X-01666Y04216
X-03218Y04063
X-05995Y02308
X-0167Y03711
X-036404Y0481652
X-04595Y05284
X-04298Y04234
X-0385348Y0462348
X-04219Y0451
X-03397Y-01732
X00037Y04726
X03523Y04235
X-0245Y0231
X-02447Y02669
X-01663Y04595
X-03092Y02799
X-02159Y06139
X00398Y05788
X00031Y04973
X0084Y06946
X03892Y00268
X03034Y00228
X03035Y-00041
X-06254Y02627
X-04049Y04011
X-00243Y05325
X-009Y0451
R02X0018
X-009Y0433
R02X0018
X-009Y0415
R02X0018
X-0108Y0361
X-0126Y0361
X-0108Y0379
X-0126Y0379
X-0108Y0397
X-0126Y0397
X-0108Y0415
X-0126Y0415
X-0036Y0361
R03X-0018
X-0036Y0379
R03X-0018
X-0036Y0397
R03X-0018
X-0036Y0415
X-0018Y0361
R03Y0018
X-0108Y0433
X-0126Y0433
X-0108Y0451
X-0126Y0451
X-0108Y0469
X-0126Y0469
X-0108Y0487
X-0126Y0487
X-0108Y0505
X-0126Y0505
X-0036Y0433
R02Y0018
X-0054Y0469
R02X-0018
X-0036Y0487
R03X-0018
X-0036Y0505
R03X-0018
X-0018Y0433
R03Y0018
X-0022Y05
X-0145Y047
R02Y0018
X-0388Y0443
X-07Y-0316
X-034Y-049
X-034Y-075
X-064Y-083
X-066Y-083
X-068Y-081
X-07Y-079
X-056Y-083
R03X-002
X-056Y-081
X-058Y-081
X-056Y-079
X-05Y-083
R02X-002
X-05Y-081
R02X-002
X-05Y-079
R02X-002
X-042Y-083
R03X-002
X-042Y-081
R03X-002
X-042Y-079
R03X-002
X-034Y-083
R03X-002
X-034Y-081
R03X-002
X-034Y-079
R03X-002
X-032Y-083
R02Y002
X-07Y-077
R02Y002
X-056Y-077
R02Y002
X-05Y-077
R02X-002
X-05Y-075
R02X-002
X-05Y-073
R02X-002
X-042Y-077
R03X-002
X-042Y-075
R03X-002
X-042Y-073
R03X-002
X-034Y-077
R03X-002
X-036Y-075
R02X-002
X-034Y-073
R03X-002
X-032Y-077
R02Y002
X-068Y-071
X-07Y-071
X-064Y-069
R03X-002
X-064Y-067
R03X-002
X-064Y-065
R03X-002
X-056Y-071
X-058Y-071
X-056Y-069
R03X-002
X-056Y-067
R03X-002
X-056Y-065
R03X-002
X-05Y-071
R02X-002
X-05Y-069
R02X-002
X-05Y-067
R02X-002
X-05Y-065
R02X-002
X-042Y-071
R03X-002
X-042Y-069
R03X-002
X-046Y-067
X-048Y-067
X-048Y-065
X-04Y-071
X-04Y-069
X-064Y-063
R03X-002
X-064Y-061
R03X-002
X-064Y-059
R03X-002
X-064Y-057
R03X-002
X-056Y-063
R03X-002
X-056Y-061
R03X-002
X-056Y-059
R03X-002
X-056Y-057
R03X-002
X-05Y-063
R02X-002
X-05Y-061
R02X-002
X-05Y-059
R02X-002
X-05Y-057
R02X-002
X-048Y-061
X-042Y-059
R03X-002
X-042Y-057
R03X-002
X-04Y-057
X-064Y-055
R03X-002
X-064Y-053
R03X-002
X-064Y-051
R03X-002
X-064Y-049
R03X-002
X-056Y-055
R03X-002
X-056Y-053
R03X-002
X-056Y-051
R03X-002
X-056Y-049
R03X-002
X-05Y-055
R02X-002
X-05Y-053
R02X-002
X-05Y-051
R02X-002
X-05Y-049
R02X-002
X-042Y-055
R03X-002
X-042Y-053
R03X-002
X-042Y-051
R03X-002
X-042Y-049
R03X-002
X-04Y-055
X-04Y-053
X-038Y-051
X-04Y-051
X-036Y-049
R02X-002
X-032Y-049
X-068Y-047
X-07Y-047
X-068Y-045
X-07Y-045
X-068Y-043
X-07Y-043
X-068Y-041
X-07Y-041
X-034Y-047
R03X-002
X-034Y-045
R03X-002
X-034Y-043
R03X-002
X-034Y-041
R03X-002
X-032Y-047
R03Y002
X-068Y-039
X-07Y-039
X-068Y-037
X-07Y-037
X-068Y-035
X-07Y-035
X-064Y-033
R03X-002
X-056Y-033
R03X-002
X-05Y-033
R02X-002
X-042Y-033
X-048Y-033
X-038Y-039
X-04Y-039
X-04Y-037
R02Y002
X-064Y-031
R03X-002
X-064Y-029
R03X-002
X-064Y-027
R03X-002
X-056Y-031
R03X-002
X-056Y-029
R03X-002
X-056Y-027
R03X-002
X-05Y-031
R02X-002
X-05Y-029
R02X-002
X-05Y-027
R02X-002
X-042Y-031
X-048Y-031
X-042Y-029
R03X-002
X-042Y-027
R03X-002
X-04Y-031
R02Y002
X-064Y-025
R03X-002
X-056Y-025
R03X-002
X-05Y-025
R02X-002
X-042Y-025
R03X-002
X-04Y-025
X0356Y-0834
X0336Y-0834
X0356Y-0814
X0336Y-0814
X0356Y-0794
X0336Y-0794
X0416Y-0834
R02X-002
X0416Y-0814
R02X-002
X0416Y-0794
R02X-002
X0496Y-0834
R03X-002
X0436Y-0814
X0516Y-0814
X0356Y-0774
X0336Y-0774
X0356Y-0754
X0336Y-0754
X0356Y-0734
X0336Y-0734
X0356Y-0714
X0336Y-0714
X0396Y-0774
X0376Y-0774
X0396Y-0754
X0376Y-0754
X0396Y-0734
X0376Y-0734
X0416Y-0714
R02X-002
X0356Y-0694
X0336Y-0694
X0336Y-0674
X0336Y-0654
X0416Y-0694
R02X-002
X0496Y-0694
X0456Y-0694
X0436Y-0694
X0516Y-0694
X0516Y-0674
X0516Y-0654
X0336Y-0634
R03Y002
X0516Y-0634
R03Y002
X0336Y-0554
R03Y002
X0516Y-0554
R03Y002
X0336Y-0474
R03Y002
X0516Y-0474
R03Y002
X0336Y-0394
X0336Y-0374
X0356Y-0354
X0336Y-0354
X0416Y-0354
R02X-002
X0496Y-0354
R03X-002
X0516Y-0394
R02Y002
X-0269Y-0841
X-0289Y-0841
X-0269Y-0821
X-0289Y-0821
X-0189Y-0841
R03X-002
X-0189Y-0821
R03X-002
X-0109Y-0841
R03X-002
X-0109Y-0821
R03X-002
X-0029Y-0841
R03X-002
X-0029Y-0821
R03X-002
X0051Y-0841
R03X-002
X0051Y-0821
R03X-002
X0111Y-0841
R02X-002
X0111Y-0821
R02X-002
X0191Y-0841
R03X-002
X0191Y-0821
R03X-002
X0271Y-0841
R03X-002
X0271Y-0821
R03X-002
X0291Y-0841
X0291Y-0821
X0112Y-0402
X0092Y-0402
X0112Y-0382
X0092Y-0382
X0112Y-0362
X0092Y-0362
X0112Y-0342
X0092Y-0342
X0192Y-0402
R03X-002
X0192Y-0382
R03X-002
X0192Y-0362
R03X-002
X0192Y-0342
R03X-002
X0272Y-0402
R03X-002
X0272Y-0382
R03X-002
X0272Y-0362
R03X-002
X0272Y-0342
R03X-002
X0112Y-0322
X0092Y-0322
X0112Y-0302
X0092Y-0302
X0112Y-0282
X0092Y-0282
X0112Y-0262
X0092Y-0262
X0192Y-0322
R03X-002
X0192Y-0302
R03X-002
X0192Y-0282
R03X-002
X0192Y-0262
R03X-002
X0272Y-0322
R03X-002
X0272Y-0302
R03X-002
X0272Y-0282
R03X-002
X0272Y-0262
R03X-002
X0112Y-0242
X0092Y-0242
X0112Y-0222
X0092Y-0222
X0112Y-0202
X0092Y-0202
X0112Y-0182
X0092Y-0182
X0192Y-0242
R03X-002
X0192Y-0222
R03X-002
X0192Y-0202
R03X-002
X0192Y-0182
R03X-002
X0272Y-0242
R03X-002
X0272Y-0222
R03X-002
X0272Y-0202
R03X-002
X0272Y-0182
R03X-002
X0112Y-0162
X0092Y-0162
X0112Y-0142
X0092Y-0142
X0112Y-0122
X0092Y-0122
X0192Y-0162
R03X-002
X0192Y-0142
R03X-002
X0192Y-0122
R03X-002
X0272Y-0162
R03X-002
X0272Y-0142
R03X-002
X0272Y-0122
R03X-002
X-0273Y-0201
X-0293Y-0201
X-0273Y-0181
X-0293Y-0181
X-0233Y-0201
X-0253Y-0201
X-0233Y-0181
X-0253Y-0181
X-0113Y-0201
R03X-002
X-0113Y-0181
R03X-002
X-0031Y-0201
R03X-002
X-0031Y-0181
R03X-002
X0049Y-0201
R03X-002
X0049Y-0181
R03X-002
X0069Y-0201
X0069Y-0181
X0426Y0319
X0406Y0319
X0426Y0339
X0406Y0339
X0506Y0319
R03X-002
X0506Y0339
R03X-002
X0546Y0319
X0526Y0319
X0546Y0339
X0526Y0339
X0426Y0359
X0406Y0359
X0426Y0379
X0406Y0379
X0426Y0399
X0406Y0399
X0426Y0419
X0406Y0419
X0506Y0359
R03X-002
X0506Y0379
R03X-002
X0506Y0399
R03X-002
X0506Y0419
R03X-002
X0546Y0359
X0526Y0359
X0546Y0379
X0526Y0379
X0546Y0399
X0526Y0399
X0546Y0419
X0526Y0419
X0506Y0439
X0486Y0439
X0546Y0439
X0526Y0439
X0343Y0745
X0343Y0765
X0423Y0745
R03X-002
X0423Y0765
R03X-002
X0483Y0765
R02X-002
X0341Y0706
X0341Y0726
X0401Y0706
R02X-002
X0401Y0726
R02X-002
X0341Y0664
X0341Y0684
X0401Y0664
R02X-002
X0401Y0684
R02X-002
X-0413Y0746
X-0413Y0766
X-0333Y0746
R03X-002
X-0333Y0766
R03X-002
X-0273Y0746
R02X-002
X-0273Y0766
R02X-002
X-0193Y0746
R03X-002
X-0193Y0766
R03X-002
X-0113Y0746
R03X-002
X-0113Y0766
R03X-002
X-0033Y0746
R03X-002
X-0033Y0766
R03X-002
X0047Y0746
R03X-002
X0047Y0766
R03X-002
X0127Y0746
R03X-002
X0127Y0766
R03X-002
X0187Y0746
R02X-002
X0187Y0766
R02X-002
X0267Y0746
R03X-002
X0267Y0766
R03X-002
X0307Y0746
X0287Y0746
X0307Y0766
X0287Y0766
X-0723Y0316
R02Y002
X-0703Y0316
R02Y002
X-0723Y0376
R02Y002
X-0703Y0376
R02Y002
X-0723Y0436
R03Y002
X-0703Y0436
R03Y002
X-0723Y0516
R03Y002
X-0703Y0516
R03Y002
X-0723Y0596
R03Y002
X-0703Y0596
R03Y002
X-0723Y0676
X-0723Y0696
X-0703Y0676
X-0703Y0696
X-0489Y0614
R02Y002
X-0449Y0614
X-0469Y0614
X-0449Y0634
X-0469Y0634
X-0449Y0654
X-0469Y0654
X-0489Y0674
X-0449Y0674
X-0469Y0674
X-0449Y0694
X-0469Y0694
X-0449Y0714
X-0188Y0656
R03X-002
X-0108Y0656
R03X-002
X-0028Y0656
R03X-002
X0032Y0656
R02X-002
X0112Y0656
R03X-002
X0132Y0656
X-0188Y0676
R03X-002
X-0108Y0676
R03X-002
X-0028Y0676
R03X-002
X0032Y0676
R02X-002
X0112Y0676
R03X-002
X0132Y0676
X0117Y0495
R03X-002
X0177Y0495
R02X-002
X0117Y0515
R03X-002
X0117Y0535
R03X-002
X0197Y0515
R03X-002
X0197Y0535
R03X-002
X-019Y0197
R02X-002
X-011Y0197
R03X-002
X-009Y0197
X-019Y0217
R02X-002
X-019Y0237
R02X-002
X-011Y0217
R03X-002
X-011Y0237
R03X-002
X-009Y0217
X-009Y0237
X-0419Y0315
R03X-002
X-0419Y0335
R03X-002
X-0419Y0355
R03X-002
X-0379Y0315
X-0399Y0315
X-0359Y0335
R02X-002
X-0339Y0355
R03X-002
X0267Y-0001
R03X-002
X0267Y0019
R03X-002
X0267Y0039
R03X-002
X0287Y-0001
R02Y002
X0267Y0059
R03X-002
X0267Y0079
R03X-002
X0287Y0059
X0287Y0079
X0274Y0099
X0254Y0099
X0274Y0119
X0254Y0119
X0274Y0139
X0254Y0139
X0274Y0159
X0254Y0159
X0274Y0179
X0254Y0179
X0273Y-0099
X0253Y-0099
X0273Y-0079
X0253Y-0079
X0273Y-0059
X0253Y-0059
X0273Y-0039
X0253Y-0039
X0273Y-0019
X0253Y-0019
X-0654Y0394
X-0674Y0394
X-0654Y0414
X-0674Y0414
X-0592Y0129
X-0612Y0129
X-0592Y0149
X-0612Y0149
X-0592Y0169
X-0612Y0169
X-0592Y0189
X-0612Y0189
X-0592Y0209
X-0612Y0209
X-0711Y-0009
R03Y002
X-0691Y-0009
R03Y002
X-0711Y0071
X-0691Y0071
X-0453Y-016
X-0473Y-016
X-0453Y-014
X-0473Y-014
X-0453Y-012
X-0473Y-012
X-0453Y-01
X-0473Y-01
X-0453Y-008
X-0473Y-008
X-034Y-0119
X-032Y-0119
X-034Y-0099
R03Y002
X-032Y-0099
R03Y002
X-0271Y-0118
X-0291Y-0118
X-0271Y-0098
X-0291Y-0098
X-0271Y-0078
X-0291Y-0078
X-0271Y-0058
X-0291Y-0058
X-0271Y-0038
X-0291Y-0038
X-0034Y-0124
X-0054Y-0124
X-0034Y-0104
X-0054Y-0104
X-0034Y-0084
X-0054Y-0084
X-0034Y-0064
X-0054Y-0064
X-0112Y-0117
R02X-002
X-0072Y-0117
X-0092Y-0117
X-0254Y-0115
X-0194Y-0115
X-0214Y-0115
X-0234Y-0115
X-0174Y-0115
X0011Y-0314
X-0009Y-0314
X0011Y-0294
X-0009Y-0294
X0011Y-0274
X-0009Y-0274
X0011Y-0254
X-0009Y-0254
X0011Y-0234
X-0009Y-0234
X-00816Y-02899
X-0051Y-02593
X-0051Y-0319
X-01107Y-0319
X-0111Y-0258
X02166Y05185
X02751Y05271
X03281Y0474
M30
